{
.appVersion = "3108";
.formatVersion = 3;
DisplayStrings = (
A,
HAHBRNMEILHFAHHCCCCCOCCSCGQ,
E
);
axes = (
{
name = Weight;
tag = wght;
}
);
classes = (
{
automatic = 1;

glyphs = (
{
glyphname = A;
lastChange = "2022-01-26 19:41:52 +0000";
layers = (
{
anchors = (
{
name = bottom;
pos = (328,0);
},
{
name = ogonek;
pos = (598,10);
},
{
name = top;
pos = (328,700);
}
);
layerId = "6242D68C-0A25-4F05-8F2A-2075F7C4A210";
shapes = (
{
closed = 1;
nodes = (
(132,-10,o),
(164,8,o),
(174,38,cs),
(345,550,l),
(308,550,l),
(481,38,ls),
(491,8,o),
(523,-10,o),
(556,-10,cs),
(616,-10,o),
(648,50,o),
(629,98,cs),
(406,657,ls),
(392,693,o),
(367,710,o),
(328,710,cs),
(289,710,o),
(264,693,o),
(249,657,cs),
(25,98,ls),
(8,55,o),
(35,-10,o),
(99,-10,cs)
);
},
{
closed = 1;
nodes = (
(484,146,l),
(484,284,l),
(156,284,l),
(156,144,l)
);
}
);
width = 654;
},
{
anchors = (
{
name = bottom;
pos = (283,0);
},
{
name = ogonek;
pos = (508,0);
},
{
name = top;
pos = (283,700);
}
);
background = {
shapes = (
{
attr = {
strokeWidth = 2;
};
closed = 0;
nodes = (
(46,0,l),
(290,698,l)
);
},
{
attr = {
strokeWidth = 2;
};
closed = 0;
nodes = (
(120,251,l),
(448,251,l)
);
},
{
attr = {
strokeWidth = 2;
};
closed = 0;
nodes = (
(526,0,l),
(282,698,l)
);
},
{
closed = 1;
nodes = (
(133,281,l),
(133,223,l),
(435,223,l),
(435,281,l)
);
},
{
closed = 1;
nodes = (
(64,-10,o),
(74,-2,o),
(78,9,cs),
(299,639,l),
(272,639,l),
(493,9,ls),
(497,-2,o),
(507,-10,o),
(520,-10,cs),
(542,-10,o),
(554,10,o),
(547,29,cs),
(319,681,ls),
(312,701,o),
(299,710,o),
(286,710,cs),
(273,710,o),
(260,701,o),
(253,681,cs),
(25,29,ls),
(18,10,o),
(30,-10,o),
(52,-10,cs)
);
}
);
};
layerId = "3D52442A-254C-4C79-B742-A98FD72DF947";
shapes = (
{
closed = 1;
nodes = (
(53,-10,o),
(62,-4,o),
(65,5,cs),
(288,640,l),
(278,640,l),
(501,5,ls),
(504,-4,o),
(513,-10,o),
(523,-10,cs),
(541,-10,o),
(550,7,o),
(545,21,cs),
(305,695,ls),
(302,704,o),
(292,710,o),
(283,710,cs),
(274,710,o),
(264,704,o),
(261,695,cs),
(21,21,ls),
(16,7,o),
(25,-10,o),
(43,-10,cs)
);
},
{
closed = 1;
nodes = (
(444,236,l),
(444,281,l),
(125,281,l),
(125,236,l)
);
}
);
width = 566;
},
{
anchors = (
{
name = bottom;
pos = (310,0);
},
{
name = ogonek;
pos = (539,3);
},
{
name = top;
pos = (310,700);
}
);
layerId = "CF015620-3929-45BF-A6BE-C5D8AFCEAD19";
shapes = (
{
closed = 1;
nodes = (
(92,-10,o),
(112,3,o),
(118,22,cs),
(323,603,l),
(298,603,l),
(502,22,ls),
(508,3,o),
(528,-10,o),
(549,-10,cs),
(588,-10,o),
(608,31,o),
(596,60,cs),
(366,666,ls),
(354,698,o),
(334,710,o),
(310,710,cs),
(286,710,o),
(266,698,o),
(254,666,cs),
(24,60,ls),
(13,32,o),
(30,-10,o),
(71,-10,cs)
);
},
{
closed = 1;
nodes = (
(480,192,l),
(480,285,l),
(132,285,l),
(132,192,l)
);
}
);
width = 619.5;
},
{
anchors = (
{
name = bottom;
pos = (294,0);
},
{
name = ogonek;
pos = (514,0);
},
{
name = top;
pos = (294,700);
}
);
layerId = "0A7BF5CC-8360-449C-B03A-1C2F0CDBB92F";
shapes = (
{
closed = 1;
nodes = (
(66,-10,o),
(78,-2,o),
(82,11,cs),
(302,630,l),
(286,630,l),
(505,11,ls),
(509,-2,o),
(521,-10,o),
(535,-10,cs),
(560,-10,o),
(572,16,o),
(565,34,cs),
(329,682,ls),
(322,702,o),
(308,710,o),
(294,710,cs),
(280,710,o),
(266,702,o),
(258,682,cs),
(22,34,ls),
(15,16,o),
(27,-10,o),
(52,-10,cs)
);
},
{
closed = 1;
nodes = (
(461,222,l),
(461,283,l),
(125,283,l),
(125,222,l)
);
}
);
width = 587;
}
);
unicode = 65;
},
{
glyphname = A.ss02;
lastChange = "2022-01-26 16:30:56 +0000";
layers = (
{
anchors = (
{
name = bottom;
pos = (353,0);
},
{
name = ogonek;
pos = (635,10);
},
{
name = top;
pos = (353,700);
}
);
layerId = "6242D68C-0A25-4F05-8F2A-2075F7C4A210";
shapes = (
{
closed = 1;
nodes = (
(509,143,l),
(509,293,l),
(181,293,l),
(181,143,l)
);
},
{
closed = 1;
nodes = (
(142,-15,o),
(173,3,o),
(184,33,cs),
(370,550,l),
(333,550,l),
(521,33,ls),
(532,3,o),
(563,-15,o),
(596,-15,cs),
(656,-15,o),
(689,45,o),
(669,93,cs),
(431,657,ls),
(415,695,o),
(388,709,o),
(353,709,cs),
(321,709,o),
(292,699,o),
(274,657,cs),
(35,93,ls),
(17,50,o),
(45,-15,o),
(109,-15,cs)
);
}
);
width = 705;
},
{
anchors = (
{
name = bottom;
pos = (298,0);
},
{
name = ogonek;
pos = (536,10);
},
{
name = top;
pos = (298,700);
}
);
layerId = "3D52442A-254C-4C79-B742-A98FD72DF947";
shapes = (
{
closed = 1;
nodes = (
(464,236,l),
(464,281,l),
(135,281,l),
(135,236,l)
);
},
{
closed = 1;
nodes = (
(63,-10,o),
(72,-4,o),
(75,5,cs),
(298,640,l),
(288,640,l),
(521,5,ls),
(524,-4,o),
(533,-10,o),
(543,-10,cs),
(561,-10,o),
(570,7,o),
(565,21,cs),
(315,695,ls),
(312,703,o),
(303,710,o),
(293,710,cs),
(283,710,o),
(274,703,o),
(271,695,cs),
(31,21,ls),
(26,7,o),
(35,-10,o),
(53,-10,cs)
);
}
);
width = 596;
},
{
anchors = (
{
name = bottom;
pos = (331,0);
},
{
name = ogonek;
pos = (596,10);
},
{
name = top;
pos = (331,700);
}
);
layerId = "CF015620-3929-45BF-A6BE-C5D8AFCEAD19";
shapes = (
{
closed = 1;
nodes = (
(501,178,l),
(501,271,l),
(153,271,l),
(153,178,l)
);
},
{
closed = 1;
nodes = (
(102,-15,o),
(121,-2,o),
(128,17,cs),
(344,603,l),
(319,603,l),
(535,17,ls),
(541,-2,o),
(561,-15,o),
(582,-15,cs),
(622,-15,o),
(640,26,o),
(629,55,cs),
(388,662,ls),
(375,695,o),
(354,710,o),
(331,710,cs),
(309,710,o),
(288,696,o),
(275,662,cs),
(34,55,ls),
(22,27,o),
(40,-15,o),
(81,-15,cs)
);
}
);
width = 662.25;
},
{
anchors = (
{
name = bottom;
pos = (311,0);
},
{
name = ogonek;
pos = (560,10);
},
{
name = top;
pos = (311,700);
}
);
layerId = "0A7BF5CC-8360-449C-B03A-1C2F0CDBB92F";
shapes = (
{
closed = 1;
nodes = (
(481,213,l),
(481,273,l),
(140,273,l),
(140,213,l)
);
},
{
closed = 1;
nodes = (
(76,-13,o),
(88,-4,o),
(92,8,cs),
(317,630,l),
(301,630,l),
(530,8,ls),
(534,-4,o),
(547,-13,o),
(560,-13,cs),
(586,-13,o),
(597,13,o),
(590,32,cs),
(344,680,ls),
(337,699,o),
(323,710,o),
(309,710,cs),
(294,710,o),
(281,699,o),
(273,680,cs),
(32,32,ls),
(25,13,o),
(37,-13,o),
(62,-13,cs)
);
}
);
width = 622;
}
);
},
{
glyphname = Aogonek;
lastChange = "2022-01-26 16:30:56 +0000";
layers = (
{
layerId = "6242D68C-0A25-4F05-8F2A-2075F7C4A210";
shapes = (
{
closed = 1;
nodes = (
(132,-10,o),
(164,8,o),
(174,38,cs),
(348,559,l),
(306,559,l),
(473,60,ls),
(480,39,o),
(463,25,o),
(441,8,cs),
(414,-14,o),
(380,-41,o),
(380,-95,cs),
(380,-165,o),
(438,-215,o),
(516,-215,cs),
(565,-215,o),
(609,-198,o),
(639,-164,cs),
(650,-151,o),
(657,-134,o),
(657,-116,cs),
(657,-77,o),
(627,-60,o),
(598,-60,cs),
(572,-60,o),
(558,-69,o),
(543,-80,cs),
(534,-87,o),
(519,-96,o),
(509,-96,cs),
(499,-96,o),
(494,-88,o),
(494,-82,cs),
(494,-66,o),
(525,-50,o),
(561,-28,cs),
(587,-12,o),
(635,15,o),
(635,65,cs),
(635,78,o),
(632,90,o),
(629,98,cs),
(406,657,ls),
(392,693,o),
(367,710,o),
(328,710,cs),
(289,710,o),
(264,693,o),
(249,657,cs),
(25,98,ls),
(8,55,o),
(35,-10,o),
(99,-10,cs)
);
},
{
closed = 1;
nodes = (
(484,140,l),
(484,290,l),
(156,290,l),
(156,138,l)
);
}
);
width = 677;
},
{
background = {
shapes = (
{
closed = 1;
nodes = (
(812,-202,o),
(835,-186,o),
(848,-168,cs),
(857,-156,o),
(861,-151,o),
(861,-141,cs),
(861,-130,o),
(853,-123,o),
(843,-123,cs),
(834,-123,o),
(829,-129,o),
(824,-134,c),
(807,-154,o),
(791,-157,o),
(779,-157,cs),
(761,-157,o),
(740,-142,o),
(740,-119,cs),
(740,-61,o),
(864,-34,o),
(846,18,cs),
(813,111,l),
(772,89,l),
(797,16,ls),
(810,-23,o),
(695,-31,o),
(695,-124,cs),
(695,-171,o),
(740,-202,o),
(780,-202,cs)
);
},
{
ref = A;
},
{
closed = 1;
nodes = (
(502,-28,o),
(380,-39,o),
(380,-131,cs),
(380,-184,o),
(420,-215,o),
(470,-215,cs),
(507,-215,o),
(534,-200,o),
(553,-175,cs),
(557,-169,o),
(561,-164,o),
(561,-155,cs),
(561,-143,o),
(553,-136,o),
(543,-136,cs),
(533,-136,o),
(528,-142,o),
(523,-147,cs),
(504,-166,o),
(491,-174,o),
(472,-174,cs),
(441,-174,o),
(424,-155,o),
(424,-130,cs),
(424,-65,o),
(545,-57,o),
(545,5,c),
(502,13,l)
);
}
);
};
layerId = "3D52442A-254C-4C79-B742-A98FD72DF947";
shapes = (
{
closed = 1;
nodes = (
(53,-10,o),
(62,-4,o),
(65,5,cs),
(288,640,l),
(278,640,l),
(496,20,ls),
(503,0,o),
(482,-14,o),
(456,-31,cs),
(423,-53,o),
(382,-79,o),
(382,-131,cs),
(382,-184,o),
(422,-215,o),
(472,-215,cs),
(509,-215,o),
(536,-200,o),
(555,-175,cs),
(559,-169,o),
(563,-164,o),
(563,-155,cs),
(563,-143,o),
(555,-136,o),
(545,-136,cs),
(535,-136,o),
(530,-142,o),
(525,-147,cs),
(506,-166,o),
(493,-174,o),
(474,-174,cs),
(443,-174,o),
(426,-155,o),
(426,-130,cs),
(426,-99,o),
(458,-79,o),
(489,-59,cs),
(519,-40,o),
(548,-22,o),
(548,6,cs),
(548,11,o),
(547,16,o),
(545,21,cs),
(305,695,ls),
(302,704,o),
(292,710,o),
(283,710,cs),
(274,710,o),
(264,704,o),
(261,695,cs),
(21,21,ls),
(17,11,o),
(22,-10,o),
(43,-10,cs)
);
},
{
closed = 1;
nodes = (
(444,236,l),
(444,281,l),
(125,281,l),
(125,236,l)
);
}
);
width = 583;
},
{
layerId = "CF015620-3929-45BF-A6BE-C5D8AFCEAD19";
shapes = (
{
closed = 1;
nodes = (
(92,-10,o),
(112,3,o),
(118,22,cs),
(323,605,l),
(297,605,l),
(493,47,ls),
(503,21,o),
(481,3,o),
(455,-17,cs),
(427,-40,o),
(392,-67,o),
(392,-115,cs),
(392,-180,o),
(447,-215,o),
(504,-215,cs),
(534,-215,o),
(570,-206,o),
(599,-173,cs),
(606,-165,o),
(611,-153,o),
(611,-140,cs),
(611,-116,o),
(593,-99,o),
(570,-99,cs),
(556,-99,o),
(545,-104,o),
(536,-112,cs),
(523,-125,o),
(512,-129,o),
(502,-129,cs),
(486,-129,o),
(477,-118,o),
(477,-105,cs),
(477,-82,o),
(504,-67,o),
(534,-46,cs),
(564,-26,o),
(601,0,o),
(601,37,cs),
(601,45,o),
(599,53,o),
(596,60,cs),
(366,666,ls),
(354,698,o),
(334,710,o),
(310,710,cs),
(286,710,o),
(266,698,o),
(254,666,cs),
(24,60,ls),
(12,29,o),
(32,-10,o),
(71,-10,cs)
);
},
{
closed = 1;
nodes = (
(480,191,l),
(480,286,l),
(132,286,l),
(132,191,l)
);
}
);
width = 631.25;
},
{
layerId = "0A7BF5CC-8360-449C-B03A-1C2F0CDBB92F";
shapes = (
{
closed = 1;
nodes = (
(66,-10,o),
(78,-2,o),
(82,11,cs),
(302,630,l),
(286,630,l),
(498,31,ls),
(507,8,o),
(485,-9,o),
(458,-28,cs),
(427,-51,o),
(389,-78,o),
(389,-126,cs),
(389,-185,o),
(436,-215,o),
(486,-215,cs),
(517,-215,o),
(547,-204,o),
(570,-176,cs),
(575,-169,o),
(580,-162,o),
(580,-152,cs),
(580,-136,o),
(568,-124,o),
(553,-124,cs),
(543,-124,o),
(536,-129,o),
(530,-135,cs),
(513,-152,o),
(501,-157,o),
(487,-157,cs),
(462,-157,o),
(449,-142,o),
(449,-121,cs),
(449,-93,o),
(478,-76,o),
(507,-56,cs),
(538,-35,o),
(569,-14,o),
(569,17,cs),
(569,23,o),
(568,28,o),
(565,34,cs),
(329,682,ls),
(322,702,o),
(308,710,o),
(294,710,cs),
(280,710,o),
(266,702,o),
(258,682,cs),
(22,34,ls),
(15,16,o),
(27,-10,o),
(52,-10,cs)
);
},
{
closed = 1;
nodes = (
(461,222,l),
(461,283,l),
(125,283,l),
(125,222,l)
);
}
);
width = 599.5;
}
);
metricLeft = "=A";
metricRight = "=A";
unicode = 260;
},
{
glyphname = AE;
lastChange = "2022-01-26 16:30:56 +0000";
layers = (
{
anchors = (
{
name = bottom;
pos = (394,0);
},
{
name = top;
pos = (484,700);
}
);
background = {
anchors = (
{
name = bottom;
pos = (414,0);
},
{
name = top;
pos = (414,700);
}
);
shapes = (
{
attr = {
lineCapEnd = "1";
lineCapStart = "1";
strokeHeight = 140;
strokeWidth = 140;
};
closed = 0;
nodes = (
(669,626,l),
(345,626,ls),
(339,626,o),
(337,624,o),
(333,616,cs),
(90,71,l)
);
},
{
attr = {
lineCapEnd = "1";
lineCapStart = "1";
strokeHeight = 140;
strokeWidth = 140;
};
closed = 0;
nodes = (
(676,71,l),
(424,71,ls),
(421,71,o),
(419,71,o),
(419,74,cs),
(419,610,l)
);
},
{
attr = {
lineCapEnd = "2";
lineCapStart = "2";
strokeHeight = 140;
strokeWidth = 140;
};
closed = 0;
nodes = (
(703,363,l),
(419,363,l)
);
},
{
attr = {
strokeHeight = 130;
strokeWidth = 130;
};
closed = 0;
nodes = (
(404,219,l),
(170,219,l)
);
},
{
closed = 1;
nodes = (
(396.302,586.08,l),
(394.53,582.535,o),
(339,556,o),
(345,556,c),
(669,556,ls),
(707.66,556,o),
(739,587.34,o),
(739,626,cs),
(739,664.66,o),
(707.66,696,o),
(669,696,cs),
(345,696,ls),
(304.063,696,o),
(281,671,o),
(269.561,645.613,cs),
(26.059,99.509,ls),
(6,55,o),
(37,1,o),
(90,1,cs),
(118.506,1,o),
(143.032,18.039,o),
(153.941,42.491,cs)
);
},
{
closed = 1;
nodes = (
(349,74,l),
(349,21.4,o),
(394.6,1,o),
(424,1,c),
(676,1,ls),
(714.66,1,o),
(746,32.34,o),
(746,71,cs),
(746,109.66,o),
(714.66,141,o),
(676,141,cs),
(424,141,l),
(489,74,l),
(489,610,l),
(349,610,l)
);
},
{
closed = 1;
nodes = (
(640,293,ls),
(678.66,293,o),
(710,324.34,o),
(710,363,cs),
(710,401.66,o),
(678.66,433,o),
(640,433,cs),
(482,433,l),
(482,293,l)
);
},
{
closed = 1;
nodes = (
(404,154,l),
(404,284,l),
(170,284,l),
(170,154,l)
);
}
);
};
layerId = "6242D68C-0A25-4F05-8F2A-2075F7C4A210";
shapes = (
{
closed = 1;
nodes = (
(119,0,o),
(143,18,o),
(154,42,cs),
(204,154,l),
(349,154,l),
(349,74,ls),
(349,21,o),
(395,0,o),
(424,0,cs),
(676,0,ls),
(715,0,o),
(746,32,o),
(746,71,cs),
(746,110,o),
(715,141,o),
(676,141,cs),
(489,141,l),
(489,293,l),
(640,293,ls),
(679,293,o),
(710,324,o),
(710,363,cs),
(710,402,o),
(679,433,o),
(640,433,cs),
(489,433,l),
(489,560,l),
(669,560,ls),
(708,560,o),
(739,591,o),
(739,630,cs),
(739,669,o),
(708,700,o),
(669,700,cs),
(345,700,ls),
(304,700,o),
(281,675,o),
(270,650,cs),
(26,100,ls),
(6,55,o),
(37,0,o),
(90,0,cs)
);
},
{
closed = 1;
nodes = (
(344,476,ls),
(345,479,o),
(346,480,o),
(347,480,c),
(349,480,l),
(349,284,l),
(262,284,l)
);
}
);
width = 788;
},
{
anchors = (
{
name = bottom;
pos = (386,0);
},
{
name = top;
pos = (466,700);
}
);
background = {
shapes = (
{
attr = {
lineCapEnd = "1";
lineCapStart = "1";
strokeHeight = 45;
strokeWidth = 45;
};
closed = 0;
nodes = (
(682,677,l),
(344,677,ls),
(338,677,o),
(334,675,o),
(330,666,cs),
(42,18,l)
);
},
{
attr = {
lineCapEnd = "1";
lineCapStart = "1";
strokeHeight = 45;
strokeWidth = 45;
};
closed = 0;
nodes = (
(690,23,l),
(391,23,ls),
(388,23,o),
(386,25,o),
(386,28,cs),
(386,665,l)
);
},
{
attr = {
lineCapEnd = "2";
lineCapStart = "2";
strokeHeight = 45;
strokeWidth = 45;
};
closed = 0;
nodes = (
(687,365,l),
(385,365,l)
);
},
{
attr = {
strokeHeight = 45;
strokeWidth = 45;
};
closed = 0;
nodes = (
(367,241,l),
(137,241,l)
);
},
{
closed = 1;
nodes = (
(348,651,ls),
(349,654,o),
(352,655,o),
(355,655,cs),
(682,655,ls),
(694,654,o),
(705,665,o),
(705,677,cs),
(705,689,o),
(694,700,o),
(682,700,cs),
(344,700,ls),
(329,700,o),
(317,692,o),
(309,675,cs),
(21,27,ls),
(20,24,o),
(20,21,o),
(20,18,cs),
(20,6,o),
(30,-5,o),
(42,-5,cs),
(51,-5,o),
(59,1,o),
(63,9,cs)
);
},
{
closed = 1;
nodes = (
(364,28,ls),
(364,13,o),
(376,1,o),
(391,1,cs),
(690,1,ls),
(702,1,o),
(713,11,o),
(713,23,cs),
(713,35,o),
(702,46,o),
(690,46,cs),
(391,46,l),
(409,28,l),
(409,665,l),
(364,665,l)
);
},
{
closed = 1;
nodes = (
(667,343,ls),
(679,343,o),
(689,353,o),
(689,365,cs),
(689,377,o),
(679,388,o),
(667,388,cs),
(405,388,l),
(405,343,l)
);
},
{
closed = 1;
nodes = (
(367,219,l),
(367,264,l),
(137,264,l),
(137,219,l)
);
}
);
};
layerId = "3D52442A-254C-4C79-B742-A98FD72DF947";
shapes = (
{
closed = 1;
nodes = (
(51,-5,o),
(59,1,o),
(63,9,cs),
(156,219,l),
(364,219,l),
(364,28,ls),
(364,13,o),
(376,1,o),
(391,1,cs),
(690,1,ls),
(702,1,o),
(713,11,o),
(713,23,cs),
(713,35,o),
(702,46,o),
(690,46,cs),
(409,46,l),
(409,343,l),
(667,343,ls),
(679,343,o),
(689,353,o),
(689,365,cs),
(689,377,o),
(679,388,o),
(667,388,cs),
(409,388,l),
(409,655,l),
(682,655,l),
(694,654,o),
(705,665,o),
(705,677,cs),
(705,689,o),
(694,700,o),
(682,700,cs),
(344,700,ls),
(329,700,o),
(317,692,o),
(309,675,cs),
(21,27,ls),
(16,15,o),
(25,-5,o),
(42,-5,cs)
);
},
{
closed = 1;
nodes = (
(348,651,ls),
(349,654,o),
(352,655,o),
(355,655,cs),
(364,655,l),
(364,264,l),
(176,264,l)
);
}
);
width = 771;
},
{
anchors = (
{
name = bottom;
pos = (411,0);
},
{
name = top;
pos = (434,700);
}
);
layerId = "CF015620-3929-45BF-A6BE-C5D8AFCEAD19";
shapes = (
{
closed = 1;
nodes = (
(88,-4,o),
(106,9,o),
(113,26,cs),
(187,195,l),
(375,195,l),
(375,49,ls),
(375,19,o),
(400,0,o),
(425,0,cs),
(732,0,ls),
(757,0,o),
(778,21,o),
(778,46,cs),
(778,72,o),
(757,92,o),
(732,92,cs),
(472,92,l),
(472,318,l),
(687,318,ls),
(712,318,o),
(733,338,o),
(733,364,cs),
(733,389,o),
(712,410,o),
(687,410,cs),
(472,410,l),
(472,608,l),
(710,608,ls),
(735,608,o),
(756,629,o),
(756,654,cs),
(756,680,o),
(735,700,o),
(710,700,cs),
(342,700,ls),
(318,700,o),
(300,683,o),
(287,653,cs),
(24,64,ls),
(12,36,o),
(30,-4,o),
(68,-4,cs)
);
},
{
closed = 1;
nodes = (
(355,581,ls),
(357,586,o),
(360,588,o),
(364,588,cs),
(375,588,l),
(375,283,l),
(225,283,l)
);
}
);
width = 821.75;
},
{
anchors = (
{
name = bottom;
pos = (402,0);
},
{
name = top;
pos = (442,700);
}
);
layerId = "0A7BF5CC-8360-449C-B03A-1C2F0CDBB92F";
shapes = (
{
closed = 1;
nodes = (
(65,-5,o),
(76,4,o),
(81,15,cs),
(169,214,l),
(374,214,l),
(374,35,ls),
(374,16,o),
(389,1,o),
(408,1,cs),
(720,1,ls),
(737,1,o),
(751,14,o),
(751,31,cs),
(751,47,o),
(737,61,o),
(720,61,cs),
(438,61,l),
(438,335,l),
(685,335,ls),
(701,335,o),
(715,348,o),
(715,365,cs),
(715,381,o),
(701,395,o),
(685,395,cs),
(438,395,l),
(438,640,l),
(703,640,l),
(719,639,o),
(733,653,o),
(733,670,cs),
(733,686,o),
(719,700,o),
(703,700,cs),
(343,700,ls),
(326,700,o),
(312,689,o),
(301,665,cs),
(22,40,ls),
(15,22,o),
(27,-5,o),
(52,-5,cs)
);
},
{
closed = 1;
nodes = (
(353,634,ls),
(355,638,o),
(358,640,o),
(362,640,cs),
(374,640,l),
(374,274,l),
(195,274,l)
);
}
);
width = 802;
}
);
metricLeft = "=A";
metricRight = "=E";
unicode = 198;
},
{
glyphname = B;
lastChange = "2022-01-26 19:39:45 +0000";
layers = (
{
anchors = (
{
name = bottom;
pos = (283,0);
},
{
name = center;
pos = (283,350);
},
{
name = top;
pos = (283,700);
}
);
layerId = "6242D68C-0A25-4F05-8F2A-2075F7C4A210";
shapes = (
{
closed = 1;
nodes = (
(390,0,ls),
(533,0,o),
(616,93,o),
(616,198,cs),
(616,290,o),
(552,352,o),
(476,389,c),
(487,331,l),
(534,368,o),
(576,421,o),
(576,498,cs),
(576,612,o),
(482,700,o),
(349,700,cs),
(165,700,ls),
(116,700,o),
(80,664,o),
(80,615,cs),
(80,84,ls),
(80,35,o),
(116,0,o),
(165,0,cs)
);
},
{
closed = 1;
nodes = (
(236,286,l),
(384,286,ls),
(427,286,o),
(458,256,o),
(458,216,cs),
(458,170,o),
(427,140,o),
(385,140,cs),
(236,140,l)
);
},
{
closed = 1;
nodes = (
(236,560,l),
(338,560,ls),
(382,560,o),
(416,531,o),
(416,491,cs),
(416,442,o),
(384,420,o),
(342,420,cs),
(236,419,l)
);
}
);
width = 663;
},
{
anchors = (
{
name = bottom;
pos = (269,0);
},
{
name = center;
pos = (282,350);
},
{
name = top;
pos = (261,700);
}
);
layerId = "3D52442A-254C-4C79-B742-A98FD72DF947";
shapes = (
{
closed = 1;
nodes = (
(351,0,ls),
(465,0,o),
(542,77,o),
(542,193,cs),
(542,282,o),
(494,350,o),
(410,379,c),
(410,368,l),
(472,396,o),
(509,448,o),
(509,526,cs),
(509,627,o),
(434,700,o),
(331,700,cs),
(103,700,ls),
(90,700,o),
(80,690,o),
(80,677,cs),
(80,23,ls),
(80,10,o),
(90,0,o),
(103,0,cs)
);
},
{
closed = 1;
nodes = (
(126,349,l),
(317,349,ls),
(437,349,o),
(496,286,o),
(496,193,cs),
(496,103,o),
(439,45,o),
(351,45,cs),
(126,45,l)
);
},
{
closed = 1;
nodes = (
(126,655,l),
(331,655,ls),
(413,655,o),
(463,600,o),
(463,526,cs),
(463,448,o),
(418,394,o),
(335,394,cs),
(126,394,l)
);
}
);
width = 585;
},
{
anchors = (
{
name = bottom;
pos = (290,0);
},
{
name = center;
pos = (290,350);
},
{
name = top;
pos = (290,700);
}
);
layerId = "CF015620-3929-45BF-A6BE-C5D8AFCEAD19";
shapes = (
{
closed = 1;
nodes = (
(362,0,ls),
(484,0,o),
(566,93,o),
(566,211,cs),
(566,290,o),
(514,366,o),
(435,391,c),
(439,362,l),
(493,392,o),
(533,449,o),
(533,512,cs),
(533,620,o),
(452,700,o),
(342,700,cs),
(132,700,ls),
(103,700,o),
(80,678,o),
(80,648,cs),
(80,52,ls),
(80,22,o),
(103,0,o),
(132,0,cs)
);
},
{
closed = 1;
nodes = (
(181,331,l),
(350,331,ls),
(418,331,o),
(465,283,o),
(465,213,cs),
(465,142,o),
(419,95,o),
(347,95,cs),
(181,95,l)
);
},
{
closed = 1;
nodes = (
(181,608,l),
(335,608,ls),
(393,608,o),
(433,570,o),
(433,514,cs),
(433,454,o),
(391,418,o),
(329,418,cs),
(181,418,l)
);
}
);
width = 609;
},
{
anchors = (
{
name = bottom;
pos = (281,0);
},
{
name = center;
pos = (287,350);
},
{
name = top;
pos = (277,700);
}
);
layerId = "0A7BF5CC-8360-449C-B03A-1C2F0CDBB92F";
shapes = (
{
closed = 1;
nodes = (
(352,0,ls),
(467,0,o),
(545,86,o),
(545,201,cs),
(545,286,o),
(495,360,o),
(413,386,c),
(414,370,l),
(473,398,o),
(514,453,o),
(514,524,cs),
(514,625,o),
(437,700,o),
(335,700,cs),
(112,700,ls),
(94,700,o),
(80,686,o),
(80,668,cs),
(80,32,ls),
(80,14,o),
(94,0,o),
(112,0,cs)
);
},
{
closed = 1;
nodes = (
(144,346,l),
(328,346,ls),
(426,346,o),
(482,287,o),
(482,201,cs),
(482,116,o),
(428,61,o),
(343,61,cs),
(144,61,l)
);
},
{
closed = 1;
nodes = (
(144,640,l),
(333,640,ls),
(405,640,o),
(451,592,o),
(451,524,cs),
(451,454,o),
(406,406,o),
(330,406,cs),
(144,406,l)
);
}
);
width = 588;
}
);
metricLeft = H;
unicode = 66;
},
{
glyphname = B.ss02;
lastChange = "2022-01-26 16:30:56 +0000";
layers = (
{
anchors = (
{
name = bottom;
pos = (319,0);
},
{
name = center;
pos = (319,350);
},
{
name = top;
pos = (319,700);
}
);
background = {
shapes = (
{
closed = 1;
nodes = (
(344,0,ls),
(458,0,o),
(535,77,o),
(535,193,cs),
(535,282,o),
(487,350,o),
(403,379,c),
(403,368,l),
(465,396,o),
(502,448,o),
(502,526,cs),
(502,627,o),
(427,700,o),
(324,700,cs),
(103,700,ls),
(90,700,o),
(80,690,o),
(80,677,cs),
(80,23,ls),
(80,10,o),
(90,0,o),
(103,0,cs)
);
},
{
closed = 1;
nodes = (
(126,349,l),
(310,349,ls),
(430,349,o),
(489,286,o),
(489,193,cs),
(489,103,o),
(432,45,o),
(344,45,cs),
(126,45,l)
);
},
{
closed = 1;
nodes = (
(126,655,l),
(324,655,ls),
(406,655,o),
(456,600,o),
(456,526,cs),
(456,448,o),
(411,394,o),
(328,394,cs),
(126,394,l)
);
}
);
};
layerId = "6242D68C-0A25-4F05-8F2A-2075F7C4A210";
shapes = (
{
closed = 1;
nodes = (
(380,0,ls),
(518,0,o),
(608,85,o),
(608,216,cs),
(608,290,o),
(559,352,o),
(483,389,c),
(494,331,l),
(541,368,o),
(566,421,o),
(566,483,cs),
(566,614,o),
(476,700,o),
(339,700,cs),
(165,700,ls),
(118,700,o),
(80,661,o),
(80,615,cs),
(80,84,ls),
(80,38,o),
(118,0,o),
(165,0,cs)
);
},
{
closed = 1;
nodes = (
(236,298,l),
(374,298,ls),
(417,298,o),
(448,268,o),
(448,226,cs),
(448,182,o),
(417,150,o),
(375,150,cs),
(236,150,l)
);
},
{
closed = 1;
nodes = (
(236,560,l),
(328,560,ls),
(372,560,o),
(406,529,o),
(406,490,cs),
(406,440,o),
(374,418,o),
(332,418,cs),
(236,417,l)
);
}
);
width = 651;
},
{
anchors = (
{
name = bottom;
pos = (255,0);
},
{
name = center;
pos = (255,350);
},
{
name = top;
pos = (255,700);
}
);
layerId = "3D52442A-254C-4C79-B742-A98FD72DF947";
shapes = (
{
closed = 1;
nodes = (
(299,0,ls),
(413,0,o),
(490,77,o),
(490,193,cs),
(490,282,o),
(442,350,o),
(358,379,c),
(358,368,l),
(420,396,o),
(457,448,o),
(457,526,cs),
(457,627,o),
(382,700,o),
(279,700,cs),
(103,700,ls),
(90,700,o),
(80,690,o),
(80,677,cs),
(80,23,ls),
(80,10,o),
(90,0,o),
(103,0,cs)
);
},
{
closed = 1;
nodes = (
(126,349,l),
(265,349,ls),
(385,349,o),
(444,286,o),
(444,193,cs),
(444,103,o),
(387,45,o),
(299,45,cs),
(126,45,l)
);
},
{
closed = 1;
nodes = (
(126,655,l),
(279,655,ls),
(361,655,o),
(411,600,o),
(411,526,cs),
(411,448,o),
(366,394,o),
(283,394,cs),
(126,394,l)
);
}
);
width = 533;
},
{
anchors = (
{
name = bottom;
pos = (284,0);
},
{
name = center;
pos = (284,350);
},
{
name = top;
pos = (284,700);
}
);
layerId = "CF015620-3929-45BF-A6BE-C5D8AFCEAD19";
shapes = (
{
closed = 1;
nodes = (
(358,0,ls),
(480,0,o),
(562,93,o),
(562,211,cs),
(562,290,o),
(510,366,o),
(431,391,c),
(435,362,l),
(489,392,o),
(529,449,o),
(529,512,cs),
(529,620,o),
(448,700,o),
(338,700,cs),
(132,700,ls),
(103,700,o),
(80,677,o),
(80,648,cs),
(80,52,ls),
(80,23,o),
(103,0,o),
(132,0,cs)
);
},
{
closed = 1;
nodes = (
(181,331,l),
(346,331,ls),
(414,331,o),
(461,283,o),
(461,213,cs),
(461,142,o),
(415,95,o),
(343,95,cs),
(181,95,l)
);
},
{
closed = 1;
nodes = (
(181,608,l),
(331,608,ls),
(389,608,o),
(429,570,o),
(429,514,cs),
(429,454,o),
(387,418,o),
(325,418,cs),
(181,418,l)
);
}
);
width = 604.5;
},
{
anchors = (
{
name = bottom;
pos = (264,0);
},
{
name = center;
pos = (264,350);
},
{
name = top;
pos = (264,700);
}
);
layerId = "0A7BF5CC-8360-449C-B03A-1C2F0CDBB92F";
shapes = (
{
closed = 1;
nodes = (
(325,0,ls),
(440,0,o),
(518,86,o),
(518,201,cs),
(518,286,o),
(468,360,o),
(386,386,c),
(387,370,l),
(446,398,o),
(487,453,o),
(487,524,cs),
(487,625,o),
(410,700,o),
(308,700,cs),
(112,700,ls),
(94,700,o),
(80,686,o),
(80,668,cs),
(80,32,ls),
(80,14,o),
(94,0,o),
(112,0,cs)
);
},
{
closed = 1;
nodes = (
(144,346,l),
(301,346,ls),
(399,346,o),
(455,287,o),
(455,201,cs),
(455,116,o),
(401,61,o),
(316,61,cs),
(144,61,l)
);
},
{
closed = 1;
nodes = (
(144,640,l),
(306,640,ls),
(378,640,o),
(424,592,o),
(424,524,cs),
(424,454,o),
(379,406,o),
(303,406,cs),
(144,406,l)
);
}
);
width = 561;
}
);
},
{
glyphname = C;
lastChange = "2022-01-26 19:27:48 +0000";
layers = (
{
anchors = (
{
name = bottom;
pos = (329,0);
},
{
name = top;
pos = (329,700);
}
);
background = {
shapes = (
{
attr = {
lineCapEnd = "2";
lineCapStart = "2";
strokeWidth = 2;
};
closed = 0;
nodes = (
(552,243,l),
(552,117,o),
(449,62,o),
(363,62,cs),
(210,62,o),
(135,191,o),
(135,347,cs),
(135,503,o),
(196,634,o),
(360,634,cs),
(469,634,o),
(533,565,o),
(533,491,c)
);
},
{
closed = 1;
nodes = (
(446,-15,o),
(516,16,o),
(568,69,cs),
(599,101,o),
(618,136,o),
(618,178,cs),
(618,219,o),
(585,252,o),
(544,252,cs),
(511,252,o),
(482,230,o),
(473,200,cs),
(459,153,o),
(424,125,o),
(364,125,cs),
(263,125,o),
(203,207,o),
(203,349,cs),
(203,486,o),
(263,577,o),
(363,575,cs),
(417,574,o),
(441,547,o),
(452,523,cs),
(464,498,o),
(489,481,o),
(519,481,cs),
(559,481,o),
(592,513,o),
(592,563,cs),
(592,600,o),
(573,632,o),
(539,660,cs),
(494,697,o),
(438,715,o),
(363,715,cs),
(168,715,o),
(46,562,o),
(46,352,cs),
(46,162,o),
(144,-15,o),
(358,-15,cs)
);
}
);
};
layerId = "6242D68C-0A25-4F05-8F2A-2075F7C4A210";
shapes = (
{
closed = 1;
nodes = (
(483,-15,o),
(598,68,o),
(598,178,cs),
(598,219,o),
(565,252,o),
(524,252,cs),
(491,252,o),
(462,230,o),
(453,200,cs),
(437,149,o),
(409,125,o),
(362,125,cs),
(273,125,o),
(213,207,o),
(213,349,cs),
(213,485,o),
(272,576,o),
(368,576,cs),
(417,576,o),
(435,553,o),
(451,531,cs),
(465,510,o),
(487,490,o),
(521,490,cs),
(565,490,o),
(589,522,o),
(589,560,cs),
(589,605,o),
(558,645,o),
(513,673,cs),
(469,700,o),
(414,715,o),
(363,715,cs),
(178,715,o),
(56,562,o),
(56,352,cs),
(56,162,o),
(154,-15,o),
(352,-15,cs)
);
}
);
width = 663;
},
{
anchors = (
{
name = bottom;
pos = (291,0);
},
{
name = top;
pos = (291,700);
}
);
background = {
shapes = (
{
pos = (-11,0);
ref = O;
}
);
};
layerId = "3D52442A-254C-4C79-B742-A98FD72DF947";
shapes = (
{
closed = 1;
nodes = (
(461,-15,o),
(518,73,o),
(539,158,cs),
(540,162,o),
(540,165,o),
(540,168,cs),
(540,184,o),
(530,194,o),
(518,194,cs),
(507,194,o),
(498,186,o),
(495,175,cs),
(476,94,o),
(433,29,o),
(326,29,cs),
(174,29,o),
(91,162,o),
(91,354,cs),
(91,553,o),
(177,671,o),
(322,671,cs),
(369,671,o),
(407,656,o),
(436,630,cs),
(461,606,o),
(478,574,o),
(490,533,cs),
(494,520,o),
(502,513,o),
(514,513,cs),
(530,513,o),
(535,525,o),
(535,540,cs),
(535,579,o),
(500,641,o),
(460,671,cs),
(424,700,o),
(378,715,o),
(325,715,cs),
(149,715,o),
(45,579,o),
(45,350,cs),
(45,134,o),
(148,-15,o),
(328,-15,cs)
);
}
);
width = 592;
},
{
anchors = (
{
name = bottom;
pos = (309,0);
},
{
name = top;
pos = (328,700);
}
);
layerId = "CF015620-3929-45BF-A6BE-C5D8AFCEAD19";
shapes = (
{
closed = 1;
nodes = (
(484,-15,o),
(564,91,o),
(564,168,cs),
(564,194,o),
(542,215,o),
(515,215,cs),
(490,215,o),
(473,198,o),
(466,168,cs),
(450,107,o),
(400,76,o),
(341,76,cs),
(229,76,o),
(155,188,o),
(155,350,cs),
(155,510,o),
(227,624,o),
(346,624,cs),
(403,624,o),
(444,597,o),
(460,551,cs),
(471,524,o),
(484,507,o),
(509,507,cs),
(539,507,o),
(556,528,o),
(556,555,cs),
(556,594,o),
(522,649,o),
(475,678,cs),
(438,702,o),
(392,715,o),
(344,715,cs),
(170,715,o),
(55,562,o),
(55,351,cs),
(55,145,o),
(162,-15,o),
(341,-15,cs)
);
}
);
width = 618.75;
},
{
anchors = (
{
name = bottom;
pos = (297,0);
},
{
name = top;
pos = (310,700);
}
);
layerId = "0A7BF5CC-8360-449C-B03A-1C2F0CDBB92F";
shapes = (
{
closed = 1;
nodes = (
(473,-15,o),
(535,86,o),
(546,162,cs),
(548,183,o),
(534,199,o),
(515,199,cs),
(498,199,o),
(488,187,o),
(483,166,cs),
(465,94,o),
(415,45,o),
(330,45,cs),
(194,45,o),
(114,172,o),
(114,352,cs),
(114,526,o),
(193,656,o),
(330,656,cs),
(406,656,o),
(459,615,o),
(478,546,cs),
(484,525,o),
(494,513,o),
(511,513,cs),
(533,513,o),
(541,530,o),
(541,549,cs),
(541,592,o),
(503,647,o),
(467,674,cs),
(432,699,o),
(386,715,o),
(331,715,cs),
(158,715,o),
(50,560,o),
(50,351,cs),
(50,137,o),
(157,-15,o),
(333,-15,cs)
);
}
);
width = 598;
}
);
metricLeft = O;
unicode = 67;
},
{
glyphname = C.001;
lastChange = "2022-01-26 16:30:56 +0000";
layers = (
{
anchors = (
{
name = bottom;
pos = (339,0);
},
{
name = top;
pos = (339,700);
}
);
background = {
shapes = (
{
attr = {
lineCapEnd = "2";
lineCapStart = "2";
strokeWidth = 2;
};
closed = 0;
nodes = (
(562,243,l),
(562,117,o),
(459,62,o),
(373,62,cs),
(220,62,o),
(145,191,o),
(145,347,cs),
(145,503,o),
(206,634,o),
(370,634,cs),
(479,634,o),
(543,565,o),
(543,491,c)
);
},
{
closed = 1;
nodes = (
(456,-15,o),
(526,16,o),
(578,69,cs),
(609,101,o),
(628,136,o),
(628,178,cs),
(628,219,o),
(595,252,o),
(554,252,cs),
(521,252,o),
(492,230,o),
(483,200,cs),
(469,153,o),
(434,125,o),
(374,125,cs),
(273,125,o),
(213,207,o),
(213,349,cs),
(213,486,o),
(273,577,o),
(373,575,cs),
(427,574,o),
(451,547,o),
(462,523,cs),
(474,498,o),
(499,481,o),
(529,481,cs),
(569,481,o),
(602,513,o),
(602,563,cs),
(602,600,o),
(583,632,o),
(549,660,cs),
(504,697,o),
(448,715,o),
(373,715,cs),
(178,715,o),
(56,562,o),
(56,352,cs),
(56,162,o),
(154,-15,o),
(368,-15,cs)
);
}
);
};
layerId = "6242D68C-0A25-4F05-8F2A-2075F7C4A210";
shapes = (
{
closed = 1;
nodes = (
(456,-15,o),
(526,16,o),
(578,69,cs),
(609,101,o),
(628,136,o),
(628,178,cs),
(628,219,o),
(595,252,o),
(554,252,cs),
(521,252,o),
(492,230,o),
(483,200,cs),
(469,153,o),
(434,125,o),
(374,125,cs),
(273,125,o),
(213,207,o),
(213,349,cs),
(213,486,o),
(273,577,o),
(381,576,cs),
(438,575,o),
(455,553,o),
(471,531,cs),
(485,510,o),
(507,490,o),
(541,490,cs),
(582,490,o),
(609,519,o),
(609,560,cs),
(609,606,o),
(574,651,o),
(520,680,cs),
(480,702,o),
(429,715,o),
(373,715,cs),
(178,715,o),
(56,562,o),
(56,352,cs),
(56,162,o),
(154,-15,o),
(368,-15,cs)
);
}
);
width = 673;
},
{
anchors = (
{
name = bottom;
pos = (291,0);
},
{
name = top;
pos = (291,700);
}
);
background = {
shapes = (
{
attr = {
strokeWidth = 2;
};
closed = 0;
nodes = (
(499,516,l),
(499,516,o),
(468,691,o),
(305,691,cs),
(180,691,o),
(68,552,o),
(68,364,cs),
(68,138,o),
(170,8,o),
(313,8,cs),
(504,8,o),
(517,222,o),
(517,222,c)
);
},
{
pos = (-11,0);
ref = O;
}
);
};
layerId = "3D52442A-254C-4C79-B742-A98FD72DF947";
shapes = (
{
closed = 1;
nodes = (
(454,-15,o),
(516,59,o),
(539,158,cs),
(540,161,o),
(540,165,o),
(541,168,cs),
(543,181,o),
(533,194,o),
(518,194,cs),
(507,194,o),
(498,186,o),
(495,175,cs),
(476,94,o),
(433,29,o),
(326,29,cs),
(174,29,o),
(91,162,o),
(91,354,cs),
(91,533,o),
(174,672,o),
(322,672,cs),
(412,672,o),
(468,619,o),
(490,533,cs),
(493,520,o),
(502,513,o),
(514,513,cs),
(528,513,o),
(535,523,o),
(535,539,cs),
(535,544,o),
(533,559,o),
(530,568,cs),
(509,638,o),
(447,716,o),
(325,716,cs),
(148,716,o),
(45,557,o),
(45,350,cs),
(45,134,o),
(148,-15,o),
(328,-15,cs)
);
}
);
width = 592;
},
{
anchors = (
{
name = bottom;
pos = (311,0);
},
{
name = top;
pos = (311,700);
}
);
layerId = "CF015620-3929-45BF-A6BE-C5D8AFCEAD19";
shapes = (
{
closed = 1;
nodes = (
(447,-15,o),
(528,39,o),
(557,127,cs),
(566,141,o),
(571,153,o),
(571,168,cs),
(571,194,o),
(549,215,o),
(523,215,cs),
(497,215,o),
(481,198,o),
(473,168,cs),
(458,108,o),
(406,76,o),
(346,76,cs),
(229,76,o),
(155,188,o),
(155,350,cs),
(155,510,o),
(227,624,o),
(341,624,cs),
(410,624,o),
(451,597,o),
(467,551,cs),
(478,524,o),
(491,507,o),
(516,507,cs),
(543,507,o),
(563,527,o),
(563,553,cs),
(563,569,o),
(555,584,o),
(540,597,cs),
(516,666,o),
(436,715,o),
(339,715,cs),
(170,715,o),
(55,562,o),
(55,351,cs),
(55,145,o),
(162,-15,o),
(345,-15,cs)
);
}
);
width = 621.25;
},
{
anchors = (
{
name = bottom;
pos = (297,0);
},
{
name = top;
pos = (297,700);
}
);
layerId = "0A7BF5CC-8360-449C-B03A-1C2F0CDBB92F";
shapes = (
{
closed = 1;
nodes = (
(449,-15,o),
(522,53,o),
(545,152,cs),
(546,158,o),
(546,162,o),
(547,167,cs),
(548,184,o),
(534,199,o),
(515,199,cs),
(498,199,o),
(488,187,o),
(483,166,cs),
(465,94,o),
(415,45,o),
(332,45,cs),
(194,45,o),
(114,172,o),
(114,352,cs),
(114,526,o),
(193,656,o),
(325,656,cs),
(406,656,o),
(459,615,o),
(478,546,cs),
(484,525,o),
(494,513,o),
(511,513,cs),
(529,513,o),
(542,526,o),
(542,545,cs),
(542,551,o),
(541,560,o),
(538,569,cs),
(519,646,o),
(443,716,o),
(327,716,cs),
(158,716,o),
(50,560,o),
(50,351,cs),
(50,137,o),
(157,-15,o),
(333,-15,cs)
);
}
);
width = 598;
}
);
metricLeft = O;
},
{
glyphname = D;
lastChange = "2022-01-26 16:30:56 +0000";
layers = (
{
anchors = (
{
name = bottom;
pos = (296,0);
},
{
name = center;
pos = (315,350);
},
{
name = top;
pos = (315,700);
}
);
background = {
shapes = (
{
attr = {
strokeWidth = 2;
};
closed = 0;
nodes = (
(164,624,l),
(164,72,l)
);
},
{
attr = {
strokeWidth = 2;
};
closed = 0;
nodes = (
(172,619,l),
(331,619,ls),
(465,619,o),
(532,494,o),
(532,345,cs),
(532,196,o),
(465,72,o),
(313,72,cs),
(172,72,l)
);
},
{
closed = 1;
nodes = (
(490,-14,o),
(626,136,o),
(626,351,cs),
(626,566,o),
(495,715,o),
(303,715,cs),
(111,715,o),
(-30,566,o),
(-30,351,cs),
(-30,136,o),
(106,-14,o),
(298,-14,cs)
);
},
{
closed = 1;
nodes = (
(192,126,o),
(130,220,o),
(130,351,cs),
(130,482,o),
(192,575,o),
(298,575,cs),
(404,575,o),
(466,482,o),
(466,351,cs),
(466,220,o),
(404,126,o),
(298,126,cs)
);
}
);
};
layerId = "6242D68C-0A25-4F05-8F2A-2075F7C4A210";
shapes = (
{
closed = 1;
nodes = (
(236,0,l),
(236,700,l),
(158,700,ls),
(113,700,o),
(80,667,o),
(80,622,cs),
(80,78,ls),
(80,33,o),
(113,0,o),
(158,0,cs)
);
},
{
closed = 1;
nodes = (
(351,0,ls),
(533,0,o),
(650,149,o),
(650,349,cs),
(650,560,o),
(533,700,o),
(370,700,cs),
(213,700,l),
(213,550,l),
(362,550,ls),
(441,550,o),
(493,474,o),
(493,349,cs),
(493,230,o),
(441,150,o),
(351,150,cs),
(213,150,l),
(213,0,l)
);
}
);
width = 688;
},
{
anchors = (
{
name = bottom;
pos = (262,0);
},
{
name = center;
pos = (280,362);
},
{
name = top;
pos = (262,700);
}
);
background = {
shapes = (
{
attr = {
strokeWidth = 2;
};
closed = 0;
nodes = (
(78,683,l),
(78,23,l),
(266,23,ls),
(447,23,o),
(528,170,o),
(528,350,cs),
(528,527,o),
(448,677,o),
(288,677,cs),
(98,677,l)
);
}
);
};
layerId = "3D52442A-254C-4C79-B742-A98FD72DF947";
shapes = (
{
closed = 1;
nodes = (
(126,0,l),
(126,700,l),
(103,700,ls),
(90,700,o),
(80,690,o),
(80,677,cs),
(80,23,ls),
(80,10,o),
(90,0,o),
(103,0,cs)
);
},
{
closed = 1;
nodes = (
(266,0,ls),
(447,0,o),
(552,129,o),
(552,350,cs),
(552,553,o),
(443,700,o),
(276,700,cs),
(114,700,l),
(114,655,l),
(276,655,ls),
(416,655,o),
(506,526,o),
(506,350,cs),
(506,175,o),
(435,46,o),
(266,46,cs),
(115,46,l),
(115,0,l)
);
}
);
width = 602;
},
{
anchors = (
{
name = bottom;
pos = (289,0);
},
{
name = center;
pos = (308,350);
},
{
name = top;
pos = (293,700);
}
);
layerId = "CF015620-3929-45BF-A6BE-C5D8AFCEAD19";
shapes = (
{
closed = 1;
nodes = (
(181,0,l),
(181,700,l),
(130,700,ls),
(102,700,o),
(80,678,o),
(80,650,cs),
(80,50,ls),
(80,22,o),
(102,0,o),
(130,0,cs)
);
},
{
closed = 1;
nodes = (
(299,0,ls),
(484,0,o),
(592,130,o),
(592,353,cs),
(592,545,o),
(495,700,o),
(316,700,cs),
(169,700,l),
(169,606,l),
(314,606,ls),
(432,606,o),
(491,499,o),
(491,353,cs),
(491,182,o),
(428,95,o),
(296,95,cs),
(169,95,l),
(169,0,l)
);
}
);
width = 637.75;
},
{
anchors = (
{
name = bottom;
pos = (274,0);
},
{
name = center;
pos = (293,356);
},
{
name = top;
pos = (274,700);
}
);
layerId = "0A7BF5CC-8360-449C-B03A-1C2F0CDBB92F";
shapes = (
{
closed = 1;
nodes = (
(144,0,l),
(144,700,l),
(112,700,ls),
(94,700,o),
(80,686,o),
(80,668,cs),
(80,32,ls),
(80,14,o),
(94,0,o),
(112,0,cs)
);
},
{
closed = 1;
nodes = (
(274,0,ls),
(457,0,o),
(562,127,o),
(562,352,cs),
(562,547,o),
(463,700,o),
(287,700,cs),
(134,700,l),
(134,640,l),
(287,640,ls),
(423,640,o),
(498,517,o),
(498,352,cs),
(498,171,o),
(429,61,o),
(272,61,cs),
(135,61,l),
(135,0,l)
);
}
);
width = 611.5;
}
);
metricLeft = H;
unicode = 68;
},
{
glyphname = E;
lastChange = "2022-01-26 19:42:26 +0000";
layers = (
{
anchors = (
{
name = bottom;
pos = (314,0);
},
{
name = ogonek;
pos = (392,0);
},
{
name = top;
pos = (300,700);
},
{
name = topleft;
pos = (20,700);
}
);
layerId = "6242D68C-0A25-4F05-8F2A-2075F7C4A210";
shapes = (
{
closed = 1;
nodes = (
(236,0,l),
(236,700,l),
(158,700,ls),
(113,700,o),
(80,667,o),
(80,622,cs),
(80,77,ls),
(80,31,o),
(113,-2,o),
(158,-1,cs)
);
},
{
closed = 1;
nodes = (
(468,560,ls),
(509,560,o),
(538,589,o),
(538,630,cs),
(538,671,o),
(509,700,o),
(468,700,cs),
(183,700,l),
(183,560,l)
);
},
{
closed = 1;
nodes = (
(429,285,ls),
(470,285,o),
(499,314,o),
(499,355,cs),
(499,396,o),
(470,425,o),
(429,425,cs),
(188,425,l),
(188,285,l)
);
},
{
closed = 1;
nodes = (
(481,0,ls),
(522,0,o),
(551,29,o),
(551,70,cs),
(551,111,o),
(522,140,o),
(481,140,cs),
(195,140,l),
(195,0,l)
);
}
);
width = 593;
},
{
anchors = (
{
name = bottom;
pos = (273,0);
},
{
name = ogonek;
pos = (427,0);
},
{
name = top;
pos = (273,700);
},
{
name = topleft;
pos = (18,700);
}
);
layerId = "3D52442A-254C-4C79-B742-A98FD72DF947";
shapes = (
{
closed = 1;
nodes = (
(126,0,l),
(126,700,l),
(103,700,ls),
(90,700,o),
(80,690,o),
(80,677,cs),
(80,23,ls),
(80,10,o),
(90,0,o),
(103,0,cs)
);
},
{
closed = 1;
nodes = (
(450,654,ls),
(463,654,o),
(473,664,o),
(473,677,cs),
(473,690,o),
(463,700,o),
(450,700,cs),
(106,700,l),
(106,654,l)
);
},
{
closed = 1;
nodes = (
(420,344,ls),
(433,344,o),
(443,354,o),
(443,367,cs),
(443,380,o),
(433,390,o),
(420,390,cs),
(105,390,l),
(105,344,l)
);
},
{
closed = 1;
nodes = (
(448,0,ls),
(461,0,o),
(471,10,o),
(471,23,cs),
(471,36,o),
(461,46,o),
(448,46,cs),
(111,46,l),
(111,0,l)
);
}
);
width = 531;
},
{
anchors = (
{
name = bottom;
pos = (290,0);
},
{
name = ogonek;
pos = (416,0);
},
{
name = top;
pos = (287,700);
},
{
name = topleft;
pos = (20,700);
}
);
layerId = "CF015620-3929-45BF-A6BE-C5D8AFCEAD19";
shapes = (
{
closed = 1;
nodes = (
(181,0,l),
(181,700,l),
(130,700,ls),
(101,700,o),
(80,679,o),
(80,650,cs),
(80,50,ls),
(80,21,o),
(101,0,o),
(130,0,cs)
);
},
{
closed = 1;
nodes = (
(456,608,ls),
(483,608,o),
(502,627,o),
(502,654,cs),
(502,681,o),
(483,700,o),
(456,700,cs),
(152,700,l),
(152,608,l)
);
},
{
closed = 1;
nodes = (
(424,313,ls),
(451,313,o),
(470,332,o),
(470,360,cs),
(470,387,o),
(451,407,o),
(424,407,cs),
(139,407,l),
(139,313,l)
);
},
{
closed = 1;
nodes = (
(467,0,ls),
(494,0,o),
(513,19,o),
(513,46,cs),
(513,73,o),
(494,92,o),
(467,92,cs),
(161,92,l),
(161,0,l)
);
}
);
width = 557;
},
{
anchors = (
{
name = bottom;
pos = (278,0);
},
{
name = ogonek;
pos = (426,0);
},
{
name = top;
pos = (278,700);
},
{
name = topleft;
pos = (19,700);
}
);
layerId = "0A7BF5CC-8360-449C-B03A-1C2F0CDBB92F";
shapes = (
{
closed = 1;
nodes = (
(144,0,l),
(144,700,l),
(112,700,ls),
(94,700,o),
(80,687,o),
(80,668,cs),
(80,32,ls),
(80,14,o),
(94,0,o),
(112,0,cs)
);
},
{
closed = 1;
nodes = (
(451,639,ls),
(469,639,o),
(482,652,o),
(482,670,cs),
(482,687,o),
(469,700,o),
(451,700,cs),
(124,700,l),
(124,639,l)
);
},
{
closed = 1;
nodes = (
(421,334,ls),
(439,334,o),
(452,347,o),
(452,364,cs),
(452,382,o),
(439,395,o),
(421,395,cs),
(114,395,l),
(114,334,l)
);
},
{
closed = 1;
nodes = (
(455,0,ls),
(473,0,o),
(486,13,o),
(486,31,cs),
(486,48,o),
(473,61,o),
(455,61,cs),
(130,61,l),
(130,0,l)
);
}
);
width = 538;
}
);
metricLeft = "=H";
unicode = 69;
},
{
glyphname = E.001;
lastChange = "2022-01-26 16:30:56 +0000";
layers = (
{
anchors = (
{
name = bottom;
pos = (314,0);
},
{
name = ogonek;
pos = (392,0);
},
{
name = top;
pos = (300,700);
},
{
name = topleft;
pos = (20,700);
}
);
background = {
shapes = (
{
attr = {
strokeWidth = 2;
};
closed = 0;
nodes = (
(522,80,l),
(140,80,l)
);
},
{
attr = {
strokeWidth = 2;
};
closed = 0;
nodes = (
(123,366,l),
(453,366,l)
);
},
{
attr = {
strokeWidth = 2;
};
closed = 0;
nodes = (
(128,623,l),
(481,623,l)
);
},
{
closed = 0;
nodes = (
(160,40,l),
(163,663,l)
);
},
{
closed = 1;
nodes = (
(204,-8,o),
(240,28,o),
(240,72,cs),
(240,628,ls),
(240,672,o),
(204,708,o),
(160,708,cs),
(116,708,o),
(80,672,o),
(80,628,cs),
(80,72,ls),
(80,28,o),
(116,-8,o),
(160,-8,cs)
);
},
{
closed = 1;
nodes = (
(674,628,ls),
(674,672,o),
(638,708,o),
(594,708,cs),
(550,708,o),
(514,672,o),
(514,628,cs),
(514,72,ls),
(514,28,o),
(550,-8,o),
(594,-8,cs),
(638,-8,o),
(674,28,o),
(674,72,cs)
);
},
{
closed = 1;
nodes = (
(188,431,l),
(188,281,l),
(605,281,l),
(605,431,l)
);
}
);
};
layerId = "6242D68C-0A25-4F05-8F2A-2075F7C4A210";
shapes = (
{
closed = 1;
nodes = (
(236,0,l),
(236,700,l),
(158,700,ls),
(113,700,o),
(80,667,o),
(80,622,cs),
(80,77,ls),
(80,31,o),
(113,-2,o),
(158,-1,cs)
);
},
{
closed = 1;
nodes = (
(502,560,ls),
(543,560,o),
(572,589,o),
(572,630,cs),
(572,671,o),
(543,700,o),
(502,700,cs),
(183,700,l),
(183,560,l)
);
},
{
closed = 1;
nodes = (
(463,285,ls),
(504,285,o),
(533,314,o),
(533,355,cs),
(533,396,o),
(504,425,o),
(463,425,cs),
(188,425,l),
(188,285,l)
);
},
{
closed = 1;
nodes = (
(515,0,ls),
(556,0,o),
(585,29,o),
(585,70,cs),
(585,111,o),
(556,140,o),
(515,140,cs),
(195,140,l),
(195,0,l)
);
}
);
width = 627;
},
{
anchors = (
{
name = bottom;
pos = (273,0);
},
{
name = ogonek;
pos = (427,0);
},
{
name = top;
pos = (273,700);
},
{
name = topleft;
pos = (18,700);
}
);
background = {
shapes = (
{
attr = {
strokeWidth = 2;
};
closed = 0;
nodes = (
(481,24,l),
(125,24,l),
(128,675,l),
(453,675,l)
);
},
{
attr = {
strokeWidth = 2;
};
closed = 0;
nodes = (
(128,367,l),
(443,367,l)
);
},
{
closed = 1;
nodes = (
(127,700,l),
(127,624,l),
(444,624,ls),
(465,624,o),
(482,641,o),
(482,662,cs),
(482,683,o),
(465,700,o),
(444,700,cs)
);
},
{
closed = 1;
nodes = (
(127,402,l),
(127,326,l),
(423,326,ls),
(444,326,o),
(461,343,o),
(461,364,cs),
(461,385,o),
(444,402,o),
(423,402,cs)
);
},
{
closed = 1;
nodes = (
(127,76,l),
(127,0,l),
(471,0,ls),
(492,0,o),
(509,17,o),
(509,38,cs),
(509,59,o),
(492,76,o),
(471,76,cs)
);
},
{
closed = 1;
nodes = (
(167,700,l),
(126,700,l),
(103,700,o),
(85,682,o),
(85,659,cs),
(85,41,ls),
(85,18,o),
(103,0,o),
(126,0,c),
(167,0,l)
);
}
);
};
layerId = "3D52442A-254C-4C79-B742-A98FD72DF947";
shapes = (
{
closed = 1;
nodes = (
(126,0,l),
(126,700,l),
(103,700,ls),
(90,700,o),
(80,690,o),
(80,677,cs),
(80,23,ls),
(80,10,o),
(90,0,o),
(103,0,cs)
);
},
{
closed = 1;
nodes = (
(450,654,ls),
(463,654,o),
(473,664,o),
(473,677,cs),
(473,690,o),
(463,700,o),
(450,700,cs),
(106,700,l),
(106,654,l)
);
},
{
closed = 1;
nodes = (
(420,344,ls),
(433,344,o),
(443,354,o),
(443,367,cs),
(443,380,o),
(433,390,o),
(420,390,cs),
(105,390,l),
(105,344,l)
);
},
{
closed = 1;
nodes = (
(448,0,ls),
(461,0,o),
(471,10,o),
(471,23,cs),
(471,36,o),
(461,46,o),
(448,46,cs),
(111,46,l),
(111,0,l)
);
}
);
width = 531;
},
{
anchors = (
{
name = bottom;
pos = (290,0);
},
{
name = ogonek;
pos = (416,0);
},
{
name = top;
pos = (287,700);
},
{
name = topleft;
pos = (20,700);
}
);
layerId = "CF015620-3929-45BF-A6BE-C5D8AFCEAD19";
shapes = (
{
closed = 1;
nodes = (
(181,0,l),
(181,700,l),
(130,700,ls),
(101,700,o),
(80,679,o),
(80,650,cs),
(80,50,ls),
(80,21,o),
(101,-1,o),
(130,0,cs)
);
},
{
closed = 1;
nodes = (
(465,608,ls),
(491,608,o),
(511,627,o),
(511,654,cs),
(511,681,o),
(491,700,o),
(465,700,cs),
(152,700,l),
(152,608,l)
);
},
{
closed = 1;
nodes = (
(432,314,ls),
(459,314,o),
(478,333,o),
(478,360,cs),
(478,386,o),
(459,406,o),
(432,406,cs),
(139,406,l),
(139,314,l)
);
},
{
closed = 1;
nodes = (
(475,0,ls),
(502,0,o),
(521,19,o),
(521,46,cs),
(521,73,o),
(502,92,o),
(475,92,cs),
(161,92,l),
(161,0,l)
);
}
);
width = 565.5;
},
{
anchors = (
{
name = bottom;
pos = (278,0);
},
{
name = ogonek;
pos = (426,0);
},
{
name = top;
pos = (278,700);
},
{
name = topleft;
pos = (19,700);
}
);
layerId = "0A7BF5CC-8360-449C-B03A-1C2F0CDBB92F";
shapes = (
{
closed = 1;
nodes = (
(144,0,l),
(144,700,l),
(112,700,ls),
(94,700,o),
(80,687,o),
(80,668,cs),
(80,32,ls),
(80,14,o),
(94,0,o),
(112,0,cs)
);
},
{
closed = 1;
nodes = (
(451,639,ls),
(469,639,o),
(482,652,o),
(482,670,cs),
(482,687,o),
(469,700,o),
(451,700,cs),
(124,700,l),
(124,639,l)
);
},
{
closed = 1;
nodes = (
(421,334,ls),
(439,334,o),
(452,347,o),
(452,364,cs),
(452,382,o),
(439,395,o),
(421,395,cs),
(114,395,l),
(114,334,l)
);
},
{
closed = 1;
nodes = (
(455,0,ls),
(473,0,o),
(486,13,o),
(486,31,cs),
(486,48,o),
(473,61,o),
(455,61,cs),
(130,61,l),
(130,0,l)
);
}
);
width = 538;
}
);
metricLeft = "=H";
},
{
glyphname = E.ss02;
lastChange = "2022-01-26 16:30:56 +0000";
layers = (
{
anchors = (
{
name = bottom;
pos = (360,0);
},
{
name = ogonek;
pos = (600,10);
},
{
name = top;
pos = (360,700);
},
{
name = topleft;
pos = (80,700);
}
);
layerId = "6242D68C-0A25-4F05-8F2A-2075F7C4A210";
shapes = (
{
closed = 1;
nodes = (
(531,0,ls),
(572,0,o),
(601,29,o),
(601,70,cs),
(601,111,o),
(572,140,o),
(531,140,cs),
(236,140,l),
(236,285,l),
(409,285,ls),
(450,285,o),
(479,314,o),
(479,355,cs),
(479,396,o),
(450,425,o),
(409,425,cs),
(236,425,l),
(236,560,l),
(518,560,ls),
(559,560,o),
(588,589,o),
(588,630,cs),
(588,671,o),
(559,700,o),
(518,700,cs),
(158,700,ls),
(113,700,o),
(80,667,o),
(80,622,cs),
(80,77,ls),
(80,31,o),
(113,-2,o),
(158,-1,cs)
);
}
);
width = 643;
},
{
anchors = (
{
name = bottom;
pos = (281,0);
},
{
name = ogonek;
pos = (506,10);
},
{
name = top;
pos = (281,700);
},
{
name = topleft;
pos = (20,700);
}
);
layerId = "3D52442A-254C-4C79-B742-A98FD72DF947";
shapes = (
{
closed = 1;
nodes = (
(481,0,ls),
(494,0,o),
(504,10,o),
(504,23,cs),
(504,36,o),
(494,46,o),
(481,46,cs),
(126,46,l),
(126,344,l),
(402,344,ls),
(415,344,o),
(425,354,o),
(425,367,cs),
(425,380,o),
(415,390,o),
(402,390,cs),
(126,390,l),
(126,654,l),
(470,654,ls),
(483,654,o),
(493,664,o),
(493,677,cs),
(493,690,o),
(483,700,o),
(470,700,cs),
(103,700,ls),
(90,700,o),
(80,690,o),
(80,677,cs),
(80,23,ls),
(80,10,o),
(90,0,o),
(103,0,cs)
);
}
);
width = 562;
},
{
anchors = (
{
name = bottom;
pos = (310,0);
},
{
name = ogonek;
pos = (545,10);
},
{
name = top;
pos = (310,700);
},
{
name = topleft;
pos = (35,700);
}
);
layerId = "CF015620-3929-45BF-A6BE-C5D8AFCEAD19";
shapes = (
{
closed = 1;
nodes = (
(509,0,ls),
(535,0,o),
(555,20,o),
(555,46,cs),
(555,72,o),
(535,92,o),
(509,92,cs),
(181,92,l),
(181,314,l),
(419,314,ls),
(445,314,o),
(465,334,o),
(465,360,cs),
(465,386,o),
(445,406,o),
(419,406,cs),
(181,406,l),
(181,608,l),
(499,608,ls),
(525,608,o),
(545,628,o),
(545,654,cs),
(545,680,o),
(525,700,o),
(499,700,cs),
(130,700,ls,{
name = "";
}),
(102,700,o),
(80,678,o),
(80,650,cs),
(80,50,ls),
(80,21,o),
(102,-1,o),
(130,0,cs,{
name = "";
})
);
}
);
width = 599.5;
},
{
anchors = (
{
name = bottom;
pos = (287,0);
},
{
name = ogonek;
pos = (517,10);
},
{
name = top;
pos = (287,700);
},
{
name = topleft;
pos = (20,700);
}
);
layerId = "0A7BF5CC-8360-449C-B03A-1C2F0CDBB92F";
shapes = (
{
closed = 1;
nodes = (
(492,0,ls),
(509,0,o),
(522,14,o),
(522,31,cs),
(522,48,o),
(509,61,o),
(492,61,cs),
(144,61,l),
(144,334,l),
(412,334,ls),
(429,334,o),
(443,347,o),
(443,364,cs),
(443,381,o),
(429,395,o),
(412,395,cs),
(144,395,l),
(144,639,l),
(481,639,ls),
(498,639,o),
(512,653,o),
(512,670,cs),
(512,687,o),
(498,700,o),
(481,700,cs),
(112,700,ls),
(94,700,o),
(80,686,o),
(80,668,cs),
(80,32,ls),
(80,14,o),
(94,0,o),
(112,0,cs)
);
}
);
width = 573.5;
}
);
metricLeft = "=E";
metricRight = "=E";
},
{
glyphname = Eogonek;
lastChange = "2022-01-26 16:30:56 +0000";
layers = (
{
anchors = (
{
name = top;
pos = (297,700);
}
);
layerId = "6242D68C-0A25-4F05-8F2A-2075F7C4A210";
shapes = (
{
ref = E;
},
{
closed = 1;
nodes = (
(394,23,o),
(270,3,o),
(270,-105,cs),
(270,-175,o),
(328,-215,o),
(406,-215,cs),
(455,-215,o),
(499,-198,o),
(529,-164,cs),
(540,-151,o),
(547,-134,o),
(547,-116,cs),
(547,-77,o),
(514,-54,o),
(485,-54,cs),
(459,-54,o),
(445,-63,o),
(430,-74,cs),
(420,-82,o),
(405,-91,o),
(394,-91,cs),
(387,-91,o),
(381,-86,o),
(381,-80,cs),
(381,-70,o),
(402,-60,o),
(430,-45,cs),
(448,-35,o),
(519,-10,o),
(544,39,c),
(402,26,l)
);
}
);
width = 593;
},
{
anchors = (
{
name = top;
pos = (266,700);
}
);
background = {
shapes = (
{
closed = 1;
nodes = (
(421,-177,o),
(448,-162,o),
(467,-137,cs),
(471,-131,o),
(475,-126,o),
(475,-116,cs),
(475,-105,o),
(467,-98,o),
(457,-98,cs),
(448,-98,o),
(443,-104,o),
(438,-109,cs),
(419,-128,o),
(405,-132,o),
(387,-132,cs),
(362,-132,o),
(349,-117,o),
(349,-99,cs),
(349,-36,o),
(470,-23,o),
(471,22,c),
(433,40,l),
(433,-1,o),
(304,-6,o),
(304,-99,cs),
(304,-146,o),
(341,-177,o),
(388,-177,cs)
);
}
);
};
layerId = "3D52442A-254C-4C79-B742-A98FD72DF947";
shapes = (
{
ref = E;
},
{
closed = 1;
nodes = (
(397,-17,o),
(293,-39,o),
(293,-131,cs),
(293,-184,o),
(333,-215,o),
(383,-215,cs),
(420,-215,o),
(447,-200,o),
(466,-175,cs),
(470,-169,o),
(474,-164,o),
(474,-155,cs),
(474,-143,o),
(466,-136,o),
(456,-136,cs),
(446,-136,o),
(441,-142,o),
(436,-147,cs),
(417,-166,o),
(404,-174,o),
(385,-174,cs),
(354,-174,o),
(337,-155,o),
(337,-130,cs),
(337,-91,o),
(377,-62,o),
(414,-36,cs),
(442,-16,o),
(469,3,o),
(471,23,c),
(423,31,l)
);
}
);
width = 532;
},
{
anchors = (
{
name = top;
pos = (286,700);
}
);
layerId = "CF015620-3929-45BF-A6BE-C5D8AFCEAD19";
shapes = (
{
alignment = -1;
ref = E;
},
{
closed = 1;
nodes = (
(404,20,o),
(299,-20,o),
(299,-116,cs),
(299,-183,o),
(351,-214,o),
(407,-215,cs),
(438,-216,o),
(476,-208,o),
(506,-173,cs),
(513,-165,o),
(519,-153,o),
(519,-140,cs),
(519,-116,o),
(499,-98,o),
(476,-98,cs),
(462,-98,o),
(452,-103,o),
(443,-111,cs),
(429,-124,o),
(418,-128,o),
(408,-128,cs),
(392,-128,o),
(383,-118,o),
(383,-103,cs),
(383,-69,o),
(425,-43,o),
(450,-25,cs),
(468,-13,o),
(505,7,o),
(511,38,c),
(416,38,l)
);
}
);
width = 563.75;
},
{
anchors = (
{
name = top;
pos = (274,700);
}
);
layerId = "0A7BF5CC-8360-449C-B03A-1C2F0CDBB92F";
shapes = (
{
alignment = -1;
ref = E;
},
{
closed = 1;
nodes = (
(402,1,o),
(301,-33,o),
(301,-126,cs),
(301,-185,o),
(346,-214,o),
(395,-215,cs),
(426,-216,o),
(458,-206,o),
(482,-176,cs),
(487,-169,o),
(492,-162,o),
(492,-152,cs),
(492,-136,o),
(480,-124,o),
(465,-124,cs),
(455,-124,o),
(448,-129,o),
(442,-135,cs),
(425,-152,o),
(413,-157,o),
(399,-157,cs),
(374,-157,o),
(361,-142,o),
(361,-120,cs),
(361,-80,o),
(405,-50,o),
(436,-27,cs),
(459,-11,o),
(485,8,o),
(486,31,c),
(422,37,l)
);
}
);
width = 543;
}
);
metricLeft = "=E";
metricRight = "=E";
unicode = 280;
},
{
glyphname = F;
lastChange = "2022-01-26 19:42:53 +0000";
layers = (
{
layerId = "6242D68C-0A25-4F05-8F2A-2075F7C4A210";
shapes = (
{
closed = 1;
nodes = (
(203,-10,o),
(236,23,o),
(236,68,cs),
(236,700,l),
(158,700,ls,{
name = "";
}),
(115,700,o),
(80,665,o),
(80,622,cs),
(80,68,ls),
(80,23,o),
(113,-10,o),
(158,-10,cs)
);
},
{
closed = 1;
nodes = (
(453,560,ls),
(494,560,o),
(523,589,o),
(523,630,cs),
(523,671,o),
(494,700,o),
(453,700,cs),
(183,700,l),
(183,560,l)
);
},
{
closed = 1;
nodes = (
(435,286,ls),
(476,286,o),
(505,315,o),
(505,356,cs),
(505,397,o),
(476,426,o),
(435,426,cs),
(188,426,l),
(188,286,l)
);
}
);
width = 563;
},
{
layerId = "3D52442A-254C-4C79-B742-A98FD72DF947";
shapes = (
{
closed = 1;
nodes = (
(116,-10,o),
(126,0,o),
(126,13,cs),
(126,700,l),
(103,700,ls,{
name = "";
}),
(90,700,o),
(80,690,o),
(80,677,cs),
(80,13,ls),
(80,0,o),
(90,-10,o),
(103,-10,cs)
);
},
{
closed = 1;
nodes = (
(420,654,ls),
(433,654,o),
(443,664,o),
(443,677,cs),
(443,690,o),
(433,700,o),
(420,700,cs),
(106,700,l),
(106,654,l)
);
},
{
closed = 1;
nodes = (
(400,344,ls),
(413,344,o),
(423,354,o),
(423,367,cs),
(423,380,o),
(413,390,o),
(400,390,cs),
(105,390,l),
(105,344,l)
);
}
);
width = 483;
},
{
layerId = "CF015620-3929-45BF-A6BE-C5D8AFCEAD19";
shapes = (
{
closed = 1;
nodes = (
(160,-10,o),
(181,11,o),
(181,40,cs),
(181,700,l),
(130,700,ls,{
name = "";
}),
(102,700,o),
(80,679,o),
(80,650,cs),
(80,40,ls),
(80,11,o),
(101,-10,o),
(130,-10,cs)
);
},
{
closed = 1;
nodes = (
(437,608,ls),
(464,608,o),
(483,627,o),
(483,654,cs),
(483,681,o),
(464,700,o),
(437,700,cs),
(150,700,l),
(150,608,l)
);
},
{
closed = 1;
nodes = (
(420,313,ls),
(447,313,o),
(466,332,o),
(466,360,cs),
(466,387,o),
(447,407,o),
(420,407,cs),
(135,407,l),
(135,313,l)
);
}
);
width = 523.25;
},
{
layerId = "0A7BF5CC-8360-449C-B03A-1C2F0CDBB92F";
shapes = (
{
closed = 1;
nodes = (
(131,-10,o),
(144,4,o),
(144,22,cs),
(144,700,l),
(112,700,ls,{
name = "";
}),
(94,700,o),
(80,687,o),
(80,668,cs),
(80,22,ls),
(80,4,o),
(94,-10,o),
(112,-10,cs)
);
},
{
closed = 1;
nodes = (
(426,639,ls),
(444,639,o),
(457,652,o),
(457,670,cs),
(457,687,o),
(444,700,o),
(426,700,cs),
(123,700,l),
(123,639,l)
);
},
{
closed = 1;
nodes = (
(406,334,ls),
(424,334,o),
(437,347,o),
(437,364,cs),
(437,382,o),
(424,395,o),
(406,395,cs),
(114,395,l),
(114,334,l)
);
}
);
width = 496.5;
}
);
metricLeft = H;
unicode = 70;
},
{
glyphname = F.001;
lastChange = "2022-01-26 16:30:56 +0000";
layers = (
{
layerId = "6242D68C-0A25-4F05-8F2A-2075F7C4A210";
shapes = (
{
closed = 1;
nodes = (
(203,-10,o),
(236,23,o),
(236,68,cs),
(236,700,l),
(158,700,ls,{
name = "";
}),
(115,700,o),
(80,665,o),
(80,622,cs),
(80,68,ls),
(80,23,o),
(113,-10,o),
(158,-10,cs)
);
},
{
closed = 1;
nodes = (
(478,560,ls),
(519,560,o),
(548,589,o),
(548,630,cs),
(548,671,o),
(519,700,o),
(478,700,cs),
(183,700,l),
(183,560,l)
);
},
{
closed = 1;
nodes = (
(460,286,ls),
(501,286,o),
(530,315,o),
(530,356,cs),
(530,397,o),
(501,426,o),
(460,426,cs),
(188,426,l),
(188,286,l)
);
}
);
width = 588;
},
{
layerId = "3D52442A-254C-4C79-B742-A98FD72DF947";
shapes = (
{
closed = 1;
nodes = (
(116,-10,o),
(126,0,o),
(126,13,cs),
(126,700,l),
(103,700,ls,{
name = "";
}),
(90,700,o),
(80,690,o),
(80,677,cs),
(80,13,ls),
(80,0,o),
(90,-10,o),
(103,-10,cs)
);
},
{
closed = 1;
nodes = (
(420,654,ls),
(433,654,o),
(443,664,o),
(443,677,cs),
(443,690,o),
(433,700,o),
(420,700,cs),
(106,700,l),
(106,654,l)
);
},
{
closed = 1;
nodes = (
(400,344,ls),
(413,344,o),
(423,354,o),
(423,367,cs),
(423,380,o),
(413,390,o),
(400,390,cs),
(105,390,l),
(105,344,l)
);
}
);
width = 483;
},
{
layerId = "CF015620-3929-45BF-A6BE-C5D8AFCEAD19";
shapes = (
{
closed = 1;
nodes = (
(160,-10,o),
(181,11,o),
(181,40,cs),
(181,700,l),
(130,700,ls,{
name = "";
}),
(102,700,o),
(80,679,o),
(80,650,cs),
(80,40,ls),
(80,11,o),
(101,-10,o),
(130,-10,cs)
);
},
{
closed = 1;
nodes = (
(444,608,ls),
(470,608,o),
(490,627,o),
(490,654,cs),
(490,681,o),
(470,700,o),
(444,700,cs),
(150,700,l),
(150,608,l)
);
},
{
closed = 1;
nodes = (
(424,314,ls),
(451,314,o),
(470,333,o),
(470,360,cs),
(470,387,o),
(451,406,o),
(424,406,cs),
(139,406,l),
(139,314,l)
);
}
);
width = 529.5;
},
{
layerId = "0A7BF5CC-8360-449C-B03A-1C2F0CDBB92F";
shapes = (
{
closed = 1;
nodes = (
(131,-10,o),
(144,4,o),
(144,22,cs),
(144,700,l),
(112,700,ls,{
name = "";
}),
(94,700,o),
(80,687,o),
(80,668,cs),
(80,22,ls),
(80,4,o),
(94,-10,o),
(112,-10,cs)
);
},
{
closed = 1;
nodes = (
(426,639,ls),
(444,639,o),
(457,652,o),
(457,670,cs),
(457,687,o),
(444,700,o),
(426,700,cs),
(123,700,l),
(123,639,l)
);
},
{
closed = 1;
nodes = (
(406,334,ls),
(424,334,o),
(437,347,o),
(437,364,cs),
(437,382,o),
(424,395,o),
(406,395,cs),
(114,395,l),
(114,334,l)
);
}
);
width = 496.5;
}
);
metricLeft = H;
},
{
glyphname = G;
lastChange = "2022-01-26 16:30:56 +0000";
layers = (
{
anchors = (
{
name = bottom;
pos = (351,0);
},
{
name = top;
pos = (351,700);
}
);
background = {
shapes = (
{
closed = 1;
nodes = (
(500,-15,o),
(581,32,o),
(632,101,cs),
(643,115,o),
(646,129,o),
(646,151,cs),
(646,324,ls),
(646,369,o),
(622,394,o),
(577,395,cs),
(480,397,ls),
(436,398,o),
(392,368,o),
(392,325,cs),
(392,286,o),
(429,253,o),
(475,253,cs),
(487,253,l),
(487,163,l),
(463,141,o),
(430,126,o),
(388,126,cs),
(286,126,o),
(213,215,o),
(213,355,cs),
(213,506,o),
(284,576,o),
(383,576,cs),
(440,576,o),
(457,553,o),
(473,531,cs),
(487,510,o),
(509,490,o),
(543,490,cs),
(584,490,o),
(611,519,o),
(611,560,cs),
(611,602,o),
(583,642,o),
(538,671,cs),
(495,698,o),
(438,715,o),
(375,715,cs),
(196,715,o),
(56,579,o),
(56,360,cs),
(56,130,o),
(193,-15,o),
(387,-15,cs)
);
}
);
};
layerId = "6242D68C-0A25-4F05-8F2A-2075F7C4A210";
shapes = (
{
closed = 1;
nodes = (
(500,-15,o),
(581,32,o),
(632,101,cs),
(643,115,o),
(646,129,o),
(646,151,cs),
(646,324,ls),
(646,369,o),
(622,394,o),
(577,395,cs),
(480,397,ls),
(436,398,o),
(392,368,o),
(392,325,cs),
(392,282,o),
(436,253,o),
(480,253,c),
(487,253,l),
(487,163,l),
(463,141,o),
(430,126,o),
(388,126,cs),
(286,126,o),
(213,215,o),
(213,355,cs),
(213,506,o),
(284,576,o),
(383,576,cs),
(440,576,o),
(457,553,o),
(473,531,cs),
(487,510,o),
(509,490,o),
(543,490,cs),
(584,490,o),
(611,519,o),
(611,560,cs),
(611,602,o),
(583,642,o),
(538,671,cs),
(495,698,o),
(438,715,o),
(375,715,cs),
(196,715,o),
(56,579,o),
(56,360,cs),
(56,130,o),
(193,-15,o),
(387,-15,cs)
);
}
);
width = 701;
},
{
anchors = (
{
name = bottom;
pos = (290,0);
},
{
name = top;
pos = (290,700);
}
);
background = {
anchors = (
{
name = bottom;
pos = (313,0);
},
{
name = top;
pos = (314,700);
}
);
};
layerId = "3D52442A-254C-4C79-B742-A98FD72DF947";
shapes = (
{
closed = 1;
nodes = (
(439,-15,o),
(509,41,o),
(543,92,cs),
(545,96,o),
(546,100,o),
(546,107,cs),
(546,334,ls),
(546,347,o),
(536,357,o),
(523,357,cs),
(379,357,ls),
(366,357,o),
(356,347,o),
(356,334,cs),
(356,322,o),
(366,311,o),
(378,311,cs),
(500,311,l),
(500,111,l),
(464,60,o),
(402,29,o),
(323,29,cs),
(184,29,o),
(91,162,o),
(91,344,cs),
(91,533,o),
(184,671,o),
(326,671,cs),
(415,671,o),
(471,619,o),
(493,533,cs),
(496,520,o),
(505,513,o),
(517,513,cs),
(543,513,o),
(540,546,o),
(533,568,cs),
(521,607,o),
(497,647,o),
(457,676,cs),
(425,700,o),
(383,715,o),
(328,715,cs),
(158,715,o),
(45,563,o),
(45,341,cs),
(45,134,o),
(158,-15,o),
(323,-15,cs)
);
}
);
width = 591;
},
{
anchors = (
{
name = bottom;
pos = (317,0);
},
{
name = top;
pos = (317,700);
}
);
layerId = "CF015620-3929-45BF-A6BE-C5D8AFCEAD19";
shapes = (
{
closed = 1;
nodes = (
(448,-15,o),
(520,19,o),
(571,91,cs),
(577,99,o),
(579,106,o),
(579,122,cs),
(579,323,ls),
(579,351,o),
(560,369,o),
(531,370,cs),
(387,370,ls),
(359,370,o),
(335,351,o),
(335,324,cs),
(335,296,o),
(358,277,o),
(386,277,cs),
(479,277,l),
(479,131,l),
(458,99,o),
(415,77,o),
(357,77,cs),
(228,77,o),
(155,182,o),
(155,345,cs),
(155,511,o),
(232,624,o),
(355,624,cs),
(416,624,o),
(457,597,o),
(474,551,cs),
(484,524,o),
(497,507,o),
(523,507,cs),
(556,507,o),
(574,534,o),
(568,567,cs),
(561,613,o),
(533,650,o),
(492,677,cs),
(454,701,o),
(405,715,o),
(351,715,cs),
(162,715,o),
(55,544,o),
(55,343,cs),
(55,118,o),
(174,-15,o),
(356,-15,cs)
);
}
);
width = 632;
},
{
anchors = (
{
name = bottom;
pos = (298,0);
},
{
name = top;
pos = (298,700);
}
);
layerId = "0A7BF5CC-8360-449C-B03A-1C2F0CDBB92F";
shapes = (
{
closed = 1;
nodes = (
(435,-15,o),
(504,28,o),
(547,90,cs),
(550,95,o),
(551,99,o),
(551,110,cs),
(551,329,ls),
(551,346,o),
(538,359,o),
(520,359,cs),
(368,359,ls),
(350,359,o),
(336,346,o),
(336,329,cs),
(336,312,o),
(349,298,o),
(366,298,cs),
(488,298,l),
(488,116,l),
(460,73,o),
(406,45,o),
(335,45,cs),
(196,45,o),
(114,167,o),
(114,343,cs),
(114,523,o),
(199,656,o),
(336,656,cs),
(412,656,o),
(464,615,o),
(484,546,cs),
(490,525,o),
(499,513,o),
(517,513,cs),
(545,513,o),
(551,543,o),
(544,569,cs),
(533,612,o),
(507,650,o),
(467,678,cs),
(433,701,o),
(389,715,o),
(336,715,cs),
(155,715,o),
(50,548,o),
(50,339,cs),
(50,124,o),
(163,-15,o),
(334,-15,cs)
);
}
);
width = 600;
}
);
metricLeft = "=O";
unicode = 71;
},
{
glyphname = G.ss02;
lastChange = "2022-01-26 16:30:56 +0000";
layers = (
{
anchors = (
{
name = bottom;
pos = (373,0);
},
{
name = top;
pos = (360,700);
}
);
background = {
shapes = (
{
closed = 1;
nodes = (
(490,-11,o),
(569,40,o),
(614,130,c),
(614,300,ls),
(614,341,o),
(587,364,o),
(550,364,cs),
(458,364,ls),
(421,364,o),
(394,341,o),
(394,300,cs),
(394,260,o),
(421,237,o),
(458,237,cs),
(464,237,l),
(464,169,l),
(448,147,o),
(425,139,o),
(388,139,cs),
(273,139,o),
(216,217,o),
(216,346,cs),
(216,481,o),
(279,575,o),
(372,575,cs),
(422,575,o),
(448,547,o),
(459,523,cs),
(471,498,o),
(496,481,o),
(526,481,cs),
(566,481,o),
(599,513,o),
(599,554,cs),
(599,564,o),
(598,574,o),
(596,583,cs),
(579,661,o),
(488,715,o),
(372,715,cs),
(181,715,o),
(60,564,o),
(60,351,cs),
(60,146,o),
(183,-11,o),
(378,-11,cs)
);
},
{
closed = 1;
nodes = (
(480,-15,o),
(561,32,o),
(612,101,cs),
(623,115,o),
(626,129,o),
(626,151,cs),
(626,324,ls),
(626,369,o),
(602,394,o),
(557,395,cs),
(460,397,ls),
(416,398,o),
(372,368,o),
(372,325,cs),
(372,286,o),
(409,257,o),
(455,253,cs),
(467,252,l),
(467,163,l),
(443,141,o),
(410,126,o),
(378,126,cs),
(276,126,o),
(213,215,o),
(213,355,cs),
(213,506,o),
(274,576,o),
(373,576,cs),
(430,576,o),
(447,553,o),
(463,531,cs),
(477,510,o),
(499,490,o),
(533,490,cs),
(574,490,o),
(601,519,o),
(601,560,cs),
(601,602,o),
(573,642,o),
(528,671,cs),
(485,698,o),
(428,715,o),
(365,715,cs),
(186,715,o),
(56,579,o),
(56,360,cs),
(56,130,o),
(183,-15,o),
(377,-15,cs)
);
}
);
};
layerId = "6242D68C-0A25-4F05-8F2A-2075F7C4A210";
shapes = (
{
closed = 1;
nodes = (
(480,-15,o),
(561,32,o),
(612,101,cs),
(623,115,o),
(626,129,o),
(626,151,cs),
(626,324,ls),
(626,369,o),
(602,394,o),
(557,395,cs),
(460,397,ls),
(416,398,o),
(372,368,o),
(372,325,cs),
(372,286,o),
(409,257,o),
(455,253,cs),
(467,252,l),
(467,163,l),
(442,134,o),
(411,126,o),
(382,126,cs),
(283,126,o),
(213,215,o),
(213,360,cs),
(213,506,o),
(274,576,o),
(373,576,cs),
(430,576,o),
(447,553,o),
(463,531,cs),
(477,510,o),
(499,490,o),
(533,490,cs),
(574,490,o),
(601,519,o),
(601,560,cs),
(601,602,o),
(573,642,o),
(528,671,cs),
(485,698,o),
(428,715,o),
(365,715,cs),
(186,715,o),
(56,579,o),
(56,360,cs),
(56,130,o),
(183,-15,o),
(373,-15,cs)
);
}
);
width = 669;
},
{
anchors = (
{
name = bottom;
pos = (328,0);
},
{
name = top;
pos = (330,700);
}
);
layerId = "3D52442A-254C-4C79-B742-A98FD72DF947";
shapes = (
{
closed = 1;
nodes = (
(431,-15,o),
(501,43,o),
(529,87,cs),
(535,96,o),
(536,101,o),
(536,108,cs),
(536,314,ls),
(536,327,o),
(526,337,o),
(513,337,cs),
(369,337,ls),
(356,337,o),
(346,327,o),
(346,314,cs),
(346,302,o),
(356,291,o),
(368,291,cs),
(490,291,l),
(490,111,l),
(454,60,o),
(396,28,o),
(334,28,cs),
(185,28,o),
(92,161,o),
(92,356,cs),
(92,540,o),
(191,667,o),
(328,667,cs),
(417,667,o),
(464,615,o),
(485,553,cs),
(488,544,o),
(497,538,o),
(507,538,cs),
(522,538,o),
(530,550,o),
(530,561,cs),
(530,564,o),
(530,566,o),
(529,568,c),
(513,637,o),
(440,713,o),
(328,713,cs),
(164,713,o),
(46,567,o),
(46,353,cs),
(46,133,o),
(159,-15,o),
(328,-15,cs)
);
}
);
width = 600;
},
{
anchors = (
{
name = bottom;
pos = (368,0);
},
{
name = top;
pos = (343,700);
}
);
layerId = "CF015620-3929-45BF-A6BE-C5D8AFCEAD19";
shapes = (
{
closed = 1;
nodes = (
(446,-15,o),
(515,16,o),
(573,92,cs),
(579,99,o),
(580,106,o),
(580,115,cs),
(580,317,ls),
(580,347,o),
(565,366,o),
(539,366,cs),
(398,368,ls),
(370,368,o),
(346,348,o),
(346,321,cs),
(346,295,o),
(368,274,o),
(395,273,cs),
(480,273,l),
(480,131,l),
(446,94,o),
(414,77,o),
(366,77,cs),
(231,77,o),
(160,182,o),
(160,341,cs),
(160,472,o),
(210,624,o),
(353,624,cs),
(426,624,o),
(458,589,o),
(477,548,cs),
(485,532,o),
(501,519,o),
(521,519,cs),
(547,519,o),
(567,540,o),
(567,566,cs),
(567,580,o),
(559,595,o),
(546,605,cs),
(511,662,o),
(451,715,o),
(350,715,cs),
(140,715,o),
(59,516,o),
(59,344,cs),
(59,122,o),
(175,-15,o),
(359,-15,cs)
);
}
);
width = 632.25;
},
{
anchors = (
{
name = bottom;
pos = (347,0);
},
{
name = top;
pos = (334,700);
}
);
layerId = "0A7BF5CC-8360-449C-B03A-1C2F0CDBB92F";
shapes = (
{
closed = 1;
nodes = (
(433,-15,o),
(501,27,o),
(545,88,cs),
(550,95,o),
(551,100,o),
(551,106,cs),
(551,315,ls),
(551,333,o),
(539,347,o),
(523,347,cs),
(373,348,ls),
(356,348,o),
(342,334,o),
(342,317,cs),
(342,300,o),
(355,286,o),
(372,286,cs),
(487,286,l),
(487,116,l),
(451,71,o),
(406,44,o),
(348,44,cs),
(200,44,o),
(117,166,o),
(117,346,cs),
(117,500,o),
(190,654,o),
(337,654,cs),
(421,654,o),
(463,608,o),
(483,553,cs),
(488,542,o),
(499,534,o),
(512,534,cs),
(530,534,o),
(543,549,o),
(543,565,cs),
(543,569,o),
(542,573,o),
(541,576,c),
(516,644,o),
(450,714,o),
(337,714,cs),
(144,714,o),
(53,531,o),
(53,346,cs),
(53,126,o),
(166,-15,o),
(341,-15,cs)
);
}
);
width = 610;
}
);
},
{
glyphname = H;
lastChange = "2022-01-26 19:41:59 +0000";
layers = (
{
anchors = (
{
name = bottom;
pos = (375,0);
},
{
name = center;
pos = (375,350);
},
{
name = top;
pos = (375,700);
},
{
name = topleft;
pos = (18,700);
}
);
background = {
shapes = (
{
attr = {
strokeWidth = 2;
};
closed = 0;
nodes = (
(596,700,l),
(596,0,l)
);
},
{
attr = {
strokeWidth = 2;
};
closed = 0;
nodes = (
(579,358,l),
(156,357,l)
);
},
{
attr = {
strokeWidth = 2;
};
closed = 0;
nodes = (
(157,700,l),
(157,0,l)
);
}
);
};
layerId = "6242D68C-0A25-4F05-8F2A-2075F7C4A210";
shapes = (
{
closed = 1;
nodes = (
(203,-10,o),
(236,23,o),
(236,68,cs),
(236,632,ls),
(236,677,o),
(203,710,o),
(158,710,cs),
(113,710,o),
(80,677,o),
(80,632,cs),
(80,68,ls),
(80,23,o),
(113,-10,o),
(158,-10,cs)
);
},
{
closed = 1;
nodes = (
(641,-10,o),
(674,23,o),
(674,68,cs),
(674,632,ls),
(674,677,o),
(641,710,o),
(596,710,cs),
(551,710,o),
(518,677,o),
(518,632,cs),
(518,68,ls),
(518,23,o),
(551,-10,o),
(596,-10,cs)
);
},
{
closed = 1;
nodes = (
(603,286,l),
(603,426,l),
(188,426,l),
(188,286,l)
);
}
);
width = 754;
},
{
anchors = (
{
name = bottom;
pos = (311,0);
},
{
name = center;
pos = (311,350);
},
{
name = top;
pos = (311,700);
},
{
name = topleft;
pos = (18,700);
}
);
background = {
shapes = (
{
attr = {
strokeWidth = 2;
};
closed = 0;
nodes = (
(104,665,l),
(104,35,l)
);
},
{
attr = {
strokeWidth = 2;
};
closed = 0;
nodes = (
(524,665,l),
(524,35,l)
);
},
{
attr = {
strokeWidth = 2;
};
closed = 0;
nodes = (
(104,366,l),
(524,366,l)
);
}
);
};
layerId = "3D52442A-254C-4C79-B742-A98FD72DF947";
shapes = (
{
closed = 1;
nodes = (
(116,-10,o),
(126,0,o),
(126,13,cs),
(126,687,ls),
(126,700,o),
(116,710,o),
(103,710,cs),
(90,710,o),
(80,700,o),
(80,687,cs),
(80,13,ls),
(80,0,o),
(90,-10,o),
(103,-10,cs)
);
},
{
closed = 1;
nodes = (
(530,-10,o),
(540,0,o),
(540,13,cs),
(540,687,ls),
(540,700,o),
(530,710,o),
(517,710,cs),
(504,710,o),
(494,700,o),
(494,687,cs),
(494,13,ls),
(494,0,o),
(504,-10,o),
(517,-10,cs)
);
},
{
closed = 1;
nodes = (
(507,338,l),
(507,383,l),
(117,383,l),
(117,338,l)
);
}
);
width = 620;
},
{
anchors = (
{
name = bottom;
pos = (347,0);
},
{
name = center;
pos = (347,350);
},
{
name = top;
pos = (347,700);
},
{
name = topleft;
pos = (20,700);
}
);
layerId = "CF015620-3929-45BF-A6BE-C5D8AFCEAD19";
shapes = (
{
closed = 1;
nodes = (
(160,-10,o),
(181,11,o),
(181,40,cs),
(181,660,ls),
(181,689,o),
(160,710,o),
(130,710,cs),
(101,710,o),
(80,689,o),
(80,660,cs),
(80,40,ls),
(80,11,o),
(101,-10,o),
(130,-10,cs)
);
},
{
closed = 1;
nodes = (
(593,-10,o),
(614,11,o),
(614,40,cs),
(614,660,ls),
(614,689,o),
(593,710,o),
(564,710,cs),
(535,710,o),
(514,689,o),
(514,660,cs),
(514,40,ls),
(514,11,o),
(535,-10,o),
(564,-10,cs)
);
},
{
closed = 1;
nodes = (
(570,314,l),
(570,407,l),
(139,407,l),
(139,314,l)
);
}
);
width = 694;
},
{
anchors = (
{
name = bottom;
pos = (325,0);
},
{
name = center;
pos = (325,350);
},
{
name = top;
pos = (325,700);
},
{
name = topleft;
pos = (19,700);
}
);
layerId = "0A7BF5CC-8360-449C-B03A-1C2F0CDBB92F";
shapes = (
{
closed = 1;
nodes = (
(131,-10,o),
(144,4,o),
(144,22,cs),
(144,678,ls),
(144,697,o),
(131,710,o),
(112,710,cs),
(94,710,o),
(80,697,o),
(80,678,cs),
(80,22,ls),
(80,4,o),
(94,-10,o),
(112,-10,cs)
);
},
{
closed = 1;
nodes = (
(553,-10,o),
(566,4,o),
(566,22,cs),
(566,678,ls),
(566,697,o),
(553,710,o),
(534,710,cs),
(516,710,o),
(502,697,o),
(502,678,cs),
(502,22,ls),
(502,4,o),
(516,-10,o),
(534,-10,cs)
);
},
{
closed = 1;
nodes = (
(532,331,l),
(532,391,l),
(120,391,l),
(120,331,l)
);
}
);
width = 646;
}
);
unicode = 72;
},
{
glyphname = H.ss02;
lastChange = "2022-01-26 16:30:56 +0000";
layers = (
{
anchors = (
{
name = bottom;
pos = (377,0);
},
{
name = center;
pos = (377,350);
},
{
name = top;
pos = (377,700);
},
{
name = topleft;
pos = (20,700);
}
);
background = {
shapes = (
{
attr = {
strokeWidth = 2;
};
closed = 0;
nodes = (
(598,700,l),
(598,0,l)
);
},
{
attr = {
strokeWidth = 2;
};
closed = 0;
nodes = (
(581,358,l),
(158,357,l)
);
},
{
attr = {
strokeWidth = 2;
};
closed = 0;
nodes = (
(159,700,l),
(159,0,l)
);
}
);
};
layerId = "6242D68C-0A25-4F05-8F2A-2075F7C4A210";
shapes = (
{
closed = 1;
nodes = (
(204,-8,o),
(240,28,o),
(240,72,cs),
(240,628,ls),
(240,672,o),
(204,708,o),
(160,708,cs),
(116,708,o),
(80,672,o),
(80,628,cs),
(80,72,ls),
(80,28,o),
(116,-8,o),
(160,-8,cs)
);
},
{
closed = 1;
nodes = (
(668,-8,o),
(704,28,o),
(704,72,cs),
(704,628,ls),
(704,672,o),
(668,708,o),
(624,708,cs),
(580,708,o),
(544,672,o),
(544,628,cs),
(544,72,ls),
(544,28,o),
(580,-8,o),
(624,-8,cs)
);
},
{
closed = 1;
nodes = (
(635,281,l),
(635,431,l),
(188,431,l),
(188,281,l)
);
}
);
width = 784;
},
{
anchors = (
{
name = bottom;
pos = (313,0);
},
{
name = center;
pos = (313,350);
},
{
name = top;
pos = (313,700);
},
{
name = topleft;
pos = (20,700);
}
);
background = {
shapes = (
{
attr = {
strokeWidth = 2;
};
closed = 0;
nodes = (
(101,700,l),
(101,0,l)
);
},
{
attr = {
strokeWidth = 2;
};
closed = 0;
nodes = (
(529,700,l),
(529,0,l)
);
},
{
attr = {
strokeWidth = 2;
};
closed = 0;
nodes = (
(105,368,l),
(529,368,l)
);
},
{
closed = 1;
nodes = (
(119,-10,o),
(132,3,o),
(132,20,cs),
(132,680,ls),
(132,697,o),
(119,710,o),
(102,710,cs),
(85,710,o),
(72,697,o),
(72,680,cs),
(72,20,ls),
(72,3,o),
(85,-10,o),
(102,-10,cs)
);
},
{
closed = 1;
nodes = (
(532,-10,o),
(545,3,o),
(545,20,cs),
(545,680,ls),
(545,697,o),
(532,710,o),
(515,710,cs),
(498,710,o),
(485,697,o),
(485,680,cs),
(485,20,ls),
(485,3,o),
(498,-10,o),
(515,-10,cs)
);
},
{
closed = 1;
nodes = (
(516,341,l),
(516,399,l),
(98,398,l),
(98,340,l)
);
},
{
closed = 1;
nodes = (
(441,41,o),
(529,164,o),
(529,351,cs),
(529,538,o),
(441,661,o),
(314,661,cs),
(187,661,o),
(99,538,o),
(99,351,cs),
(99,164,o),
(187,41,o),
(314,41,cs)
);
},
{
closed = 1;
nodes = (
(155,-12,o),
(42,130,o),
(42,351,cs),
(42,572,o),
(155,714,o),
(314,714,cs),
(473,714,o),
(586,572,o),
(586,351,cs),
(586,127,o),
(458,-12,o),
(314,-12,cs)
);
}
);
};
layerId = "3D52442A-254C-4C79-B742-A98FD72DF947";
shapes = (
{
closed = 1;
nodes = (
(111,-10,o),
(121,0,o),
(121,13,cs),
(121,687,ls),
(121,700,o),
(111,710,o),
(98,710,cs),
(85,710,o),
(75,700,o),
(75,687,cs),
(75,13,ls),
(75,0,o),
(85,-10,o),
(98,-10,cs)
);
},
{
closed = 1;
nodes = (
(536,-10,o),
(546,0,o),
(546,13,cs),
(546,687,ls),
(546,700,o),
(536,710,o),
(523,710,cs),
(510,710,o),
(500,700,o),
(500,687,cs),
(500,13,ls),
(500,0,o),
(510,-10,o),
(523,-10,cs)
);
},
{
closed = 1;
nodes = (
(508,344,l),
(508,389,l),
(111,389,l),
(111,344,l)
);
}
);
width = 621;
},
{
anchors = (
{
name = bottom;
pos = (348,0);
},
{
name = center;
pos = (348,350);
},
{
name = top;
pos = (348,700);
},
{
name = topleft;
pos = (20,700);
}
);
layerId = "CF015620-3929-45BF-A6BE-C5D8AFCEAD19";
shapes = (
{
closed = 1;
nodes = (
(160,-10,o),
(182,12,o),
(182,41,cs),
(182,659,ls),
(182,688,o),
(160,710,o),
(131,710,cs),
(102,710,o),
(80,688,o),
(80,659,cs),
(80,41,ls),
(80,12,o),
(102,-10,o),
(131,-10,cs)
);
},
{
closed = 1;
nodes = (
(601,-10,o),
(623,12,o),
(623,41,cs),
(623,659,ls),
(623,688,o),
(601,710,o),
(572,710,cs),
(543,710,o),
(522,688,o),
(522,659,cs),
(522,41,ls),
(522,12,o),
(543,-10,o),
(572,-10,cs)
);
},
{
closed = 1;
nodes = (
(575,319,l),
(575,414,l),
(138,414,l),
(138,319,l)
);
}
);
width = 703;
},
{
anchors = (
{
name = bottom;
pos = (326,0);
},
{
name = center;
pos = (326,350);
},
{
name = top;
pos = (326,700);
},
{
name = topleft;
pos = (20,700);
}
);
layerId = "0A7BF5CC-8360-449C-B03A-1C2F0CDBB92F";
shapes = (
{
closed = 1;
nodes = (
(128,-10,o),
(142,4,o),
(142,22,cs),
(142,678,ls),
(142,697,o),
(128,710,o),
(110,710,cs),
(91,710,o),
(78,697,o),
(78,678,cs),
(78,22,ls),
(78,4,o),
(91,-10,o),
(110,-10,cs)
);
},
{
closed = 1;
nodes = (
(558,-10,o),
(571,4,o),
(571,22,cs),
(571,678,ls),
(571,697,o),
(558,710,o),
(539,710,cs),
(521,710,o),
(507,697,o),
(507,678,cs),
(507,22,ls),
(507,4,o),
(521,-10,o),
(539,-10,cs)
);
},
{
closed = 1;
nodes = (
(532,338,l),
(532,399,l),
(116,399,l),
(116,338,l)
);
}
);
width = 648.5;
}
);
},
{
glyphname = Hbar;
lastChange = "2022-01-26 16:30:56 +0000";
layers = (
{
layerId = "6242D68C-0A25-4F05-8F2A-2075F7C4A210";
shapes = (
{
pos = (59,0);
ref = H;
},
{
attr = {
lineCapEnd = "2";
lineCapStart = "2";
strokeHeight = 130;
strokeWidth = 130;
};
closed = 0;
nodes = (
(66,530,l),
(806,530,l)
);
}
);
width = 873;
},
{
layerId = "3D52442A-254C-4C79-B742-A98FD72DF947";
shapes = (
{
pos = (81,0);
ref = H;
},
{
attr = {
lineCapEnd = "2";
lineCapStart = "2";
strokeHeight = 45;
strokeWidth = 45;
};
closed = 0;
nodes = (
(62,510,l),
(720,510,l)
);
}
);
width = 782;
},
{
layerId = "CF015620-3929-45BF-A6BE-C5D8AFCEAD19";
shapes = (
{
alignment = -1;
pos = (60,0);
ref = H;
},
{
attr = {
lineCapEnd = "2";
lineCapStart = "2";
strokeHeight = 89.5;
strokeWidth = 89.5;
};
closed = 0;
nodes = (
(65,515,l),
(743,515,l)
);
}
);
width = 807.75;
},
{
layerId = "0A7BF5CC-8360-449C-B03A-1C2F0CDBB92F";
shapes = (
{
alignment = -1;
pos = (71,0);
ref = H;
},
{
attr = {
lineCapEnd = "2";
lineCapStart = "2";
strokeHeight = 60.5;
strokeWidth = 60.5;
};
closed = 0;
nodes = (
(63,510,l),
(721,510,l)
);
}
);
width = 784;
}
);
metricLeft = "=H-20";
metricRight = "=H-20";
unicode = 294;
},
{
glyphname = I;
lastChange = "2022-01-26 16:30:56 +0000";
layers = (
{
anchors = (
{
name = bottom;
pos = (162,0);
},
{
name = ogonek;
pos = (97,0);
},
{
name = top;
pos = (159,700);
},
{
name = topleft;
pos = (20,700);
}
);
layerId = "6242D68C-0A25-4F05-8F2A-2075F7C4A210";
shapes = (
{
closed = 1;
nodes = (
(203,-10,o),
(236,23,o),
(236,68,cs),
(236,632,ls),
(236,677,o),
(203,710,o),
(158,710,cs),
(113,710,o),
(80,677,o),
(80,632,cs),
(80,68,ls),
(80,23,o),
(113,-10,o),
(158,-10,cs)
);
}
);
width = 316;
},
{
anchors = (
{
name = bottom;
pos = (103,0);
},
{
name = ogonek;
pos = (62,0);
},
{
name = top;
pos = (103,700);
},
{
name = topleft;
pos = (25,700);
}
);
layerId = "3D52442A-254C-4C79-B742-A98FD72DF947";
shapes = (
{
closed = 1;
nodes = (
(116,-10,o),
(126,0,o),
(126,13,cs),
(126,687,ls),
(126,700,o),
(116,710,o),
(103,710,cs),
(90,710,o),
(80,700,o),
(80,687,cs),
(80,13,ls),
(80,0,o),
(90,-10,o),
(103,-10,cs)
);
}
);
width = 206;
},
{
anchors = (
{
name = bottom;
pos = (131,0);
},
{
name = ogonek;
pos = (85,0);
},
{
name = top;
pos = (131,700);
},
{
name = topleft;
pos = (20,700);
}
);
layerId = "CF015620-3929-45BF-A6BE-C5D8AFCEAD19";
shapes = (
{
closed = 1;
nodes = (
(160,-10,o),
(181,11,o),
(181,40,cs),
(181,660,ls),
(181,689,o),
(160,710,o),
(130,710,cs),
(101,710,o),
(80,689,o),
(80,660,cs),
(80,40,ls),
(80,11,o),
(101,-10,o),
(130,-10,cs)
);
}
);
width = 260.5;
},
{
anchors = (
{
name = bottom;
pos = (112,0);
},
{
name = ogonek;
pos = (72,0);
},
{
name = top;
pos = (112,700);
},
{
name = topleft;
pos = (23,700);
}
);
layerId = "0A7BF5CC-8360-449C-B03A-1C2F0CDBB92F";
shapes = (
{
closed = 1;
nodes = (
(131,-10,o),
(144,4,o),
(144,22,cs),
(144,678,ls),
(144,697,o),
(131,710,o),
(112,710,cs),
(94,710,o),
(80,697,o),
(80,678,cs),
(80,22,ls),
(80,4,o),
(94,-10,o),
(112,-10,cs)
);
}
);
width = 224;
}
);
metricLeft = "=H";
metricRight = "=H";
unicode = 73;
},
{
glyphname = IJ.001;
lastChange = "2022-01-26 16:30:56 +0000";
layers = (
{
layerId = "6242D68C-0A25-4F05-8F2A-2075F7C4A210";
shapes = (
{
closed = 1;
nodes = (
(437,-15,o),
(520,74,o),
(520,187,cs),
(520,632,ls),
(520,675,o),
(485,710,o),
(442,710,cs),
(399,710,o),
(364,675,o),
(364,632,cs),
(364,229,ls),
(364,169,o),
(355,141,o),
(301,141,cs),
(284,141,o),
(260,144,o),
(244,163,cs),
(227,183,o),
(212,212,o),
(167,212,cs),
(126,212,o),
(89,187,o),
(89,139,cs),
(89,54,o),
(186,-15,o),
(298,-15,cs)
);
},
{
closed = 1;
nodes = (
(203,290,o),
(236,323,o),
(236,368,cs),
(236,632,ls),
(236,677,o),
(203,710,o),
(158,710,cs),
(113,710,o),
(80,677,o),
(80,632,cs),
(80,368,ls),
(80,323,o),
(113,290,o),
(158,290,cs)
);
}
);
width = 600;
},
{
layerId = "3D52442A-254C-4C79-B742-A98FD72DF947";
shapes = (
{
closed = 1;
nodes = (
(376,-15,o),
(445,58,o),
(445,214,cs),
(445,687,ls),
(445,700,o),
(435,710,o),
(422,710,cs),
(409,710,o),
(399,700,o),
(399,687,cs),
(399,214,ls),
(399,85,o),
(350,29,o),
(265,29,cs),
(180,29,o),
(127,83,o),
(127,194,cs),
(127,207,o),
(117,217,o),
(104,217,cs),
(91,217,o),
(81,207,o),
(81,194,cs),
(81,51,o),
(150,-15,o),
(265,-15,cs)
);
},
{
closed = 1;
nodes = (
(116,290,o),
(126,300,o),
(126,313,cs),
(126,687,ls),
(126,700,o),
(116,710,o),
(103,710,cs),
(90,710,o),
(80,700,o),
(80,687,cs),
(80,313,ls),
(80,300,o),
(90,290,o),
(103,290,cs)
);
}
);
width = 525;
},
{
layerId = "CF015620-3929-45BF-A6BE-C5D8AFCEAD19";
shapes = (
{
closed = 1;
nodes = (
(386,-27,o),
(459,53,o),
(459,179,cs),
(459,660,ls),
(459,688,o),
(436,710,o),
(408,710,cs),
(380,710,o),
(358,688,o),
(358,660,cs),
(358,189,ls),
(358,114,o),
(327,70,o),
(263,70,cs),
(218,70,o),
(190,94,o),
(186,121,cs),
(181,143,o),
(164,164,o),
(135,164,cs),
(105,164,o),
(82,142,o),
(82,110,cs),
(82,30,o),
(171,-27,o),
(262,-27,cs)
);
},
{
closed = 1;
nodes = (
(160,246,o),
(181,268,o),
(181,296,cs),
(181,660,ls),
(181,688,o),
(160,710,o),
(131,710,cs),
(103,710,o),
(81,688,o),
(81,660,cs),
(81,296,ls),
(81,268,o),
(103,246,o),
(131,246,cs)
);
}
);
width = 538.5;
},
{
layerId = "0A7BF5CC-8360-449C-B03A-1C2F0CDBB92F";
shapes = (
{
closed = 1;
nodes = (
(373,-23,o),
(442,52,o),
(442,195,cs),
(442,678,ls),
(442,696,o),
(428,710,o),
(410,710,cs),
(392,710,o),
(378,696,o),
(378,678,cs),
(378,195,ls),
(378,91,o),
(334,38,o),
(258,38,cs),
(188,38,o),
(147,80,o),
(147,151,cs),
(147,168,o),
(133,183,o),
(114,183,cs),
(95,183,o),
(81,167,o),
(81,147,cs),
(81,37,o),
(158,-23,o),
(258,-23,cs)
);
},
{
closed = 1;
nodes = (
(131,261,o),
(145,275,o),
(145,293,cs),
(145,678,ls),
(145,696,o),
(131,710,o),
(113,710,cs),
(95,710,o),
(81,696,o),
(81,678,cs),
(81,293,ls),
(81,275,o),
(95,261,o),
(113,261,cs)
);
}
);
width = 521.5;
}
);
metricLeft = "=I";
metricRight = "=J";
},
{
glyphname = Iogonek;
lastChange = "2022-01-26 16:30:56 +0000";
layers = (
{
layerId = "6242D68C-0A25-4F05-8F2A-2075F7C4A210";
shapes = (
{
alignment = -1;
pos = (19,0);
ref = I;
},
{
closed = 1;
nodes = (
(215,-214,o),
(259,-197,o),
(289,-163,cs),
(300,-150,o),
(307,-133,o),
(307,-115,cs),
(307,-76,o),
(274,-53,o),
(245,-53,cs),
(219,-53,o),
(205,-62,o),
(190,-73,cs),
(177,-83,o),
(162,-92,o),
(152,-82,cs),
(138,-68,o),
(156,-49,o),
(172,-41,cs),
(199,-27,o),
(255,5,o),
(255,68,cs),
(255,129,l),
(99,129,l),
(99,87,l),
(99,17,o),
(20,4,o),
(20,-92,cs),
(20,-174,o),
(88,-214,o),
(166,-214,cs)
);
}
);
width = 327;
},
{
background = {
shapes = (
{
closed = 1;
nodes = (
(117,-215,o),
(139,-200,o),
(158,-175,cs),
(162,-169,o),
(166,-164,o),
(166,-154,cs),
(166,-143,o),
(158,-136,o),
(148,-136,cs),
(139,-136,o),
(134,-142,o),
(129,-147,c),
(112,-167,o),
(101,-170,o),
(84,-170,cs),
(61,-170,o),
(45,-155,o),
(45,-132,cs),
(45,-80,o),
(117,-54,o),
(117,-6,cs),
(117,77,l),
(71,77,l),
(71,2,ls),
(71,-39,o),
(0,-61,o),
(0,-137,cs),
(0,-184,o),
(40,-215,o),
(83,-215,cs)
);
}
);
};
layerId = "3D52442A-254C-4C79-B742-A98FD72DF947";
shapes = (
{
alignment = -1;
pos = (-9,0);
ref = I;
},
{
closed = 1;
nodes = (
(126,-215,o),
(153,-200,o),
(172,-175,cs),
(176,-169,o),
(180,-164,o),
(180,-155,cs),
(180,-143,o),
(172,-136,o),
(162,-136,cs),
(152,-136,o),
(147,-142,o),
(142,-147,cs),
(123,-166,o),
(110,-174,o),
(91,-174,cs),
(60,-174,o),
(44,-155,o),
(44,-130,cs),
(44,-78,o),
(117,-47,o),
(117,5,cs),
(117,88,l),
(71,88,l),
(71,13,ls),
(71,-28,o),
(-1,-62,o),
(-1,-131,cs),
(-1,-184,o),
(39,-215,o),
(89,-215,cs)
);
}
);
width = 166;
},
{
layerId = "CF015620-3929-45BF-A6BE-C5D8AFCEAD19";
shapes = (
{
alignment = -1;
pos = (5,0);
ref = I;
},
{
closed = 1;
nodes = (
(150,-216,o),
(188,-204,o),
(218,-169,cs),
(225,-161,o),
(230,-150,o),
(230,-138,cs),
(230,-114,o),
(211,-97,o),
(189,-97,cs),
(174,-97,o),
(164,-103,o),
(155,-111,cs),
(140,-124,o),
(131,-133,o),
(116,-130,cs),
(98,-127,o),
(99,-105,o),
(103,-97,cs),
(110,-63,o),
(185,-23,o),
(185,38,cs),
(185,110,l),
(85,110,l),
(85,38,ls),
(85,-2,o),
(13,-34,o),
(13,-116,cs),
(13,-175,o),
(63,-213,o),
(118,-215,cs)
);
}
);
width = 263.25;
},
{
layerId = "0A7BF5CC-8360-449C-B03A-1C2F0CDBB92F";
shapes = (
{
alignment = -1;
pos = (-5,0);
ref = I;
},
{
closed = 1;
nodes = (
(127,-216,o),
(159,-203,o),
(183,-173,cs),
(188,-167,o),
(192,-160,o),
(192,-151,cs),
(192,-135,o),
(181,-124,o),
(166,-124,cs),
(156,-124,o),
(149,-129,o),
(143,-135,cs),
(126,-152,o),
(115,-160,o),
(98,-160,cs),
(72,-160,o),
(62,-140,o),
(62,-123,cs),
(62,-77,o),
(140,-40,o),
(140,17,cs),
(140,96,l),
(76,96,l),
(76,17,ls),
(76,-18,o),
(5,-54,o),
(5,-128,cs),
(5,-180,o),
(47,-214,o),
(96,-215,cs)
);
}
);
width = 204;
}
);
unicode = 302;
},
{
glyphname = J;
lastChange = "2022-01-26 16:30:56 +0000";
layers = (
{
anchors = (
{
name = bottom;
pos = (347,0);
},
{
name = top;
pos = (426,700);
}
);
layerId = "6242D68C-0A25-4F05-8F2A-2075F7C4A210";
shapes = (
{
closed = 1;
nodes = (
(421,-15,o),
(504,74,o),
(504,227,cs),
(504,632,ls),
(504,675,o),
(469,710,o),
(426,710,cs),
(383,710,o),
(348,675,o),
(348,632,cs),
(348,229,ls),
(348,169,o),
(334,135,o),
(279,135,cs),
(234,135,o),
(201,155,o),
(201,197,cs),
(201,204,ls),
(201,247,o),
(166,282,o),
(123,282,cs),
(80,282,o),
(45,247,o),
(45,204,cs),
(45,196,ls),
(45,74,o),
(143,-15,o),
(282,-15,cs)
);
}
);
width = 584;
},
{
anchors = (
{
name = bottom;
pos = (237,0);
},
{
name = top;
pos = (376,700);
}
);
layerId = "3D52442A-254C-4C79-B742-A98FD72DF947";
shapes = (
{
closed = 1;
nodes = (
(335,-15,o),
(399,58,o),
(399,184,cs),
(399,687,ls),
(399,700,o),
(389,710,o),
(376,710,cs),
(363,710,o),
(353,700,o),
(353,687,cs),
(353,184,ls),
(353,85,o),
(309,29,o),
(224,29,cs),
(139,29,o),
(81,83,o),
(81,177,cs),
(81,194,ls),
(81,207,o),
(71,217,o),
(58,217,cs),
(45,217,o),
(35,207,o),
(35,194,cs),
(35,177,ls),
(35,61,o),
(109,-15,o),
(224,-15,cs)
);
}
);
width = 479;
},
{
anchors = (
{
name = bottom;
pos = (274,0);
},
{
name = top;
pos = (392,700);
}
);
layerId = "CF015620-3929-45BF-A6BE-C5D8AFCEAD19";
shapes = (
{
closed = 1;
nodes = (
(385,-15,o),
(441,88,o),
(441,200,cs),
(441,660,ls),
(441,689,o),
(420,710,o),
(391,710,cs),
(362,710,o),
(341,689,o),
(341,660,cs),
(341,201,ls),
(341,132,o),
(320,78,o),
(241,78,cs),
(164,78,o),
(138,134,o),
(138,184,cs),
(138,206,ls),
(138,234,o),
(116,257,o),
(88,257,cs),
(60,257,o),
(38,234,o),
(38,206,cs),
(38,184,ls),
(38,100,o),
(95,-15,o),
(241,-15,cs)
);
}
);
width = 521;
},
{
anchors = (
{
name = bottom;
pos = (244,0);
},
{
name = top;
pos = (378,700);
}
);
layerId = "0A7BF5CC-8360-449C-B03A-1C2F0CDBB92F";
shapes = (
{
closed = 1;
nodes = (
(354,-15,o),
(410,76,o),
(410,188,cs),
(410,678,ls),
(410,697,o),
(396,710,o),
(378,710,cs),
(359,710,o),
(346,697,o),
(346,678,cs),
(346,188,ls),
(346,102,o),
(312,44,o),
(226,44,cs),
(140,44,o),
(99,105,o),
(99,179,cs),
(99,201,ls),
(99,219,o),
(85,233,o),
(67,233,cs),
(49,233,o),
(35,219,o),
(35,201,cs),
(35,179,ls),
(35,85,o),
(94,-15,o),
(226,-15,cs)
);
}
);
width = 489.5;
}
);
metricRight = H;
unicode = 74;
},
{
glyphname = K;
lastChange = "2022-01-26 16:30:56 +0000";
layers = (
{
anchors = (
{
name = bottom;
pos = (322,0);
},
{
name = top;
pos = (322,700);
}
);
background = {
shapes = (
{
attr = {
strokeWidth = 2;
};
closed = 0;
nodes = (
(170,628,l),
(170,73,l)
);
},
{
attr = {
strokeWidth = 2;
};
closed = 0;
nodes = (
(511,615,l),
(300,401,l),
(170,268,l)
);
},
{
attr = {
strokeWidth = 2;
};
closed = 0;
nodes = (
(525,76,l),
(300,401,l)
);
}
);
};
layerId = "6242D68C-0A25-4F05-8F2A-2075F7C4A210";
shapes = (
{
closed = 1;
nodes = (
(203,-10,o),
(236,23,o),
(236,68,cs),
(236,632,ls),
(236,677,o),
(203,710,o),
(158,710,cs),
(113,710,o),
(80,677,o),
(80,632,cs),
(80,68,ls),
(80,23,o),
(113,-10,o),
(158,-10,cs)
);
},
{
closed = 1;
nodes = (
(578,575,ls),
(592,588,o),
(600,609,o),
(600,630,cs),
(600,673,o),
(565,707,o),
(522,707,cs,{
name = "";
}),
(499,707,o),
(478,696,o),
(462,681,cs),
(93,331,l),
(205,221,l)
);
},
{
closed = 1;
nodes = (
(588,-10,o),
(623,25,o),
(623,68,cs),
(623,84,o),
(617,100,o),
(609,112,cs),
(384,445,l),
(253,358,l),
(481,24,ls),
(495,3,o),
(518,-10,o),
(545,-10,cs)
);
}
);
width = 653;
},
{
anchors = (
{
name = bottom;
pos = (255,0);
},
{
name = top;
pos = (255,700);
}
);
background = {
shapes = (
{
attr = {
strokeWidth = 2;
};
closed = 0;
nodes = (
(63,690,l),
(63,11,l)
);
},
{
attr = {
strokeWidth = 2;
};
closed = 0;
nodes = (
(481,674,l),
(223,413,l),
(63,250,l)
);
},
{
attr = {
strokeWidth = 2;
};
closed = 0;
nodes = (
(498,14,l),
(223,413,l)
);
},
{
attr = {
strokeWidth = 2;
};
closed = 0;
nodes = (
(63,690,l),
(63,11,l)
);
},
{
attr = {
strokeWidth = 2;
};
closed = 0;
nodes = (
(481,674,l),
(223,413,l),
(63,250,l)
);
},
{
attr = {
strokeWidth = 2;
};
closed = 0;
nodes = (
(498,14,l),
(223,413,l)
);
}
);
};
layerId = "3D52442A-254C-4C79-B742-A98FD72DF947";
shapes = (
{
closed = 1;
nodes = (
(116,-10,o),
(126,0,o),
(126,13,cs),
(126,687,ls),
(126,700,o),
(116,710,o),
(103,710,cs),
(90,710,o),
(80,700,o),
(80,687,cs),
(80,13,ls),
(80,0,o),
(90,-10,o),
(103,-10,cs)
);
},
{
closed = 1;
nodes = (
(494,659,ls),
(498,663,o),
(500,669,o),
(500,675,cs),
(500,688,o),
(490,698,o),
(477,698,cs),
(471,698,o),
(466,696,o),
(462,692,cs),
(95,292,l),
(112,244,l)
);
},
{
closed = 1;
nodes = (
(521,-10,o),
(531,0,o),
(531,13,cs),
(531,17,o),
(530,21,o),
(527,26,cs),
(237,433,l),
(216,398,l),
(489,0,ls,{
name = "";
}),
(493,-6,o),
(501,-10,o),
(508,-10,cs)
);
}
);
width = 561;
},
{
anchors = (
{
name = bottom;
pos = (305,0);
},
{
name = top;
pos = (305,700);
}
);
layerId = "CF015620-3929-45BF-A6BE-C5D8AFCEAD19";
shapes = (
{
closed = 1;
nodes = (
(160,-10,o),
(181,11,o),
(181,40,cs),
(181,660,ls),
(181,689,o),
(160,710,o),
(130,710,cs),
(101,710,o),
(80,689,o),
(80,660,cs),
(80,40,ls),
(80,11,o),
(101,-10,o),
(130,-10,cs)
);
},
{
closed = 1;
nodes = (
(535,619,ls),
(545,629,o),
(550,641,o),
(550,655,cs),
(550,682,o),
(528,705,o),
(500,705,cs),
(486,705,o),
(473,698,o),
(464,689,cs),
(117,331,l),
(145,217,l)
);
},
{
closed = 1;
nodes = (
(556,-11,o),
(578,12,o),
(578,40,cs),
(578,50,o),
(574,60,o),
(569,69,cs),
(324,427,l),
(255,360,l),
(487,11,ls),
(496,-2,o),
(511,-11,o),
(528,-11,cs)
);
}
);
width = 608;
},
{
anchors = (
{
name = bottom;
pos = (277,0);
},
{
name = top;
pos = (277,700);
}
);
layerId = "0A7BF5CC-8360-449C-B03A-1C2F0CDBB92F";
shapes = (
{
closed = 1;
nodes = (
(131,-10,o),
(144,4,o),
(144,22,cs),
(144,678,ls),
(144,697,o),
(131,710,o),
(112,710,cs),
(94,710,o),
(80,697,o),
(80,678,cs),
(80,22,ls),
(80,4,o),
(94,-10,o),
(112,-10,cs)
);
},
{
closed = 1;
nodes = (
(508,647,ls),
(514,653,o),
(517,661,o),
(517,669,cs),
(517,687,o),
(503,701,o),
(485,701,cs),
(476,701,o),
(469,698,o),
(463,692,cs),
(110,312,l),
(119,230,l)
);
},
{
closed = 1;
nodes = (
(533,-11,o),
(547,4,o),
(547,22,cs),
(547,28,o),
(545,34,o),
(541,40,cs),
(271,427,l),
(236,380,l),
(489,4,ls,{
name = "";
}),
(495,-5,o),
(505,-11,o),
(515,-11,cs)
);
}
);
width = 577;
}
);
metricLeft = H;
unicode = 75;
},
{
glyphname = L;
lastChange = "2022-01-26 19:45:29 +0000";
layers = (
{
anchors = (
{
name = bottom;
pos = (330,0);
},
{
name = center;
pos = (300,350);
},
{
name = top;
pos = (158,700);
},
{
name = topright;
pos = (580,700);
}
);
layerId = "6242D68C-0A25-4F05-8F2A-2075F7C4A210";
shapes = (
{
closed = 1;
nodes = (
(236,0,l),
(236,632,ls),
(236,675,o),
(201,710,o),
(158,710,cs),
(115,710,o),
(80,675,o),
(80,632,cs),
(80,78,ls),
(80,35,o),
(115,0,o),
(158,0,cs,{
name = "";
})
);
},
{
closed = 1;
nodes = (
(477,0,ls),
(518,0,o),
(547,29,o),
(547,70,cs),
(547,111,o),
(518,140,o),
(477,140,cs),
(191,140,l),
(191,0,l)
);
}
);
width = 577;
},
{
anchors = (
{
name = bottom;
pos = (305,0);
},
{
name = center;
pos = (288,350);
},
{
name = top;
pos = (103,700);
},
{
name = topright;
pos = (585,700);
}
);
layerId = "3D52442A-254C-4C79-B742-A98FD72DF947";
shapes = (
{
closed = 1;
nodes = (
(126,0,l),
(126,687,ls),
(126,700,o),
(116,710,o),
(103,710,cs),
(90,710,o),
(80,700,o),
(80,687,cs),
(80,23,ls),
(80,10,o),
(90,0,o),
(103,0,cs)
);
},
{
closed = 1;
nodes = (
(437,0,ls),
(450,0,o),
(460,10,o),
(460,23,cs),
(460,36,o),
(450,46,o),
(437,46,cs),
(111,46,l),
(111,0,l)
);
}
);
width = 490;
},
{
anchors = (
{
name = bottom;
pos = (290,0);
},
{
name = center;
pos = (275,350);
},
{
name = top;
pos = (131,700);
},
{
name = topright;
pos = (531,700);
}
);
layerId = "CF015620-3929-45BF-A6BE-C5D8AFCEAD19";
shapes = (
{
closed = 1;
nodes = (
(181,0,l),
(181,656,ls),
(181,684,o),
(158,706,o),
(130,706,cs),
(102,706,o),
(80,684,o),
(80,656,cs),
(80,50,ls),
(80,22,o),
(102,0,o),
(130,0,cs)
);
},
{
closed = 1;
nodes = (
(454,0,ls),
(481,0,o),
(500,19,o),
(500,46,cs),
(500,73,o),
(481,92,o),
(454,92,cs),
(160,92,l),
(160,0,l)
);
}
);
width = 529.75;
},
{
anchors = (
{
name = bottom;
pos = (291,0);
},
{
name = center;
pos = (278,350);
},
{
name = top;
pos = (113,700);
},
{
name = topright;
pos = (550,700);
}
);
layerId = "0A7BF5CC-8360-449C-B03A-1C2F0CDBB92F";
shapes = (
{
closed = 1;
nodes = (
(144,0,l),
(144,676,ls),
(144,694,o),
(130,708,o),
(112,708,cs),
(94,708,o),
(80,694,o),
(80,676,cs),
(80,32,ls),
(80,14,o),
(94,0,o),
(112,0,cs)
);
},
{
closed = 1;
nodes = (
(442,0,ls),
(459,0,o),
(472,14,o),
(472,31,cs),
(472,48,o),
(459,61,o),
(442,61,cs),
(129,61,l),
(129,0,l)
);
}
);
width = 502;
}
);
metricLeft = H;
unicode = 76;
},
{
glyphname = L.ss02;
lastChange = "2022-01-26 16:30:56 +0000";
layers = (
{
anchors = (
{
name = bottom;
pos = (330,0);
},
{
name = center;
pos = (300,350);
},
{
name = top;
pos = (313,700);
},
{
name = topright;
pos = (580,700);
}
);
layerId = "6242D68C-0A25-4F05-8F2A-2075F7C4A210";
shapes = (
{
closed = 1;
nodes = (
(240,0,l),
(240,628,ls),
(240,672,o),
(204,708,o),
(160,708,cs),
(116,708,o),
(80,672,o),
(80,628,cs),
(80,80,ls),
(80,36,o),
(116,0,o),
(160,0,cs)
);
},
{
closed = 1;
nodes = (
(502,0,ls),
(543,0,o),
(577,34,o),
(577,75,cs),
(577,116,o),
(543,150,o),
(502,150,cs),
(199,150,l),
(199,0,l)
);
}
);
width = 607;
},
{
anchors = (
{
name = bottom;
pos = (300,0);
},
{
name = center;
pos = (283,350);
},
{
name = top;
pos = (278,700);
},
{
name = topright;
pos = (580,700);
}
);
layerId = "3D52442A-254C-4C79-B742-A98FD72DF947";
shapes = (
{
closed = 1;
nodes = (
(121,0,l),
(121,687,ls),
(121,700,o),
(111,710,o),
(98,710,cs),
(85,710,o),
(75,700,o),
(75,687,cs),
(75,23,ls),
(75,10,o),
(85,0,o),
(98,0,cs)
);
},
{
closed = 1;
nodes = (
(433,0,ls),
(446,0,o),
(456,10,o),
(456,23,cs),
(456,36,o),
(446,46,o),
(433,46,cs),
(106,46,l),
(106,0,l)
);
}
);
width = 486;
},
{
anchors = (
{
name = bottom;
pos = (290,0);
},
{
name = center;
pos = (275,350);
},
{
name = top;
pos = (171,700);
},
{
name = topright;
pos = (531,700);
}
);
layerId = "CF015620-3929-45BF-A6BE-C5D8AFCEAD19";
shapes = (
{
closed = 1;
nodes = (
(182,0,l),
(182,655,ls),
(182,683,o),
(159,706,o),
(131,706,cs),
(103,706,o),
(80,683,o),
(80,655,cs),
(80,51,ls),
(80,23,o),
(103,0,o),
(131,0,cs)
);
},
{
closed = 1;
nodes = (
(475,0,ls),
(501,0,o),
(522,21,o),
(522,47,cs),
(522,73,o),
(501,95,o),
(475,95,cs),
(159,95,l),
(159,0,l)
);
}
);
width = 552.25;
},
{
anchors = (
{
name = bottom;
pos = (289,0);
},
{
name = center;
pos = (275,350);
},
{
name = top;
pos = (201,700);
},
{
name = topright;
pos = (547,700);
}
);
layerId = "0A7BF5CC-8360-449C-B03A-1C2F0CDBB92F";
shapes = (
{
closed = 1;
nodes = (
(142,0,l),
(142,676,ls),
(142,694,o),
(128,708,o),
(110,708,cs),
(92,708,o),
(78,694,o),
(78,676,cs),
(78,32,ls),
(78,14,o),
(92,0,o),
(110,0,cs)
);
},
{
closed = 1;
nodes = (
(450,0,ls),
(467,0,o),
(480,14,o),
(480,31,cs),
(480,48,o),
(467,61,o),
(450,61,cs),
(126,61,l),
(126,0,l)
);
}
);
width = 510;
}
);
},
{
glyphname = Lslash;
lastChange = "2022-01-26 16:30:56 +0000";
layers = (
{
layerId = "6242D68C-0A25-4F05-8F2A-2075F7C4A210";
shapes = (
{
attr = {
lineCapEnd = "2";
lineCapStart = "2";
strokeHeight = 130;
strokeWidth = 130;
};
closed = 0;
nodes = (
(48,287,l),
(475,508,l)
);
},
{
pos = (86,0);
ref = L;
}
);
width = 663;
},
{
layerId = "3D52442A-254C-4C79-B742-A98FD72DF947";
shapes = (
{
attr = {
lineCapEnd = "2";
lineCapStart = "2";
strokeHeight = 45;
strokeWidth = 45;
};
closed = 0;
nodes = (
(44,300,l),
(367,465,l)
);
},
{
pos = (57,0);
ref = L;
}
);
width = 547;
},
{
layerId = "CF015620-3929-45BF-A6BE-C5D8AFCEAD19";
shapes = (
{
attr = {
lineCapEnd = "2";
lineCapStart = "2";
strokeHeight = 91;
strokeWidth = 91;
};
closed = 0;
nodes = (
(48,287,l),
(435,486,l)
);
},
{
alignment = -1;
pos = (86,0);
ref = L;
}
);
width = 615.75;
},
{
layerId = "0A7BF5CC-8360-449C-B03A-1C2F0CDBB92F";
shapes = (
{
attr = {
lineCapEnd = "2";
lineCapStart = "2";
strokeHeight = 61.5;
strokeWidth = 61.5;
};
closed = 0;
nodes = (
(46,294,l),
(394,472,l)
);
},
{
alignment = -1;
pos = (72,0);
ref = L;
}
);
width = 573.5;
}
);
metricRight = "=L";
unicode = 321;
},
{
glyphname = M;
lastChange = "2022-01-26 16:30:56 +0000";
layers = (
{
anchors = (
{
name = bottom;
pos = (448,0);
},
{
name = top;
pos = (448,700);
}
);
background = {
shapes = (
{
attr = {
strokeWidth = 2;
};
closed = 0;
nodes = (
(187,71,l),
(187,626,l)
);
},
{
attr = {
strokeWidth = 2;
};
closed = 0;
nodes = (
(196,624,l),
(425,63,l),
(649,624,l)
);
},
{
attr = {
strokeWidth = 2;
};
closed = 0;
nodes = (
(658,71,l),
(658,626,l)
);
},
{
attr = {
strokeWidth = 2;
};
closed = 0;
nodes = (
(187,71,l),
(187,626,l)
);
},
{
attr = {
strokeWidth = 2;
};
closed = 0;
nodes = (
(196,624,l),
(425,63,l),
(649,624,l)
);
},
{
attr = {
strokeWidth = 2;
};
closed = 0;
nodes = (
(658,71,l),
(658,626,l)
);
},
{
closed = 1;
nodes = (
(467,0,o),
(488,38,o),
(505,78,cs),
(609,319,l),
(583,324,l),
(583,65,ls),
(583,24,o),
(617,-10,o),
(658,-10,cs),
(699,-10,o),
(733,24,o),
(733,65,cs),
(733,635,ls),
(733,677,o),
(700,710,o),
(658,710,cs),
(622,710,o),
(595,690,o),
(583,658,cs),
(400,178,l),
(449,178,l),
(261,658,ls),
(249,688,o),
(223,710,o),
(190,710,cs),
(139,710,o),
(112,678,o),
(112,623,cs),
(112,65,ls),
(112,24,o),
(146,-10,o),
(187,-10,cs),
(228,-10,o),
(262,24,o),
(262,65,cs),
(262,329,l),
(236,324,l),
(344,78,ls),
(361,38,o),
(381,0,o),
(424,0,cs)
);
}
);
};
layerId = "6242D68C-0A25-4F05-8F2A-2075F7C4A210";
shapes = (
{
closed = 1;
nodes = (
(204,-10,o),
(237,23,o),
(236,68,cs),
(228,436,l),
(207,408,l),
(369,68,ls),
(392,20,o),
(412,0,o),
(449,0,cs),
(484,0,o),
(506,17,o),
(530,68,cs),
(694,408,l),
(663,436,l),
(660,68,ls),
(660,23,o),
(693,-10,o),
(738,-10,cs),
(783,-10,o),
(816,23,o),
(816,68,cs),
(812,635,ls),
(812,677,o),
(779,710,o),
(737,710,cs),
(699,710,o),
(676,688,o),
(662,658,cs),
(420,159,l),
(485,159,l),
(233,658,ls),
(218,688,o),
(197,710,o),
(159,710,cs),
(121,710,o),
(84,682,o),
(84,623,cs),
(80,68,ls),
(80,23,o),
(113,-10,o),
(158,-10,cs)
);
}
);
width = 896;
},
{
anchors = (
{
name = bottom;
pos = (394,0);
},
{
name = top;
pos = (394,700);
}
);
background = {
shapes = (
{
closed = 1;
nodes = (
(379,80,l),
(617,679,ls),
(623,694,o),
(640,705,o),
(657,705,cs),
(687,705,o),
(705,687,o),
(705,664,cs),
(705,37,ls),
(705,14,o),
(687,-4,o),
(664,-4,cs),
(641,-4,o),
(623,14,o),
(623,37,cs),
(630,608,l),
(660,574,l),
(443,36,ls),
(431,5,o),
(413,-10,o),
(394,-10,cs),
(375,-10,o),
(357,5,o),
(345,36,cs),
(128,574,l),
(158,608,l),
(165,37,ls),
(165,14,o),
(147,-4,o),
(124,-4,cs),
(101,-4,o),
(83,14,o),
(83,37,cs),
(83,664,ls),
(83,687,o),
(101,705,o),
(131,705,cs),
(148,705,o),
(165,694,o),
(171,679,cs),
(409,80,l)
);
},
{
attr = {
strokeWidth = 2;
};
closed = 0;
nodes = (
(123,12,l),
(123,691,l)
);
},
{
attr = {
strokeWidth = 2;
};
closed = 0;
nodes = (
(125,680,l),
(396,12,l),
(661,677,l)
);
},
{
attr = {
strokeWidth = 2;
};
closed = 0;
nodes = (
(665,691,l),
(665,12,l)
);
}
);
};
layerId = "3D52442A-254C-4C79-B742-A98FD72DF947";
shapes = (
{
closed = 1;
nodes = (
(116,-10,o),
(126,0,o),
(126,13,cs),
(126,590,l),
(118,589,l),
(376,15,ls),
(380,7,o),
(388,0,o),
(398,0,cs),
(408,0,o),
(416,7,o),
(420,15,cs),
(670,595,l),
(662,596,l),
(662,13,ls),
(662,0,o),
(672,-10,o),
(685,-10,cs),
(698,-10,o),
(708,0,o),
(708,13,cs),
(708,687,ls),
(708,700,o),
(698,710,o),
(685,710,cs,{
name = "";
}),
(673,710,o),
(665,706,o),
(660,695,cs),
(390,63,l),
(406,63,l),
(126,695,ls),
(122,704,o),
(114,710,o),
(104,710,cs),
(90,710,o),
(80,700,o),
(80,687,cs),
(80,13,ls),
(80,0,o),
(90,-10,o),
(103,-10,cs)
);
}
);
width = 788;
},
{
anchors = (
{
name = bottom;
pos = (420,0);
},
{
name = top;
pos = (420,700);
}
);
layerId = "CF015620-3929-45BF-A6BE-C5D8AFCEAD19";
shapes = (
{
closed = 1;
nodes = (
(160,-10,o),
(181,11,o),
(181,40,cs),
(173,579,l),
(142,544,l),
(365,46,ls),
(384,5,o),
(400,-8,o),
(424,-8,cs),
(448,-8,o),
(464,4,o),
(482,46,cs),
(699,547,l),
(666,579,l),
(660,40,ls),
(660,11,o),
(681,-10,o),
(710,-10,cs),
(740,-10,o),
(761,11,o),
(761,40,cs),
(758,658,ls),
(758,686,o),
(736,710,o),
(706,710,cs),
(680,710,o),
(663,697,o),
(655,678,cs),
(406,97,l),
(444,97,l),
(184,678,ls),
(175,697,o),
(159,710,o),
(134,710,cs),
(105,710,o),
(81,687,o),
(81,655,cs),
(80,40,ls),
(80,11,o),
(101,-10,o),
(130,-10,cs)
);
}
);
width = 840.5;
},
{
anchors = (
{
name = bottom;
pos = (403,0);
},
{
name = top;
pos = (403,700);
}
);
layerId = "0A7BF5CC-8360-449C-B03A-1C2F0CDBB92F";
shapes = (
{
closed = 1;
nodes = (
(131,-10,o),
(144,4,o),
(144,22,cs),
(140,608,l),
(119,589,l),
(370,27,ls),
(381,4,o),
(392,-5,o),
(407,-5,cs),
(422,-5,o),
(433,4,o),
(443,27,cs),
(686,594,l),
(665,611,l),
(661,22,ls),
(661,4,o),
(675,-10,o),
(693,-10,cs),
(712,-10,o),
(725,4,o),
(725,22,cs),
(724,676,ls),
(724,695,o),
(710,710,o),
(690,710,cs,{
name = "";
}),
(674,710,o),
(662,703,o),
(656,690,cs),
(396,70,l),
(418,70,l),
(147,690,ls),
(142,702,o),
(130,710,o),
(115,710,cs),
(95,710,o),
(80,695,o),
(80,676,cs),
(80,22,ls),
(80,4,o),
(94,-10,o),
(112,-10,cs)
);
}
);
width = 805;
}
);
metricLeft = H;
metricRight = H;
unicode = 77;
},
{
glyphname = M.ss02;
lastChange = "2022-01-26 16:30:56 +0000";
layers = (
{
background = {
shapes = (
{
attr = {
strokeWidth = 2;
};
closed = 0;
nodes = (
(134,71,l),
(134,626,l)
);
},
{
attr = {
strokeWidth = 2;
};
closed = 0;
nodes = (
(143,624,l),
(372,63,l),
(596,624,l)
);
},
{
attr = {
strokeWidth = 2;
};
closed = 0;
nodes = (
(605,71,l),
(605,626,l)
);
},
{
attr = {
strokeWidth = 2;
};
closed = 0;
nodes = (
(134,71,l),
(134,626,l)
);
},
{
attr = {
strokeWidth = 2;
};
closed = 0;
nodes = (
(143,624,l),
(372,63,l),
(596,624,l)
);
},
{
attr = {
strokeWidth = 2;
};
closed = 0;
nodes = (
(605,71,l),
(605,626,l)
);
},
{
closed = 1;
nodes = (
(414,0,o),
(435,38,o),
(452,78,cs),
(556,319,l),
(530,324,l),
(530,65,ls),
(530,24,o),
(564,-10,o),
(605,-10,cs),
(646,-10,o),
(680,24,o),
(680,65,cs),
(680,635,ls),
(680,677,o),
(647,710,o),
(605,710,cs),
(569,710,o),
(542,690,o),
(530,658,cs),
(347,178,l),
(396,178,l),
(208,658,ls),
(196,688,o),
(170,710,o),
(137,710,cs),
(86,710,o),
(59,678,o),
(59,623,cs),
(59,65,ls),
(59,24,o),
(93,-10,o),
(134,-10,cs),
(175,-10,o),
(209,24,o),
(209,65,cs),
(209,329,l),
(183,324,l),
(291,78,ls),
(308,38,o),
(328,0,o),
(371,0,cs)
);
}
);
};
layerId = "6242D68C-0A25-4F05-8F2A-2075F7C4A210";
shapes = (
{
closed = 1;
nodes = (
(458,0,o),
(489,20,o),
(502,53,cs),
(702,568,l),
(621,576,l),
(611,65,ls),
(610,24,o),
(645,-10,o),
(690,-10,cs),
(735,-10,o),
(769,24,o),
(769,65,cs),
(763,623,ls),
(762,682,o),
(724,710,o),
(672,710,cs),
(621,710,o),
(601,681,o),
(588,650,cs),
(403,197,l),
(445,197,l),
(260,650,ls),
(247,681,o),
(227,710,o),
(176,710,cs),
(124,710,o),
(86,682,o),
(85,623,cs),
(80,65,ls),
(80,24,o),
(114,-10,o),
(159,-10,cs),
(203,-10,o),
(238,24,o),
(237,65,cs),
(227,576,l),
(146,568,l),
(346,53,ls),
(359,20,o),
(390,0,o),
(424,0,cs)
);
}
);
width = 849;
},
{
background = {
shapes = (
{
closed = 1;
nodes = (
(359,80,l),
(597,679,ls),
(603,694,o),
(620,705,o),
(637,705,cs),
(667,705,o),
(685,687,o),
(685,664,cs),
(685,37,ls),
(685,14,o),
(667,-4,o),
(644,-4,cs),
(621,-4,o),
(603,14,o),
(603,37,cs),
(610,608,l),
(640,574,l),
(423,36,ls),
(411,5,o),
(393,-10,o),
(374,-10,cs),
(355,-10,o),
(337,5,o),
(325,36,cs),
(108,574,l),
(138,608,l),
(145,37,ls),
(145,14,o),
(127,-4,o),
(104,-4,cs),
(81,-4,o),
(63,14,o),
(63,37,cs),
(63,664,ls),
(63,687,o),
(81,705,o),
(111,705,cs),
(128,705,o),
(145,694,o),
(151,679,cs),
(389,80,l)
);
},
{
attr = {
strokeWidth = 2;
};
closed = 0;
nodes = (
(103,12,l),
(103,691,l)
);
},
{
attr = {
strokeWidth = 2;
};
closed = 0;
nodes = (
(105,680,l),
(376,12,l),
(641,677,l)
);
},
{
attr = {
strokeWidth = 2;
};
closed = 0;
nodes = (
(645,691,l),
(645,12,l)
);
}
);
};
layerId = "3D52442A-254C-4C79-B742-A98FD72DF947";
shapes = (
{
closed = 1;
nodes = (
(382,0,o),
(391,7,o),
(394,15,cs),
(630,595,l),
(622,596,l),
(622,13,ls),
(622,0,o),
(632,-10,o),
(645,-10,cs),
(658,-10,o),
(668,0,o),
(668,13,cs),
(668,687,ls),
(668,700,o),
(658,710,o),
(645,710,cs,{
name = "";
}),
(633,710,o),
(625,706,o),
(620,695,cs),
(364,63,l),
(380,63,l),
(126,695,ls),
(122,704,o),
(114,710,o),
(103.576,709.993,cs),
(90,710,o),
(80,700,o),
(80,687,cs),
(80,13,ls),
(80,0,o),
(90,-10,o),
(103,-10,cs),
(116,-10,o),
(126,0,o),
(126,13,cs),
(126,590,l),
(118,589,l),
(350,15,ls),
(353,7,o),
(362,0,o),
(372,0,cs)
);
}
);
width = 748;
},
{
layerId = "CF015620-3929-45BF-A6BE-C5D8AFCEAD19";
shapes = (
{
closed = 1;
nodes = (
(437,-8,o),
(457,9,o),
(471,40,cs),
(706,587,l),
(664,604,l),
(655,40,ls),
(655,12,o),
(677,-10,o),
(706,-10,cs),
(734,-10,o),
(756,12,o),
(756,40,cs),
(755,658,ls),
(755,690,o),
(732,710,o),
(696,710,cs),
(671,710,o),
(654,695,o),
(645,676,cs),
(398,109,l),
(431,109,l),
(191,676,ls),
(183,695,o),
(166,710,o),
(140,710,cs),
(105,710,o),
(82,690,o),
(81,658,cs),
(80,40,ls),
(80,12,o),
(102,-10,o),
(131,-10,cs),
(159,-10,o),
(181,12,o),
(181,40,cs),
(172,604,l),
(130,587,l),
(358,40,ls),
(371,9,o),
(392,-8,o),
(414,-8,cs)
);
}
);
width = 836.25;
},
{
layerId = "0A7BF5CC-8360-449C-B03A-1C2F0CDBB92F";
shapes = (
{
closed = 1;
nodes = (
(406,-5,o),
(419,6,o),
(427,26,cs),
(669,594,l),
(650,605,l),
(646,22,ls),
(646,4,o),
(660,-10,o),
(678,-10,cs),
(696,-10,o),
(710,4,o),
(710,22,cs),
(710,678,ls),
(710,696,o),
(696,710,o),
(675,710,cs,{
name = "";
}),
(660,710,o),
(648,703,o),
(642,690,cs),
(380,72,l),
(403,72,l),
(147,690,ls),
(142,702,o),
(130,710,o),
(116,710,cs),
(94,710,o),
(80,696,o),
(80,678,cs),
(80,22,ls),
(80,4,o),
(94,-10,o),
(112,-10,cs),
(130,-10,o),
(144,4,o),
(144,22,cs),
(140,602,l),
(122,591,l),
(356,26,ls),
(364,6,o),
(377,-5,o),
(392,-5,cs)
);
}
);
width = 790;
}
);
},
{
glyphname = N;
lastChange = "2022-01-26 16:30:56 +0000";
layers = (
{
anchors = (
{
name = bottom;
pos = (383,0);
},
{
name = top;
pos = (383,700);
}
);
background = {
shapes = (
{
attr = {
strokeWidth = 2;
};
closed = 0;
nodes = (
(156,0,l),
(156,700,l),
(199,700,l),
(586,0,l),
(615,0,l),
(615,700,l)
);
},
{
closed = 1;
nodes = (
(212,-10,o),
(251,29,o),
(250,76,cs),
(239,641,l),
(128,625,l),
(463,40,ls),
(480,11,o),
(506,-20,o),
(571,-20,cs),
(645,-20,o),
(688,16,o),
(688,79,cs),
(688,625,ls),
(688,671,o),
(650,710,o),
(603,710,cs),
(556,710,o),
(517,671,o),
(518,625,cs),
(529,21,l),
(644,58,l),
(305,650,ls),
(288,680,o),
(262,710,o),
(189,710,cs),
(123,710,o),
(80,674,o),
(80,611,cs),
(80,76,ls),
(80,29,o),
(118,-10,o),
(165,-10,cs)
);
},
{
closed = 1;
nodes = (
(204,-8,o),
(240,28,o),
(240,72,cs),
(240,281,l),
(514,281,l),
(514,72,ls),
(514,28,o),
(550,-8,o),
(594,-8,cs),
(638,-8,o),
(674,28,o),
(674,72,cs),
(674,628,ls),
(674,672,o),
(638,708,o),
(594,708,cs),
(550,708,o),
(514,672,o),
(514,628,cs),
(514,431,l),
(240,431,l),
(240,628,ls),
(240,672,o),
(204,708,o),
(160,708,cs),
(116,708,o),
(80,672,o),
(80,628,cs),
(80,72,ls),
(80,28,o),
(116,-8,o),
(160,-8,cs)
);
}
);
};
layerId = "6242D68C-0A25-4F05-8F2A-2075F7C4A210";
shapes = (
{
closed = 1;
nodes = (
(204,-10,o),
(237,23,o),
(236,68,cs),
(224,501,l),
(184,470,l),
(496,21,ls),
(509,2,o),
(534,-11,o),
(562,-11,cs),
(605,-11,o),
(640,24,o),
(640,67,cs),
(640,632,ls),
(640,677,o),
(607,710,o),
(562,710,cs),
(516,710,o),
(483,677,o),
(484,632,cs),
(496,178,l),
(522,246,l),
(229,658,ls),
(210,685,o),
(193,710,o),
(155,710,cs),
(117,710,o),
(80,682,o),
(80,623,cs),
(80,68,ls),
(80,23,o),
(113,-10,o),
(158,-10,cs)
);
}
);
width = 720;
},
{
anchors = (
{
name = bottom;
pos = (312,0);
},
{
name = top;
pos = (312,700);
}
);
background = {
shapes = (
{
closed = 1;
nodes = (
(120,-10,o),
(133,3,o),
(133,20,cs),
(132,609,l),
(119,607,l),
(497,6,ls),
(501,-1,o),
(512,-10,o),
(529,-10,cs),
(546,-10,o),
(559,3,o),
(559,20,cs),
(559,680,ls),
(559,697,o),
(546,710,o),
(529,710,cs),
(512,710,o),
(499,697,o),
(499,680,cs),
(500,91,l),
(513,90,l),
(131,694,ls),
(126,702,o),
(118,710,o),
(104,710,cs),
(87,710,o),
(73,697,o),
(73,680,cs),
(73,20,ls),
(73,3,o),
(86,-10,o),
(103,-10,cs)
);
}
);
};
layerId = "3D52442A-254C-4C79-B742-A98FD72DF947";
shapes = (
{
closed = 1;
nodes = (
(116,-10,o),
(126,0,o),
(126,13,cs),
(125,635,l),
(115,630,l),
(502,0,ls),
(506,-6,o),
(513,-10,o),
(521,-10,cs),
(535,-10,o),
(545,0,o),
(545,13,cs),
(545,687,ls),
(545,700,o),
(535,710,o),
(522,710,cs),
(509,710,o),
(499,700,o),
(499,687,cs),
(500,67,l),
(510,70,l),
(123,700,ls),
(119,706,o),
(112,710,o),
(102,710,cs),
(88,710,o),
(80,700,o),
(80,687,cs),
(80,13,ls),
(80,0,o),
(90,-10,o),
(103,-10,cs)
);
}
);
width = 625;
},
{
anchors = (
{
name = bottom;
pos = (343,0);
},
{
name = top;
pos = (343,700);
}
);
layerId = "CF015620-3929-45BF-A6BE-C5D8AFCEAD19";
shapes = (
{
closed = 1;
nodes = (
(160,-10,o),
(181,11,o),
(181,40,cs),
(175,585,l),
(124,598,l),
(484,25,ls),
(497,4,o),
(512,-10,o),
(543,-10,cs),
(571,-10,o),
(593,12,o),
(593,40,cs),
(593,660,ls),
(593,689,o),
(572,710,o),
(543,710,cs),
(513,710,o),
(492,689,o),
(492,660,cs),
(499,94,l),
(517,153,l),
(190,670,ls),
(176,693,o),
(162,710,o),
(130,710,cs),
(103,710,o),
(80,690,o),
(80,658,cs),
(80,40,ls),
(80,11,o),
(101,-10,o),
(130,-10,cs)
);
}
);
width = 672.75;
},
{
anchors = (
{
name = bottom;
pos = (321,0);
},
{
name = top;
pos = (321,700);
}
);
layerId = "0A7BF5CC-8360-449C-B03A-1C2F0CDBB92F";
shapes = (
{
closed = 1;
nodes = (
(131,-10,o),
(144,4,o),
(144,22,cs),
(142,624,l),
(110,636,l),
(491,13,ls),
(500,-1,o),
(509,-10,o),
(529,-10,cs),
(547,-10,o),
(561,4,o),
(561,22,cs),
(561,678,ls),
(561,697,o),
(548,710,o),
(529,710,cs),
(511,710,o),
(497,697,o),
(497,678,cs),
(500,67,l),
(513,96,l),
(150,687,ls),
(142,701,o),
(132,710,o),
(112,710,cs),
(93,710,o),
(80,696,o),
(80,678,cs),
(80,22,ls),
(80,4,o),
(94,-10,o),
(112,-10,cs)
);
}
);
width = 641;
}
);
metricLeft = H;
metricRight = H;
unicode = 78;
},
{
glyphname = N.ss02;
lastChange = "2022-01-26 16:30:56 +0000";
layers = (
{
background = {
shapes = (
{
closed = 1;
nodes = (
(121,-10,o),
(156,25,o),
(156,68,cs),
(156,632,ls),
(156,675,o),
(121,710,o),
(78,710,cs),
(35,710,o),
(0,675,o),
(0,632,cs),
(0,68,ls),
(0,25,o),
(35,-10,o),
(78,-10,cs)
);
},
{
closed = 1;
nodes = (
(561,-10,o),
(596,25,o),
(596,68,cs),
(596,632,ls),
(596,675,o),
(561,710,o),
(518,710,cs),
(475,710,o),
(440,675,o),
(440,632,cs),
(440,68,ls),
(440,25,o),
(475,-10,o),
(518,-10,cs)
);
},
{
closed = 1;
nodes = (
(525,281,l),
(525,431,l),
(108,431,l),
(108,281,l)
);
}
);
};
layerId = "6242D68C-0A25-4F05-8F2A-2075F7C4A210";
shapes = (
{
closed = 1;
nodes = (
(121,-10,o),
(157,25,o),
(156,68,cs),
(148,490,l),
(110,459,l),
(418,11,ls),
(430,-7,o),
(454,-21,o),
(482,-21,cs),
(525,-21,o),
(560,14,o),
(560,57,cs),
(560,641,ls),
(560,684,o),
(525,719,o),
(482,719,cs),
(439,719,o),
(403,684,o),
(404,641,cs),
(412,169,l),
(441,224,l),
(141,678,ls),
(127,700,o),
(103,710,o),
(78,710,cs),
(35,710,o),
(0,675,o),
(0,632,cs),
(0,68,ls),
(0,25,o),
(35,-10,o),
(78,-10,cs)
);
}
);
width = 560;
},
{
layerId = "3D52442A-254C-4C79-B742-A98FD72DF947";
shapes = (
{
closed = 1;
nodes = (
(116,-10,o),
(126,0,o),
(126,13,cs),
(125,635,l),
(115,630,l),
(515,0,ls),
(519,-6,o),
(526,-10,o),
(534,-10,cs),
(548,-10,o),
(558,0,o),
(558,13,cs),
(558,687,ls),
(558,700,o),
(548,710,o),
(535,710,cs),
(522,710,o),
(512,700,o),
(512,687,cs),
(513,67,l),
(523,70,l),
(123,700,ls),
(119,706,o),
(112,710,o),
(102,710,cs),
(88,710,o),
(80,700,o),
(80,687,cs),
(80,13,ls),
(80,0,o),
(90,-10,o),
(103,-10,cs)
);
}
);
width = 638;
},
{
layerId = "CF015620-3929-45BF-A6BE-C5D8AFCEAD19";
shapes = (
{
closed = 1;
nodes = (
(139,-6,o),
(161,15,o),
(161,44,cs),
(156,579,l),
(111,592,l),
(485,33,ls),
(498,13,o),
(521,-10,o),
(554,-9,cs),
(586,-8,o),
(608,13,o),
(608,41,cs),
(608,658,ls),
(608,687,o),
(587,709,o),
(558,709,cs),
(529,709,o),
(507,687,o),
(508,658,cs),
(510,96,l),
(527,141,l),
(173,671,ls),
(159,693,o),
(138,706,o),
(113,706,cs),
(82,706,o),
(60,684,o),
(60,656,cs),
(60,44,ls),
(60,15,o),
(82,-6,o),
(110,-6,cs)
);
}
);
width = 668;
},
{
layerId = "0A7BF5CC-8360-449C-B03A-1C2F0CDBB92F";
shapes = (
{
closed = 1;
nodes = (
(131,-8,o),
(144,6,o),
(144,25,cs),
(142,622,l),
(113,633,l),
(511,20,ls),
(520,7,o),
(535,-8,o),
(556,-8,cs),
(577,-7,o),
(591,7,o),
(591,25,cs),
(591,676,ls),
(591,694,o),
(578,708,o),
(559,708,cs),
(541,708,o),
(527,694,o),
(527,676,cs),
(528,69,l),
(540,92,l),
(153,685,ls),
(144,698,o),
(131,708,o),
(114,708,cs),
(93,708,o),
(80,694,o),
(80,676,cs),
(80,25,ls),
(80,6,o),
(94,-8,o),
(112,-8,cs)
);
}
);
width = 671;
}
);
},
{
glyphname = Eng;
lastChange = "2022-01-26 16:30:56 +0000";
layers = (
{
anchors = (
{
name = bottom;
pos = (1067,0);
},
{
name = top;
pos = (1146,700);
}
);
layerId = "6242D68C-0A25-4F05-8F2A-2075F7C4A210";
shapes = (
{
ref = N;
},
{
closed = 1;
nodes = (
(583,-215,o),
(640,-126,o),
(640,27,cs),
(640,202,l),
(395,172,l),
(409,144,o),
(467,64,o),
(490,29,cs),
(508,2,o),
(506,-76,o),
(447,-76,cs),
(424,-76,o),
(411,-64,o),
(407,-46,cs),
(398,-3,o),
(363,27,o),
(325,27,cs),
(286,27,o),
(251,-3,o),
(251,-46,cs),
(251,-126,o),
(320,-215,o),
(444,-215,cs)
);
}
);
width = 720;
},
{
anchors = (
{
name = bottom;
pos = (862,0);
},
{
name = top;
pos = (1001,700);
}
);
layerId = "3D52442A-254C-4C79-B742-A98FD72DF947";
shapes = (
{
ref = N;
},
{
closed = 1;
nodes = (
(487,-215,o),
(545,-152,o),
(545,-43,cs),
(545,87,l),
(466,61,l),
(492,13,o),
(499,-18,o),
(499,-53,cs),
(499,-131,o),
(458,-170,o),
(400,-170,cs),
(331,-170,o),
(287,-117,o),
(287,-6,cs),
(287,7,o),
(277,17,o),
(264,17,cs),
(251,17,o),
(241,7,o),
(241,-6,cs),
(241,-139,o),
(301,-215,o),
(396,-215,cs)
);
}
);
width = 625;
},
{
anchors = (
{
name = bottom;
pos = (947,0);
},
{
name = top;
pos = (1064,700);
}
);
layerId = "CF015620-3929-45BF-A6BE-C5D8AFCEAD19";
shapes = (
{
alignment = -1;
ref = N;
},
{
closed = 1;
nodes = (
(546,-215,o),
(593,-112,o),
(593,0,cs),
(593,77,l),
(455,69,l),
(471,41,o),
(490,-2,o),
(495,-25,cs),
(500,-69,o),
(474,-121,o),
(417,-121,cs),
(366,-121,o),
(340,-82,o),
(339,-34,cs),
(337,-6,o),
(316,15,o),
(289,15,cs),
(262,15,o),
(240,-6,o),
(240,-44,cs),
(240,-119,o),
(298,-215,o),
(421,-215,cs)
);
}
);
width = 672.75;
},
{
anchors = (
{
name = bottom;
pos = (885,0);
},
{
name = top;
pos = (1019,700);
}
);
layerId = "0A7BF5CC-8360-449C-B03A-1C2F0CDBB92F";
shapes = (
{
alignment = -1;
ref = N;
},
{
closed = 1;
nodes = (
(511,-215,o),
(561,-130,o),
(561,-26,cs),
(561,61,l),
(471,48,l),
(492,10,o),
(498,-21,o),
(498,-48,cs),
(498,-112,o),
(461,-153,o),
(404,-153,cs),
(339,-153,o),
(302,-103,o),
(302,-18,cs),
(302,0,o),
(289,14,o),
(271,14,cs),
(253,14,o),
(239,0,o),
(239,-25,cs),
(239,-128,o),
(296,-215,o),
(405,-215,cs)
);
}
);
width = 641;
}
);
metricLeft = "=N";
metricRight = "=N";
unicode = 330;
},
{
glyphname = O;
lastChange = "2022-01-26 16:30:56 +0000";
layers = (
{
anchors = (
{
name = bottom;
pos = (371,0);
},
{
name = center;
pos = (371,350);
},
{
name = ogonek;
pos = (440,0);
},
{
name = top;
pos = (371,700);
},
{
name = topleft;
pos = (0,700);
},
{
name = topright;
pos = (742,700);
}
);
layerId = "6242D68C-0A25-4F05-8F2A-2075F7C4A210";
shapes = (
{
closed = 1;
nodes = (
(553,-15,o),
(686,133,o),
(686,349,cs),
(686,563,o),
(558,715,o),
(376,715,cs),
(194,715,o),
(56,563,o),
(56,349,cs),
(56,133,o),
(189,-15,o),
(371,-15,cs)
);
},
{
closed = 1;
nodes = (
(275,125,o),
(213,217,o),
(213,349,cs),
(213,479,o),
(275,575,o),
(371,575,cs),
(467,575,o),
(529,479,o),
(529,349,cs),
(529,217,o),
(467,125,o),
(371,125,cs)
);
}
);
width = 742;
},
{
anchors = (
{
name = bottom;
pos = (335,0);
},
{
name = center;
pos = (335,350);
},
{
name = ogonek;
pos = (395,0);
},
{
name = top;
pos = (335,700);
},
{
name = topleft;
pos = (55,700);
},
{
name = topright;
pos = (615,700);
}
);
layerId = "3D52442A-254C-4C79-B742-A98FD72DF947";
shapes = (
{
closed = 1;
nodes = (
(498,-15,o),
(610,137,o),
(610,347,cs),
(610,556,o),
(498,715,o),
(328,715,cs),
(157,715,o),
(45,556,o),
(45,347,cs),
(45,137,o),
(157,-15,o),
(328,-15,cs)
);
},
{
closed = 1;
nodes = (
(184,28,o),
(91,156,o),
(91,347,cs),
(91,538,o),
(184,671,o),
(328,671,cs),
(471,671,o),
(564,538,o),
(564,347,cs),
(564,156,o),
(471,28,o),
(328,28,cs)
);
}
);
width = 655;
},
{
anchors = (
{
name = bottom;
pos = (346,0);
},
{
name = center;
pos = (346,350);
},
{
name = ogonek;
pos = (430,0);
},
{
name = top;
pos = (346,700);
},
{
name = topleft;
pos = (11,700);
},
{
name = topright;
pos = (682,700);
}
);
layerId = "CF015620-3929-45BF-A6BE-C5D8AFCEAD19";
shapes = (
{
closed = 1;
nodes = (
(524,-15,o),
(638,129,o),
(638,349,cs),
(638,568,o),
(518,715,o),
(348,715,cs),
(178,715,o),
(55,568,o),
(55,349,cs),
(55,129,o),
(169,-15,o),
(346,-15,cs)
);
},
{
closed = 1;
nodes = (
(228,76,o),
(155,186,o),
(155,349,cs),
(155,509,o),
(228,624,o),
(346,624,cs),
(465,624,o),
(537,509,o),
(537,349,cs),
(537,186,o),
(465,76,o),
(346,76,cs)
);
}
);
width = 692.5;
},
{
anchors = (
{
name = bottom;
pos = (337,0);
},
{
name = center;
pos = (337,350);
},
{
name = ogonek;
pos = (411,0);
},
{
name = top;
pos = (337,700);
},
{
name = topleft;
pos = (35,700);
},
{
name = topright;
pos = (639,700);
}
);
layerId = "0A7BF5CC-8360-449C-B03A-1C2F0CDBB92F";
shapes = (
{
closed = 1;
nodes = (
(506,-15,o),
(616,132,o),
(616,348,cs),
(616,563,o),
(501,715,o),
(333,715,cs),
(165,715,o),
(50,563,o),
(50,348,cs),
(50,132,o),
(160,-15,o),
(333,-15,cs)
);
},
{
closed = 1;
nodes = (
(198,44,o),
(114,166,o),
(114,348,cs),
(114,529,o),
(198,656,o),
(333,656,cs),
(468,656,o),
(552,529,o),
(552,348,cs),
(552,166,o),
(468,44,o),
(333,44,cs)
);
}
);
width = 665.5;
}
);
unicode = 79;
},
{
glyphname = O.ss02;
lastChange = "2022-01-26 16:30:56 +0000";
layers = (
{
anchors = (
{
name = bottom;
pos = (368,0);
},
{
name = center;
pos = (368,350);
},
{
name = ogonek;
pos = (646,10);
},
{
name = top;
pos = (368,700);
},
{
name = topleft;
pos = (41,700);
},
{
name = topright;
pos = (695,700);
}
);
layerId = "6242D68C-0A25-4F05-8F2A-2075F7C4A210";
shapes = (
{
closed = 1;
nodes = (
(507,218,o),
(454,126,o),
(361,126,cs),
(270,126,o),
(213,218,o),
(213,350,cs),
(213,483,o),
(270,575,o),
(361,575,cs),
(454,575,o),
(507,483,o),
(507,350,cs)
);
},
{
closed = 1;
nodes = (
(664,571,o),
(549,715,o),
(362,715,cs),
(176,715,o),
(56,571,o),
(56,350,cs),
(56,130,o),
(174,-14,o),
(360,-14,cs),
(547,-14,o),
(664,130,o),
(664,350,cs)
);
}
);
width = 720;
},
{
anchors = (
{
name = bottom;
pos = (332,0);
},
{
name = center;
pos = (332,350);
},
{
name = ogonek;
pos = (610,10);
},
{
name = top;
pos = (332,700);
},
{
name = topleft;
pos = (5,700);
},
{
name = topright;
pos = (659,700);
}
);
layerId = "3D52442A-254C-4C79-B742-A98FD72DF947";
shapes = (
{
closed = 1;
nodes = (
(557,161,o),
(473,30,o),
(326,30,cs),
(180,30,o),
(91,161,o),
(91,350,cs),
(91,539,o),
(180,671,o),
(326,671,cs),
(473,671,o),
(557,539,o),
(557,350,cs)
);
},
{
closed = 1;
nodes = (
(603,571,o),
(498,715,o),
(326,715,cs),
(155,715,o),
(45,571,o),
(45,350,cs),
(45,130,o),
(153,-14,o),
(324,-14,cs),
(496,-14,o),
(603,130,o),
(603,350,cs)
);
}
);
width = 648;
},
{
anchors = (
{
name = bottom;
pos = (348,0);
},
{
name = center;
pos = (348,350);
},
{
name = ogonek;
pos = (626,10);
},
{
name = top;
pos = (348,700);
},
{
name = topleft;
pos = (21,700);
},
{
name = topright;
pos = (675,700);
}
);
layerId = "CF015620-3929-45BF-A6BE-C5D8AFCEAD19";
shapes = (
{
closed = 1;
nodes = (
(521,189,o),
(456,77,o),
(342,77,cs),
(228,77,o),
(158,189,o),
(158,350,cs),
(158,512,o),
(228,624,o),
(342,624,cs),
(456,624,o),
(521,512,o),
(521,350,cs)
);
},
{
closed = 1;
nodes = (
(625,571,o),
(518,715,o),
(342,715,cs),
(167,715,o),
(55,571,o),
(55,350,cs),
(55,130,o),
(165,-14,o),
(340,-14,cs),
(516,-14,o),
(625,130,o),
(625,350,cs)
);
}
);
width = 679.5;
},
{
anchors = (
{
name = bottom;
pos = (337,0);
},
{
name = center;
pos = (337,350);
},
{
name = ogonek;
pos = (615,10);
},
{
name = top;
pos = (337,700);
},
{
name = topleft;
pos = (10,700);
},
{
name = topright;
pos = (664,700);
}
);
layerId = "0A7BF5CC-8360-449C-B03A-1C2F0CDBB92F";
shapes = (
{
closed = 1;
nodes = (
(542,170,o),
(465,46,o),
(331,46,cs),
(197,46,o),
(116,170,o),
(116,350,cs),
(116,530,o),
(197,656,o),
(331,656,cs),
(465,656,o),
(542,530,o),
(542,350,cs)
);
},
{
closed = 1;
nodes = (
(608,571,o),
(503,715,o),
(331,715,cs),
(160,715,o),
(50,571,o),
(50,350,cs),
(50,130,o),
(158,-14,o),
(329,-14,cs),
(501,-14,o),
(608,130,o),
(608,350,cs)
);
}
);
width = 657;
}
);
metricLeft = "=O";
metricRight = "=O";
},
{
glyphname = Oogonek;
lastChange = "2022-01-26 16:30:56 +0000";
layers = (
{
layerId = "6242D68C-0A25-4F05-8F2A-2075F7C4A210";
shapes = (
{
ref = O;
},
{
closed = 1;
nodes = (
(430,80,l),
(424,53,ls),
(412,1,o),
(298,0,o),
(298,-108,cs),
(298,-178,o),
(356,-215,o),
(434,-215,cs),
(483,-215,o),
(527,-198,o),
(552,-172,cs),
(569,-155,o),
(575,-137,o),
(575,-119,cs),
(575,-80,o),
(544,-57,o),
(509,-57,cs),
(489,-57,o),
(472,-65,o),
(458,-77,cs),
(450,-84,o),
(435,-94,o),
(422,-94,cs),
(414,-94,o),
(408,-89,o),
(408,-81,cs),
(408,-48,o),
(510,3,o),
(554,45,c),
(548,75,l)
);
}
);
width = 742;
},
{
background = {
shapes = (
{
closed = 1;
nodes = (
(449,-137,o),
(439,-143,o),
(422,-143,cs),
(394,-143,o),
(384,-126,o),
(384,-100,cs),
(384,-38,o),
(440,0,o),
(460,17,cs),
(481,35,l),
(487,79,l),
(450,54,ls),
(363,-5,o),
(339,-54,o),
(339,-99,cs),
(339,-148,o),
(369,-184,o),
(420,-184,cs),
(445,-184,o),
(466,-176,o),
(486,-157,cs),
(501,-144,o),
(506,-132,o),
(506,-124,cs),
(506,-112,o),
(496,-106,o),
(487,-106,cs),
(475,-106,o),
(466,-117,o),
(461,-123,cs)
);
}
);
};
layerId = "3D52442A-254C-4C79-B742-A98FD72DF947";
shapes = (
{
ref = O;
},
{
closed = 1;
nodes = (
(453,56,l),
(407,13,ls),
(376,-16,o),
(323,-62,o),
(323,-128,cs),
(323,-184,o),
(365,-215,o),
(415,-215,cs),
(452,-215,o),
(479,-200,o),
(498,-175,cs),
(502,-169,o),
(506,-164,o),
(506,-155,cs),
(506,-143,o),
(498,-136,o),
(488,-136,cs),
(478,-136,o),
(473,-142,o),
(468,-147,cs),
(449,-166,o),
(436,-174,o),
(417,-174,cs),
(386,-174,o),
(369,-155,o),
(369,-129,cs),
(369,-88,o),
(404,-38,o),
(450,5,cs),
(489,41,l)
);
}
);
width = 655;
},
{
layerId = "CF015620-3929-45BF-A6BE-C5D8AFCEAD19";
shapes = (
{
alignment = -1;
ref = O;
},
{
closed = 1;
nodes = (
(438,66,l),
(405,31,ls),
(385,3,o),
(316,-40,o),
(316,-116,cs),
(316,-181,o),
(367,-214,o),
(425,-215,cs),
(454,-216,o),
(490,-209,o),
(519,-178,cs),
(529,-168,o),
(535,-154,o),
(535,-140,cs),
(535,-117,o),
(518,-98,o),
(493,-98,cs),
(479,-98,o),
(468,-104,o),
(459,-112,cs),
(446,-125,o),
(434,-129,o),
(426,-129,cs),
(404,-129,o),
(400,-115,o),
(400,-105,cs),
(400,-65,o),
(471,-3,o),
(515,39,cs),
(532,65,l)
);
}
);
width = 692.5;
},
{
layerId = "0A7BF5CC-8360-449C-B03A-1C2F0CDBB92F";
shapes = (
{
alignment = -1;
ref = O;
},
{
closed = 1;
nodes = (
(447,59,l),
(403,18,ls),
(376,-6,o),
(323,-58,o),
(323,-124,cs),
(323,-183,o),
(368,-214,o),
(419,-215,cs),
(448,-216,o),
(478,-206,o),
(503,-178,cs),
(509,-171,o),
(514,-162,o),
(514,-151,cs),
(514,-136,o),
(504,-124,o),
(488,-124,cs),
(477,-124,o),
(470,-130,o),
(464,-136,cs),
(447,-153,o),
(435,-157,o),
(422,-157,cs),
(394,-157,o),
(383,-140,o),
(383,-121,cs),
(383,-80,o),
(431,-22,o),
(476,21,cs),
(508,51,l)
);
}
);
width = 665.5;
}
);
metricLeft = "=O";
metricRight = "=O";
unicode = 490;
},
{
glyphname = Oslash;
lastChange = "2022-01-26 16:30:56 +0000";
layers = (
{
anchors = (
{
name = bottom;
pos = (265,0);
},
{
name = top;
pos = (265,700);
}
);
layerId = "6242D68C-0A25-4F05-8F2A-2075F7C4A210";
shapes = (
{
attr = {
lineCapEnd = "2";
lineCapStart = "2";
strokeHeight = 130;
strokeWidth = 130;
};
closed = 0;
nodes = (
(564,730,l),
(15,-16,l)
);
},
{
pos = (-78,0);
ref = O;
}
);
width = 600;
},
{
anchors = (
{
name = bottom;
pos = (302,0);
},
{
name = top;
pos = (302,700);
}
);
layerId = "3D52442A-254C-4C79-B742-A98FD72DF947";
shapes = (
{
attr = {
lineCapEnd = "2";
lineCapStart = "2";
strokeHeight = 45;
strokeWidth = 45;
};
closed = 0;
nodes = (
(571,730,l),
(22,-16,l)
);
},
{
pos = (-41,0);
ref = O;
}
);
width = 600;
},
{
anchors = (
{
name = bottom;
pos = (333,0);
},
{
name = top;
pos = (333,700);
}
);
layerId = "CF015620-3929-45BF-A6BE-C5D8AFCEAD19";
shapes = (
{
attr = {
lineCapEnd = "2";
lineCapStart = "2";
strokeHeight = 83.5;
strokeWidth = 83.5;
};
closed = 0;
nodes = (
(609,730,l),
(60,-16,l)
);
},
{
alignment = -1;
pos = (-11,0);
ref = O;
}
);
width = 681.75;
},
{
anchors = (
{
name = bottom;
pos = (329,0);
},
{
name = top;
pos = (329,700);
}
);
layerId = "0A7BF5CC-8360-449C-B03A-1C2F0CDBB92F";
shapes = (
{
attr = {
lineCapEnd = "2";
lineCapStart = "2";
strokeHeight = 56.5;
strokeWidth = 56.5;
};
closed = 0;
nodes = (
(598,730,l),
(49,-16,l)
);
},
{
alignment = -1;
pos = (-15,0);
ref = O;
}
);
width = 654.5;
}
);
unicode = 216;
},
{
glyphname = OE;
lastChange = "2022-01-26 16:30:56 +0000";
layers = (
{
anchors = (
{
name = bottom;
pos = (467,0);
},
{
name = top;
pos = (467,700);
}
);
background = {
shapes = (
{
closed = 1;
nodes = (
(473,-17,o),
(606,133,o),
(606,348,cs),
(606,563,o),
(478,712,o),
(296,712,cs),
(114,712,o),
(-24,563,o),
(-24,348,cs),
(-24,133,o),
(109,-17,o),
(291,-17,cs)
);
},
{
closed = 1;
nodes = (
(195,123,o),
(133,217,o),
(133,348,cs),
(133,479,o),
(195,572,o),
(291,572,cs),
(387,572,o),
(449,479,o),
(449,348,cs),
(449,217,o),
(387,123,o),
(291,123,cs)
);
}
);
};
layerId = "6242D68C-0A25-4F05-8F2A-2075F7C4A210";
shapes = (
{
closed = 1;
nodes = (
(423,-15,o),
(482,7,o),
(524,40,cs),
(571,77,o),
(598,128,o),
(598,178,c),
(453,152,l),
(437,141,o),
(409,125,o),
(362,125,cs),
(273,125,o),
(213,207,o),
(213,349,cs),
(213,486,o),
(273,578,o),
(371,576,cs),
(418,575,o),
(435,563,o),
(451,550,c),
(572,616,l),
(534,677,o),
(443,715,o),
(363,715,cs),
(178,715,o),
(56,562,o),
(56,352,cs),
(56,162,o),
(154,-15,o),
(352,-15,cs)
);
},
{
closed = 1;
nodes = (
(821,0,ls),
(862,0,o),
(891,29,o),
(891,70,cs),
(891,111,o),
(862,140,o),
(821,140,cs),
(606,140,l),
(606,285,l),
(769,285,ls),
(810,285,o),
(839,314,o),
(839,355,cs),
(839,396,o),
(810,425,o),
(769,425,cs),
(606,425,l),
(606,560,l),
(808,560,ls),
(849,560,o),
(878,589,o),
(878,630,cs),
(878,671,o),
(849,700,o),
(808,700,cs),
(528,700,ls),
(483,700,o),
(450,667,o),
(450,622,cs),
(450,77,ls),
(450,31,o),
(483,-1,o),
(528,-1,cs)
);
}
);
width = 933;
},
{
anchors = (
{
name = bottom;
pos = (474,0);
},
{
name = top;
pos = (474,700);
}
);
layerId = "3D52442A-254C-4C79-B742-A98FD72DF947";
shapes = (
{
closed = 1;
nodes = (
(454,-15,o),
(516,59,o),
(539,158,cs),
(540,161,o),
(540,165,o),
(541,168,c),
(498,154,l),
(479,93,o),
(433,29,o),
(326,29,cs),
(174,29,o),
(91,162,o),
(91,354,cs),
(91,533,o),
(174,672,o),
(322,672,cs),
(412,672,o),
(468,614,o),
(499,545,c),
(530,568,l),
(509,638,o),
(447,716,o),
(325,716,cs),
(148,716,o),
(45,557,o),
(45,350,cs),
(45,134,o),
(148,-15,o),
(328,-15,cs)
);
},
{
closed = 1;
nodes = (
(865,0,ls),
(878,0,o),
(888,10,o),
(888,23,cs),
(888,36,o),
(878,46,o),
(865,46,cs),
(543,46,l),
(543,344,l),
(837,344,ls),
(850,344,o),
(860,354,o),
(860,367,cs),
(860,380,o),
(850,390,o),
(837,390,cs),
(543,390,l),
(543,654,l),
(867,654,ls),
(880,654,o),
(890,664,o),
(890,677,cs),
(890,690,o),
(880,700,o),
(867,700,cs),
(520,700,ls),
(507,700,o),
(497,690,o),
(497,677,cs),
(497,23,ls),
(497,10,o),
(507,0,o),
(520,0,cs)
);
}
);
width = 948;
},
{
anchors = (
{
name = bottom;
pos = (457,0);
},
{
name = top;
pos = (457,700);
}
);
layerId = "CF015620-3929-45BF-A6BE-C5D8AFCEAD19";
shapes = (
{
closed = 1;
nodes = (
(439,-15,o),
(517,36,o),
(544,120,cs),
(557,135,o),
(564,151,o),
(564,168,c),
(469,141,l),
(453,105,o),
(400,76,o),
(343,76,cs),
(229,76,o),
(155,188,o),
(155,350,cs),
(155,510,o),
(224,625,o),
(345,624,cs),
(402,624,o),
(446,601,o),
(468,566,c),
(553,581,l),
(529,664,o),
(441,715,o),
(343,715,cs),
(170,715,o),
(55,562,o),
(55,351,cs),
(55,145,o),
(162,-15,o),
(341,-15,cs)
);
},
{
closed = 1;
nodes = (
(824,0,ls),
(851,0,o),
(870,19,o),
(870,46,cs),
(870,73,o),
(851,92,o),
(824,92,cs),
(568,92,l),
(568,314,l),
(781,314,ls),
(808,314,o),
(827,333,o),
(827,360,cs),
(827,386,o),
(808,406,o),
(781,406,cs),
(568,406,l),
(568,608,l),
(813,608,ls),
(840,608,o),
(859,627,o),
(859,654,cs),
(859,681,o),
(840,700,o),
(813,700,cs),
(518,700,ls),
(488,700,o),
(467,679,o),
(467,650,cs),
(467,50,ls),
(467,21,o),
(488,0,o),
(518,0,cs)
);
}
);
width = 914.25;
},
{
anchors = (
{
name = bottom;
pos = (464,0);
},
{
name = top;
pos = (464,700);
}
);
layerId = "0A7BF5CC-8360-449C-B03A-1C2F0CDBB92F";
shapes = (
{
closed = 1;
nodes = (
(449,-15,o),
(522,53,o),
(545,152,cs),
(546,158,o),
(546,162,o),
(547,167,c),
(486,146,l),
(469,93,o),
(415,45,o),
(332,45,cs),
(194,45,o),
(114,172,o),
(114,352,cs),
(114,526,o),
(191,656,o),
(329,656,cs),
(404,656,o),
(459,614,o),
(487,558,c),
(538,569,l),
(518,649,o),
(444,716,o),
(331,716,cs),
(158,716,o),
(50,560,o),
(50,351,cs),
(50,137,o),
(157,-15,o),
(333,-15,cs)
);
},
{
closed = 1;
nodes = (
(845,0,ls),
(863,0,o),
(876,13,o),
(876,31,cs),
(876,48,o),
(863,61,o),
(845,61,cs),
(549,61,l),
(549,334,l),
(811,334,ls),
(829,334,o),
(842,347,o),
(842,364,cs),
(842,382,o),
(829,395,o),
(811,395,cs),
(549,395,l),
(549,639,l),
(841,639,ls),
(859,639,o),
(872,652,o),
(872,670,cs),
(872,687,o),
(859,700,o),
(841,700,cs),
(517,700,ls),
(499,700,o),
(485,687,o),
(485,668,cs),
(485,32,ls),
(485,14,o),
(499,0,o),
(517,0,cs)
);
}
);
width = 928;
}
);
metricLeft = "=O";
metricRight = "=E";
unicode = 338;
},
{
glyphname = P;
lastChange = "2022-01-26 16:30:56 +0000";
layers = (
{
anchors = (
{
name = bottom;
pos = (371,0);
},
{
name = top;
pos = (371,700);
}
);
background = {
shapes = (
{
attr = {
strokeWidth = 2;
};
closed = 0;
nodes = (
(266,618,l),
(447,618,ls),
(521,618,o),
(580,559,o),
(580,485,c),
(580,413,o),
(521,353,o),
(447,353,cs),
(266,353,l)
);
},
{
closed = 1;
nodes = (
(262,-10,o),
(298,26,o),
(298,70,cs),
(298,700,l),
(218,700,ls),
(174,700,o),
(138,664,o),
(138,620,cs),
(138,70,ls),
(138,26,o),
(174,-10,o),
(218,-10,cs)
);
}
);
};
layerId = "6242D68C-0A25-4F05-8F2A-2075F7C4A210";
shapes = (
{
closed = 1;
nodes = (
(201,-10,o),
(236,25,o),
(236,68,cs),
(236,700,l),
(158,700,ls,{
name = "";
}),
(115,700,o),
(80,665,o),
(80,622,cs),
(80,68,ls),
(80,25,o),
(115,-10,o),
(158,-10,cs)
);
},
{
closed = 1;
nodes = (
(386,255,ls),
(506,255,o),
(606,343,o),
(606,477,cs),
(606,610,o),
(507,700,o),
(374,700,cs),
(206,700,l),
(206,560,l),
(360,560,ls),
(414,560,o),
(446,528,o),
(446,474,cs),
(446,428,o),
(413,395,o),
(368,395,cs),
(206,395,l),
(206,255,l)
);
}
);
width = 616;
},
{
anchors = (
{
name = bottom;
pos = (234,0);
},
{
name = top;
pos = (231,700);
}
);
background = {
shapes = (
{
attr = {
strokeWidth = 2;
};
closed = 0;
nodes = (
(76,677,l),
(311,677,ls),
(407,677,o),
(484,599,o),
(484,503,c),
(484,408,o),
(407,329,o),
(311,329,cs),
(76,329,l)
);
}
);
};
layerId = "3D52442A-254C-4C79-B742-A98FD72DF947";
shapes = (
{
closed = 1;
nodes = (
(116,-10,o),
(126,0,o),
(126,13,cs),
(126,700,l),
(103,700,ls),
(90,700,o),
(80,690,o),
(80,677,cs),
(80,13,ls),
(80,0,o),
(90,-10,o),
(103,-10,cs)
);
},
{
closed = 1;
nodes = (
(325,306,ls),
(441,306,o),
(528,396,o),
(528,503,cs),
(528,611,o),
(441,700,o),
(332,700,cs),
(118,700,l),
(118,654,l),
(332,654,ls),
(418,654,o),
(482,590,o),
(482,503,cs),
(482,417,o),
(418,352,o),
(325,352,cs),
(118,352,l),
(118,306,l)
);
}
);
width = 538;
},
{
anchors = (
{
name = bottom;
pos = (310,0);
},
{
name = top;
pos = (310,700);
}
);
layerId = "CF015620-3929-45BF-A6BE-C5D8AFCEAD19";
shapes = (
{
closed = 1;
nodes = (
(159,-10,o),
(181,12,o),
(181,40,cs),
(181,700,l),
(130,700,ls,{
name = "";
}),
(102,700,o),
(80,678,o),
(80,650,cs),
(80,40,ls),
(80,12,o),
(102,-10,o),
(130,-10,cs)
);
},
{
closed = 1;
nodes = (
(377,278,ls),
(486,278,o),
(574,365,o),
(574,490,cs),
(574,612,o),
(484,700,o),
(361,700,cs),
(139,700,l),
(139,607,l),
(358,607,ls),
(428,607,o),
(473,560,o),
(473,489,cs),
(473,418,o),
(428,371,o),
(360,371,cs),
(139,371,l),
(139,278,l)
);
}
);
width = 583.75;
},
{
anchors = (
{
name = bottom;
pos = (262,0);
},
{
name = top;
pos = (260,700);
}
);
layerId = "0A7BF5CC-8360-449C-B03A-1C2F0CDBB92F";
shapes = (
{
closed = 1;
nodes = (
(131,-10,o),
(144,4,o),
(144,22,cs),
(144,700,l),
(112,700,ls),
(94,700,o),
(80,686,o),
(80,668,cs),
(80,22,ls),
(80,4,o),
(94,-10,o),
(112,-10,cs)
);
},
{
closed = 1;
nodes = (
(350,296,ls),
(460,296,o),
(546,384,o),
(546,499,cs),
(546,612,o),
(459,700,o),
(345,700,cs),
(118,700,l),
(118,638,l),
(345,638,ls),
(426,638,o),
(482,580,o),
(482,499,cs),
(482,416,o),
(426,358,o),
(341,358,cs),
(118,358,l),
(118,296,l)
);
}
);
width = 555.5;
}
);
metricLeft = H;
unicode = 80;
},
{
glyphname = P.ss02;
lastChange = "2022-01-26 16:30:56 +0000";
layers = (
{
layerId = "6242D68C-0A25-4F05-8F2A-2075F7C4A210";
shapes = (
{
closed = 1;
nodes = (
(201,-10,o),
(236,25,o),
(236,68,cs),
(236,700,l),
(158,700,ls,{
name = "";
}),
(115,700,o),
(80,665,o),
(80,622,cs),
(80,68,ls),
(80,25,o),
(115,-10,o),
(158,-10,cs)
);
},
{
closed = 1;
nodes = (
(351,193,ls),
(494,193,o),
(609,310,o),
(609,442,cs),
(609,584,o),
(493,700,o),
(351,700,cs),
(185,700,l),
(185,560,l),
(331,560,ls),
(406,560,o),
(449,521,o),
(449,454,cs),
(449,379,o),
(406,335,o),
(331,334,cs),
(185,333,l),
(185,193,l)
);
}
);
width = 649;
},
{
layerId = "3D52442A-254C-4C79-B742-A98FD72DF947";
shapes = (
{
closed = 1;
nodes = (
(116,-10,o),
(126,0,o),
(126,13,cs),
(126,700,l),
(103,700,ls),
(90,700,o),
(80,690,o),
(80,677,cs),
(80,13,ls),
(80,0,o),
(90,-10,o),
(103,-10,cs)
);
},
{
closed = 1;
nodes = (
(305,264,ls),
(425,264,o),
(522,364,o),
(522,482,cs),
(522,603,o),
(425,700,o),
(305,700,cs),
(114,700,l),
(114,654,l),
(305,654,ls),
(402,654,o),
(476,580,o),
(476,482,cs),
(476,385,o),
(402,310,o),
(305,310,cs),
(114,310,l),
(114,264,l)
);
}
);
width = 562;
},
{
layerId = "CF015620-3929-45BF-A6BE-C5D8AFCEAD19";
shapes = (
{
closed = 1;
nodes = (
(158,-6,o),
(181,16,o),
(181,44,cs),
(181,700,l),
(130,700,ls),
(102,700,o),
(80,678,o),
(80,650,cs),
(80,44,ls),
(80,16,o),
(102,-6,o),
(130,-6,cs)
);
},
{
closed = 1;
nodes = (
(334,218,ls),
(469,218,o),
(573,327,o),
(573,458,cs),
(573,593,o),
(465,700,o),
(334,700,cs),
(148,700,l),
(148,604,l),
(329,604,ls),
(412,604,o),
(472,541,o),
(472,461,cs),
(472,377,o),
(412,315,o),
(329,315,cs),
(148,314,l),
(148,218,l)
);
}
);
width = 598;
},
{
layerId = "0A7BF5CC-8360-449C-B03A-1C2F0CDBB92F";
shapes = (
{
closed = 1;
nodes = (
(130,-8,o),
(144,7,o),
(144,25,cs),
(144,700,l),
(112,700,ls),
(94,700,o),
(80,686,o),
(80,668,cs),
(80,25,ls),
(80,7,o),
(94,-8,o),
(112,-8,cs)
);
},
{
closed = 1;
nodes = (
(317,245,ls),
(443,245,o),
(542,348,o),
(542,473,cs),
(542,600,o),
(441,700,o),
(317,700,cs),
(125,700,l),
(125,636,l),
(317,636,ls),
(408,636,o),
(478,564,o),
(478,473,cs),
(478,381,o),
(408,309,o),
(317,309,cs),
(125,309,l),
(125,245,l)
);
}
);
width = 571.5;
}
);
},
{
glyphname = Thorn;
lastChange = "2022-01-26 16:30:56 +0000";
layers = (
{
layerId = "6242D68C-0A25-4F05-8F2A-2075F7C4A210";
shapes = (
{
closed = 1;
nodes = (
(374,138,ls),
(499,138,o),
(598,241,o),
(598,359,cs),
(598,477,o),
(495,580,o),
(357,580,cs),
(196,580,l),
(196,432,l),
(357,432,ls),
(418,432,o),
(447,401,o),
(447,359,cs),
(447,317,o),
(418,286,o),
(357,286,cs),
(196,286,l),
(196,138,l)
);
},
{
ref = I;
}
);
width = 608;
},
{
layerId = "3D52442A-254C-4C79-B742-A98FD72DF947";
shapes = (
{
closed = 1;
nodes = (
(344,171,ls),
(442,171,o),
(516,247,o),
(516,359,cs),
(516,471,o),
(439,548,o),
(327,548,cs),
(109,548,l),
(109,505,l),
(327,505,ls),
(413,505,o),
(470,444,o),
(470,359,cs),
(470,274,o),
(413,214,o),
(327,214,cs),
(109,214,l),
(109,171,l)
);
},
{
ref = I;
}
);
width = 526;
},
{
layerId = "CF015620-3929-45BF-A6BE-C5D8AFCEAD19";
shapes = (
{
closed = 1;
nodes = (
(374,149,ls),
(484,149,o),
(572,240,o),
(572,359,cs),
(572,478,o),
(481,569,o),
(357,569,cs),
(140,569,l),
(140,473,l),
(357,473,ls),
(429,473,o),
(473,427,o),
(473,359,cs),
(473,292,o),
(429,245,o),
(357,245,cs),
(140,245,l),
(140,149,l)
);
},
{
alignment = -1;
ref = I;
}
);
width = 581.75;
},
{
layerId = "0A7BF5CC-8360-449C-B03A-1C2F0CDBB92F";
shapes = (
{
closed = 1;
nodes = (
(359,162,ls),
(461,162,o),
(540,244,o),
(540,359,cs),
(540,475,o),
(458,557,o),
(342,557,cs),
(115,557,l),
(115,496,l),
(342,496,ls),
(423,496,o),
(476,440,o),
(476,359,cs),
(476,279,o),
(423,223,o),
(342,223,cs),
(115,223,l),
(115,162,l)
);
},
{
alignment = -1;
ref = I;
}
);
width = 549.5;
}
);
metricLeft = "=H";
metricRight = "=P";
unicode = 222;
},
{
glyphname = Q;
lastChange = "2022-01-26 16:30:56 +0000";
layers = (
{
annotations = (
{
pos = (726.709,678.073);
text = "need to fix tail";
type = Text;
}
);
layerId = "6242D68C-0A25-4F05-8F2A-2075F7C4A210";
shapes = (
{
closed = 1;
nodes = (
(579,-15,o),
(718,136,o),
(718,351,cs),
(718,566,o),
(584,715,o),
(392,715,cs),
(200,715,o),
(56,566,o),
(56,351,cs),
(56,136,o),
(195,-15,o),
(387,-15,cs)
);
},
{
closed = 1;
nodes = (
(281,125,o),
(219,220,o),
(219,351,cs),
(219,482,o),
(281,575,o),
(387,575,cs),
(493,575,o),
(555,482,o),
(555,351,cs),
(555,220,o),
(493,125,o),
(387,125,cs)
);
},
{
closed = 1;
nodes = (
(713,-38,o),
(790,-14,o),
(790,54,cs),
(790,98,o),
(758,117,o),
(726,117,cs),
(697,117,o),
(692,101,o),
(652,101,cs),
(623,101,o),
(599,132,o),
(558,202,c),
(477,150,l),
(531,57,o),
(550,-38,o),
(658,-38,cs)
);
},
{
closed = 1;
nodes = (
(618,157,l),
(564,250,o),
(511,339,o),
(410,339,cs),
(370,339,o),
(293,325,o),
(293,255,cs),
(293,213,o),
(332,184,o),
(368,184,cs),
(390,184,o),
(400,195,o),
(427,195,cs),
(469,195,o),
(478,167,o),
(519,97,c)
);
}
);
width = 821;
},
{
layerId = "3D52442A-254C-4C79-B742-A98FD72DF947";
shapes = (
{
closed = 1;
nodes = (
(498,-15,o),
(610,141,o),
(610,350,cs),
(610,559,o),
(498,715,o),
(328,715,cs),
(157,715,o),
(45,559,o),
(45,350,cs),
(45,141,o),
(157,-15,o),
(328,-15,cs)
);
},
{
closed = 1;
nodes = (
(184,31,o),
(91,159,o),
(91,350,cs),
(91,541,o),
(184,669,o),
(328,669,cs),
(471,669,o),
(564,541,o),
(564,350,cs),
(564,159,o),
(471,31,o),
(328,31,cs)
);
},
{
closed = 1;
nodes = (
(561,-39,o),
(606,-28,o),
(606,-3,cs),
(606,9,o),
(596,20,o),
(583,20,cs),
(574,20,o),
(555,7,o),
(539,7,cs),
(509,7,o),
(487,28,o),
(468,56,c),
(429,29,l),
(455,-9,o),
(487,-39,o),
(539,-39,cs)
);
},
{
closed = 1;
nodes = (
(466,56,l),
(428,111,o),
(401,193,o),
(345,193,cs),
(325,193,o),
(297,188,o),
(297,165,cs),
(297,148,o),
(311,144,o),
(322,144,cs),
(333,144,o),
(335,147,o),
(345,147,cs),
(369,147,o),
(388,84,o),
(424,31,c)
);
}
);
width = 660;
},
{
layerId = "CF015620-3929-45BF-A6BE-C5D8AFCEAD19";
shapes = (
{
closed = 1;
nodes = (
(539,-15,o),
(651,132,o),
(651,350,cs),
(651,570,o),
(540,715,o),
(355,715,cs),
(179,715,o),
(55,570,o),
(55,350,cs),
(55,132,o),
(170,-15,o),
(354,-15,cs)
);
},
{
closed = 1;
nodes = (
(229,74,o),
(157,189,o),
(157,350,cs),
(157,511,o),
(229,626,o),
(354,626,cs),
(480,626,o),
(552,511,o),
(552,350,cs),
(552,189,o),
(480,74,o),
(354,74,cs)
);
},
{
closed = 1;
nodes = (
(629,-47,o),
(683,-34,o),
(683,10,cs),
(683,36,o),
(664,54,o),
(639,54,cs),
(621,54,o),
(617,45,o),
(597,45,cs),
(571,45,o),
(551,69,o),
(527,111,c),
(468,56,l),
(503,1,o),
(532,-47,o),
(596,-47,cs)
);
},
{
closed = 1;
nodes = (
(521,122,l),
(491,173,o),
(465,217,o),
(427,232,cs),
(405,248,o),
(372,252,o),
(355,235,cs),
(337,224,o),
(328,207,o),
(337,188,cs),
(342,171,o),
(361,161,o),
(386,161,cs),
(408,161,o),
(417,144,o),
(460,66,c)
);
}
);
width = 715.25;
},
{
layerId = "0A7BF5CC-8360-449C-B03A-1C2F0CDBB92F";
shapes = (
{
closed = 1;
nodes = (
(512,-15,o),
(619,136,o),
(619,350,cs),
(619,565,o),
(512,715,o),
(336,715,cs),
(165,715,o),
(50,565,o),
(50,350,cs),
(50,136,o),
(160,-15,o),
(336,-15,cs)
);
},
{
closed = 1;
nodes = (
(198,44,o),
(114,169,o),
(114,350,cs),
(114,531,o),
(198,656,o),
(336,656,cs),
(473,656,o),
(558,531,o),
(558,350,cs),
(558,169,o),
(473,44,o),
(336,44,cs)
);
},
{
closed = 1;
nodes = (
(581,-45,o),
(627,-35,o),
(627,-4,cs),
(627,12,o),
(615,27,o),
(597,27,cs),
(585,27,o),
(574,17,o),
(559,17,cs),
(532,17,o),
(511,38,o),
(492,68,c),
(447,27,l),
(474,-14,o),
(507,-45,o),
(557,-45,cs)
);
},
{
closed = 1;
nodes = (
(477,83,l),
(447,129,o),
(426,185,o),
(389,195,cs),
(371,205,o),
(348,208,o),
(336,197,cs),
(324,188,o),
(319,180,o),
(324,167,cs),
(330,155,o),
(342,149,o),
(359,149,cs),
(379,149,o),
(393,110,o),
(432,44,c)
);
}
);
width = 670;
}
);
metricLeft = O;
unicode = 81;
},
{
glyphname = R;
lastChange = "2022-01-26 19:36:14 +0000";
layers = (
{
anchors = (
{
name = bottom;
pos = (364,0);
},
{
name = top;
pos = (343,700);
}
);
background = {
shapes = (
{
attr = {
strokeWidth = 2;
};
closed = 0;
nodes = (
(186,669,l),
(186,0,l)
);
},
{
attr = {
strokeWidth = 2;
};
closed = 0;
nodes = (
(128,340,l),
(369,340,ls),
(472,340,o),
(532,394,o),
(532,487,cs),
(532,572,o),
(464,634,o),
(369,634,cs),
(128,634,l)
);
},
{
attr = {
strokeWidth = 2;
};
closed = 0;
nodes = (
(393,370,l),
(571,4,l)
);
},
{
closed = 1;
nodes = (
(204,-10,o),
(240,26,o),
(240,70,cs),
(240,700,l),
(160,700,ls),
(116,700,o),
(80,664,o),
(80,620,cs),
(80,70,ls),
(80,26,o),
(116,-10,o),
(160,-10,cs)
);
}
);
};
layerId = "6242D68C-0A25-4F05-8F2A-2075F7C4A210";
shapes = (
{
closed = 1;
nodes = (
(203,-10,o),
(236,23,o),
(236,68,cs),
(236,700,l),
(158,700,ls),
(113,700,o),
(80,667,o),
(80,622,cs),
(80,68,ls),
(80,23,o),
(113,-10,o),
(158,-10,cs)
);
},
{
closed = 1;
nodes = (
(388,255,ls),
(508,255,o),
(608,343,o),
(608,477,cs),
(608,610,o),
(509,700,o),
(376,700,cs),
(208,700,l),
(208,560,l),
(362,560,ls),
(402,560,o),
(448,532,o),
(448,474,cs),
(448,428,o),
(417,395,o),
(370,395,cs),
(208,395,l),
(208,255,l)
);
},
{
closed = 1;
nodes = (
(593,-10,o),
(626,23,o),
(626,65,cs),
(626,77,o),
(623,89,o),
(618,99,cs,{
name = "";
}),
(499,343,l),
(366,275,l),
(485,31,ls),
(497,6,o),
(522,-10,o),
(551,-10,cs)
);
}
);
width = 676;
},
{
anchors = (
{
name = bottom;
pos = (292,0);
},
{
name = top;
pos = (258,700);
}
);
background = {
shapes = (
{
attr = {
strokeWidth = 2;
};
closed = 0;
nodes = (
(97,682,l),
(97,0,l)
);
},
{
attr = {
strokeWidth = 2;
};
closed = 0;
nodes = (
(111,352,l),
(325,352,ls),
(439,352,o),
(507,411,o),
(507,509,cs),
(507,610,o),
(431,678,o),
(325,678,cs),
(111,678,l)
);
},
{
attr = {
strokeWidth = 2;
};
closed = 0;
nodes = (
(350,376,l),
(532,1,l)
);
}
);
};
layerId = "3D52442A-254C-4C79-B742-A98FD72DF947";
shapes = (
{
closed = 1;
nodes = (
(116,-10,o),
(126,0,o),
(126,13,cs),
(126,700,l),
(103,700,ls),
(90,700,o),
(80,690,o),
(80,677,cs),
(80,13,ls),
(80,0,o),
(90,-10,o),
(103,-10,cs)
);
},
{
closed = 1;
nodes = (
(325,328,ls),
(451,328,o),
(530,396,o),
(530,508,cs),
(530,622,o),
(443,700,o),
(325,700,cs),
(117,700,l),
(117,654,l),
(325,654,ls),
(422,654,o),
(484,599,o),
(484,508,cs),
(484,420,o),
(430,374,o),
(325,374,cs),
(117,374,l),
(117,328,l)
);
},
{
closed = 1;
nodes = (
(537,-10,o),
(546,0,o),
(546,12,cs),
(546,15,o),
(545,19,o),
(544,22,cs),
(383,358,l),
(336,355,l),
(505,2,ls),
(508,-5,o),
(516,-10,o),
(524,-10,cs)
);
}
);
width = 596;
},
{
anchors = (
{
name = bottom;
pos = (321,0);
},
{
name = top;
pos = (307,700);
}
);
layerId = "CF015620-3929-45BF-A6BE-C5D8AFCEAD19";
shapes = (
{
closed = 1;
nodes = (
(159,-10,o),
(182,13,o),
(182,41,cs),
(182,700,l),
(131,700,ls),
(103,700,o),
(80,678,o),
(80,649,cs),
(80,41,ls),
(80,13,o),
(103,-10,o),
(131,-10,cs)
);
},
{
closed = 1;
nodes = (
(370,310,ls),
(483,310,o),
(572,389,o),
(572,504,cs),
(572,620,o),
(482,700,o),
(362,700,cs),
(143,700,l),
(143,607,l),
(363,607,ls),
(425,607,o),
(471,567,o),
(471,503,cs),
(471,445,o),
(431,403,o),
(372,403,cs),
(146,403,l),
(146,310,l)
);
},
{
closed = 1;
nodes = (
(562,-10,o),
(583,13,o),
(583,40,cs),
(583,48,o),
(582,55,o),
(578,62,cs),
(438,351,l),
(340,334,l),
(490,18,ls),
(499,1,o),
(515,-10,o),
(534,-10,cs)
);
}
);
width = 633.25;
},
{
anchors = (
{
name = bottom;
pos = (299,0);
},
{
name = top;
pos = (277,700);
}
);
layerId = "0A7BF5CC-8360-449C-B03A-1C2F0CDBB92F";
shapes = (
{
closed = 1;
nodes = (
(130,-10,o),
(144,4,o),
(144,22,cs),
(144,700,l),
(112,700,ls),
(94,700,o),
(80,686,o),
(80,668,cs),
(80,22,ls),
(80,4,o),
(94,-10,o),
(112,-10,cs)
);
},
{
closed = 1;
nodes = (
(345,328,ls),
(463,328,o),
(545,400,o),
(545,511,cs),
(545,623,o),
(458,700,o),
(341,700,cs),
(119,700,l),
(119,638,l),
(344,638,ls),
(427,638,o),
(482,589,o),
(482,511,cs),
(482,435,o),
(433,390,o),
(349,390,cs),
(121,390,l),
(121,328,l)
);
},
{
closed = 1;
nodes = (
(544,-10,o),
(558,5,o),
(558,22,cs),
(558,27,o),
(557,32,o),
(555,36,cs),
(400,356,l),
(334,355,l),
(499,8,ls),
(504,-3,o),
(515,-10,o),
(526,-10,cs)
);
}
);
width = 607.5;
}
);
metricLeft = H;
unicode = 82;
},
{
glyphname = R.ss02;
lastChange = "2022-01-26 16:30:56 +0000";
layers = (
{
anchors = (
{
name = bottom;
pos = (354,0);
},
{
name = top;
pos = (333,700);
}
);
background = {
shapes = (
{
attr = {
strokeWidth = 2;
};
closed = 0;
nodes = (
(176,669,l),
(176,0,l)
);
},
{
attr = {
strokeWidth = 2;
};
closed = 0;
nodes = (
(118,340,l),
(359,340,ls),
(462,340,o),
(522,394,o),
(522,487,cs),
(522,572,o),
(454,634,o),
(359,634,cs),
(118,634,l)
);
},
{
attr = {
strokeWidth = 2;
};
closed = 0;
nodes = (
(383,370,l),
(561,4,l)
);
}
);
};
layerId = "6242D68C-0A25-4F05-8F2A-2075F7C4A210";
shapes = (
{
closed = 1;
nodes = (
(204,-10,o),
(240,26,o),
(240,70,cs),
(240,700,l),
(160,700,ls),
(116,700,o),
(80,664,o),
(80,620,cs),
(80,70,ls),
(80,26,o),
(116,-10,o),
(160,-10,cs)
);
},
{
closed = 1;
nodes = (
(378,255,ls),
(498,255,o),
(598,343,o),
(598,477,cs),
(598,610,o),
(499,700,o),
(366,700,cs),
(208,700,l),
(208,550,l),
(362,550,ls),
(402,550,o),
(438,522,o),
(438,474,cs),
(438,438,o),
(417,405,o),
(370,405,cs),
(208,405,l),
(208,255,l)
);
},
{
closed = 1;
nodes = (
(583,-10,o),
(616,23,o),
(616,65,cs),
(616,77,o),
(613,89,o),
(608,99,cs,{
name = "";
}),
(489,343,l),
(356,275,l),
(475,31,ls),
(487,6,o),
(512,-10,o),
(541,-10,cs)
);
}
);
width = 661;
},
{
anchors = (
{
name = bottom;
pos = (293,0);
},
{
name = top;
pos = (259,700);
}
);
background = {
shapes = (
{
attr = {
strokeWidth = 2;
};
closed = 0;
nodes = (
(98,682,l),
(98,0,l)
);
},
{
attr = {
strokeWidth = 2;
};
closed = 0;
nodes = (
(112,352,l),
(326,352,ls),
(440,352,o),
(508,411,o),
(508,509,cs),
(508,610,o),
(432,678,o),
(326,678,cs),
(112,678,l)
);
},
{
attr = {
strokeWidth = 2;
};
closed = 0;
nodes = (
(351,376,l),
(533,1,l)
);
}
);
};
layerId = "3D52442A-254C-4C79-B742-A98FD72DF947";
shapes = (
{
closed = 1;
nodes = (
(111,-10,o),
(121,0,o),
(121,13,cs),
(121,700,l),
(98,700,ls),
(85,700,o),
(75,690,o),
(75,677,cs),
(75,13,ls),
(75,0,o),
(85,-10,o),
(98,-10,cs)
);
},
{
closed = 1;
nodes = (
(326,328,ls),
(452,328,o),
(531,396,o),
(531,508,cs),
(531,622,o),
(444,700,o),
(326,700,cs),
(112,700,l),
(112,654,l),
(326,654,ls),
(423,654,o),
(485,599,o),
(485,508,cs),
(485,420,o),
(431,374,o),
(326,374,cs),
(112,374,l),
(112,328,l)
);
},
{
closed = 1;
nodes = (
(538,-10,o),
(547,0,o),
(547,12,cs),
(547,15,o),
(546,19,o),
(545,22,cs),
(384,358,l),
(337,355,l),
(506,2,ls),
(509,-5,o),
(517,-10,o),
(525,-10,cs)
);
}
);
width = 592;
},
{
anchors = (
{
name = bottom;
pos = (326,0);
},
{
name = top;
pos = (323,700);
}
);
layerId = "CF015620-3929-45BF-A6BE-C5D8AFCEAD19";
shapes = (
{
closed = 1;
nodes = (
(159,-10,o),
(182,13,o),
(182,41,cs),
(182,700,l),
(131,700,ls),
(103,700,o),
(80,678,o),
(80,649,cs),
(80,41,ls),
(80,13,o),
(103,-10,o),
(131,-10,cs)
);
},
{
closed = 1;
nodes = (
(375,310,ls),
(488,310,o),
(577,389,o),
(577,504,cs),
(577,620,o),
(487,700,o),
(367,700,cs),
(143,700,l),
(143,604,l),
(370,604,ls),
(432,604,o),
(476,564,o),
(476,503,cs),
(476,447,o),
(439,406,o),
(379,406,cs),
(146,406,l),
(146,310,l)
);
},
{
closed = 1;
nodes = (
(567,-10,o),
(588,13,o),
(588,40,cs),
(588,48,o),
(587,55,o),
(583,62,cs),
(443,351,l),
(345,334,l),
(495,18,ls),
(504,1,o),
(520,-10,o),
(539,-10,cs)
);
}
);
width = 633.25;
},
{
anchors = (
{
name = bottom;
pos = (305,0);
},
{
name = top;
pos = (290,700);
}
);
layerId = "0A7BF5CC-8360-449C-B03A-1C2F0CDBB92F";
shapes = (
{
closed = 1;
nodes = (
(128,-10,o),
(142,4,o),
(142,22,cs),
(142,700,l),
(110,700,ls),
(92,700,o),
(78,686,o),
(78,668,cs),
(78,22,ls),
(78,4,o),
(92,-10,o),
(110,-10,cs)
);
},
{
closed = 1;
nodes = (
(350,328,ls),
(468,328,o),
(551,400,o),
(551,511,cs),
(551,623,o),
(464,700,o),
(347,700,cs),
(117,700,l),
(117,638,l),
(350,638,ls),
(433,638,o),
(487,589,o),
(487,511,cs),
(487,435,o),
(439,390,o),
(354,390,cs),
(119,390,l),
(119,328,l)
);
},
{
closed = 1;
nodes = (
(550,-10,o),
(563,5,o),
(563,22,cs),
(563,27,o),
(562,32,o),
(560,36,cs),
(406,356,l),
(339,355,l),
(504,8,ls),
(509,-3,o),
(520,-10,o),
(532,-10,cs)
);
}
);
width = 608;
}
);
},
{
glyphname = S;
lastChange = "2022-01-26 16:34:46 +0000";
layers = (
{
anchors = (
{
name = bottom;
pos = (307,0);
},
{
name = top;
pos = (307,700);
}
);
background = {
shapes = (
{
closed = 1;
nodes = (
(458,-15,o),
(568,57,o),
(568,198,cs),
(568,330,o),
(473,377,o),
(383,412,cs),
(305,442,o),
(228,463,o),
(228,519,cs),
(228,557,o),
(263,575,o),
(310,575,cs),
(353,575,o),
(375,557,o),
(389,536,cs),
(402,516,o),
(425,503,o),
(452,503,cs),
(536,503,o),
(550,614,o),
(460,675,cs),
(425,699,o),
(375,715,o),
(308,715,cs),
(169,715,o),
(72,640,o),
(72,513,cs),
(72,401,o),
(138,350,o),
(212,317,cs),
(304,276,o),
(414,260,o),
(414,190,cs),
(414,148,o),
(377,125,o),
(311,125,cs),
(252,125,o),
(210,144,o),
(187,182,cs),
(172,207,o),
(150,229,o),
(118,229,cs),
(78,229,o),
(45,196,o),
(45,150,cs),
(45,63,o),
(160,-15,o),
(310,-15,cs)
);
}
);
};
layerId = "6242D68C-0A25-4F05-8F2A-2075F7C4A210";
shapes = (
{
closed = 1;
nodes = (
(458,-15,o),
(568,57,o),
(568,198,cs),
(568,330,o),
(475,378,o),
(385,413,cs),
(307,443,o),
(230,463,o),
(230,519,cs),
(230,557,o),
(265,575,o),
(309,575,cs),
(351,575,o),
(369,560,o),
(384,544,cs),
(401,525,o),
(413,503,o),
(451,503,cs),
(538,503,o),
(552,614,o),
(462,675,cs),
(427,699,o),
(377,715,o),
(310,715,cs),
(171,715,o),
(74,640,o),
(74,513,cs),
(74,401,o),
(140,350,o),
(212,317,cs),
(304,275,o),
(414,260,o),
(414,190,cs),
(414,148,o),
(377,125,o),
(311,125,cs),
(252,125,o),
(210,144,o),
(187,182,cs),
(172,207,o),
(150,229,o),
(118,229,cs),
(78,229,o),
(45,196,o),
(45,150,cs),
(45,63,o),
(160,-15,o),
(310,-15,cs)
);
}
);
width = 613;
},
{
anchors = (
{
name = bottom;
pos = (278,0);
},
{
name = top;
pos = (278,700);
}
);
layerId = "3D52442A-254C-4C79-B742-A98FD72DF947";
shapes = (
{
closed = 1;
nodes = (
(427,-15,o),
(514,58,o),
(514,183,cs),
(514,282,o),
(455,347,o),
(296,386,cs),
(156,420,o),
(110,460,o),
(110,532,cs),
(110,622,o),
(186,670,o),
(278,670,cs),
(365,670,o),
(427,629,o),
(450,545,cs),
(453,532,o),
(463,526,o),
(473,526,cs),
(488,526,o),
(500,540,o),
(496,555,cs),
(474,646,o),
(403,715,o),
(278,715,cs),
(159,715,o),
(64,644,o),
(64,531,cs),
(64,438,o),
(127,379,o),
(274,344,cs),
(416,310,o),
(468,262,o),
(468,181,cs),
(468,76,o),
(391,30,o),
(287,30,cs),
(183,30,o),
(96,74,o),
(88,186,cs),
(87,197,o),
(77,206,o),
(65,206,cs),
(51,206,o),
(41,193,o),
(42,181,cs),
(51,45,o),
(166,-15,o),
(287,-15,cs)
);
}
);
width = 559;
},
{
anchors = (
{
name = bottom;
pos = (298,0);
},
{
name = top;
pos = (298,700);
}
);
layerId = "CF015620-3929-45BF-A6BE-C5D8AFCEAD19";
shapes = (
{
closed = 1;
nodes = (
(451,-16,o),
(550,63,o),
(550,194,cs),
(550,307,o),
(479,365,o),
(334,404,cs),
(221,435,o),
(172,469,o),
(172,530,cs),
(172,581,o),
(212,624,o),
(292,624,cs),
(355,624,o),
(396,598,o),
(413,555,cs),
(424,528,o),
(434,510,o),
(461,510,cs),
(506,510,o),
(512,553,o),
(492,596,cs),
(460,667,o),
(391,715,o),
(287,715,cs),
(144,715,o),
(74,623,o),
(72,524,cs),
(69,409,o),
(160,352,o),
(260,325,cs),
(383,292,o),
(450,262,o),
(450,192,cs),
(450,116,o),
(394,76,o),
(302,76,cs),
(215,76,o),
(164,112,o),
(144,169,cs),
(134,198,o),
(120,216,o),
(95,216,cs),
(68,216,o),
(47,195,o),
(47,167,cs),
(47,95,o),
(123,-16,o),
(299,-16,cs)
);
}
);
width = 598;
},
{
anchors = (
{
name = bottom;
pos = (287,0);
},
{
name = top;
pos = (287,700);
}
);
layerId = "0A7BF5CC-8360-449C-B03A-1C2F0CDBB92F";
shapes = (
{
closed = 1;
nodes = (
(436,-16,o),
(529,62,o),
(529,188,cs),
(529,291,o),
(468,354,o),
(307,394,cs),
(174,426,o),
(132,466,o),
(132,533,cs),
(132,606,o),
(190,655,o),
(284,655,cs),
(361,655,o),
(416,620,o),
(436,552,cs),
(442,531,o),
(452,519,o),
(469,519,cs),
(492,519,o),
(505,540,o),
(499,562,cs),
(479,653,o),
(400,715,o),
(286,715,cs),
(147,715,o),
(69,631,o),
(68,529,cs),
(66,425,o),
(147,366,o),
(275,336,cs),
(413,304,o),
(465,263,o),
(465,190,cs),
(465,91,o),
(396,45,o),
(293,45,cs),
(193,45,o),
(121,88,o),
(109,176,cs),
(105,196,o),
(94,209,o),
(76,209,cs),
(58,209,o),
(44,194,o),
(45,177,cs),
(49,76,o),
(138,-16,o),
(291,-16,cs)
);
}
);
width = 576;
}
);
unicode = 83;
},
{
glyphname = Germandbls;
lastChange = "2022-01-26 16:30:56 +0000";
layers = (
{
layerId = "6242D68C-0A25-4F05-8F2A-2075F7C4A210";
shapes = (
{
closed = 1;
nodes = (
(637,554,l),
(559,686,l),
(395,430,ls),
(355,368,o),
(382,313,o),
(445,294,cs),
(540,267,o),
(596,261,o),
(596,203,cs),
(596,159,o),
(565,135,o),
(499,135,cs),
(467,135,o),
(432,146,o),
(414,152,cs),
(357,171,o),
(305,136,o),
(305,82,cs),
(305,53,o),
(322,26,o),
(349,15,cs),
(372,5,o),
(442,-15,o),
(503,-15,cs),
(661,-15,o),
(747,99,o),
(747,211,cs),
(747,346,o),
(625,406,o),
(435,443,c),
(512,332,l),
(670,572,ls),
(710,633,o),
(669,700,o),
(606,700,cs),
(330,700,ls),
(188,700,o),
(80,590,o),
(80,450,cs),
(80,69,ls),
(80,28,o),
(115,-6,o),
(156,-6,cs),
(198,-6,o),
(232,28,o),
(232,69,cs),
(232,429,ls),
(232,504,o),
(256,554,o),
(337,554,cs)
);
}
);
width = 782;
},
{
layerId = "3D52442A-254C-4C79-B742-A98FD72DF947";
shapes = (
{
closed = 1;
nodes = (
(472,655,l),
(448,672,l),
(288,406,ls),
(267,371,o),
(270,358,o),
(307,347,cs),
(398,320,o),
(516,286,o),
(516,170,cs),
(516,78,o),
(452,30,o),
(366,30,cs),
(325,30,o),
(283,43,o),
(265,49,cs),
(240,57,o),
(221,52,o),
(221,33,cs),
(221,20,o),
(228,14,o),
(237,10,cs),
(256,1,o),
(316,-15,o),
(370,-15,cs),
(497,-15,o),
(562,72,o),
(562,171,cs),
(562,288,o),
(465,352,o),
(319,389,c),
(319,372,l),
(492,650,ls),
(511,681,o),
(499,700,o),
(473,700,cs),
(277,700,ls),
(161,700,o),
(80,616,o),
(80,502,cs),
(80,20,ls),
(80,6,o),
(88,-5,o),
(103,-5,cs),
(119,-5,o),
(126,5,o),
(126,20,cs),
(126,481,ls),
(126,580,o),
(165,655,o),
(284,655,cs)
);
}
);
width = 597;
},
{
layerId = "CF015620-3929-45BF-A6BE-C5D8AFCEAD19";
shapes = (
{
closed = 1;
nodes = (
(505,607,l),
(474,660,l),
(332,417,ls),
(305,371,o),
(315,335,o),
(366,320,cs),
(459,293,o),
(536,282,o),
(536,192,cs),
(536,120,o),
(488,83,o),
(413,83,cs),
(376,83,o),
(338,95,o),
(320,101,cs),
(282,113,o),
(245,94,o),
(245,56,cs),
(245,37,o),
(256,20,o),
(273,13,cs),
(294,4,o),
(360,-15,o),
(417,-15,cs),
(558,-15,o),
(635,85,o),
(635,200,cs),
(635,328,o),
(528,381,o),
(386,409,c),
(412,358,l),
(561,611,ls),
(589,656,o),
(563,700,o),
(520,700,cs),
(304,700,ls),
(176,700,o),
(80,602,o),
(80,476,cs),
(80,44,ls),
(80,17,o),
(103,-5,o),
(130,-5,cs),
(158,-5,o),
(180,17,o),
(180,44,cs),
(180,455,ls),
(180,536,o),
(213,607,o),
(311,607,cs)
);
}
);
width = 669.5;
},
{
layerId = "0A7BF5CC-8360-449C-B03A-1C2F0CDBB92F";
shapes = (
{
closed = 1;
nodes = (
(467,640,l),
(447,662,l),
(300,410,ls),
(278,372,o),
(282,350,o),
(324,338,cs),
(415,311,o),
(516,288,o),
(516,179,cs),
(516,93,o),
(457,48,o),
(375,48,cs),
(336,48,o),
(295,61,o),
(277,67,cs),
(249,76,o),
(223,66,o),
(223,40,cs),
(223,26,o),
(231,16,o),
(243,11,cs),
(262,2,o),
(324,-15,o),
(379,-15,cs),
(511,-15,o),
(580,76,o),
(580,184,cs),
(580,305,o),
(481,363,o),
(344,394,c),
(349,369,l),
(509,637,ls),
(530,673,o),
(513,700,o),
(482,700,cs),
(286,700,ls),
(167,700,o),
(80,611,o),
(80,494,cs),
(80,28,ls),
(80,10,o),
(94,-5,o),
(112,-5,cs),
(132,-5,o),
(144,9,o),
(144,28,cs),
(144,473,ls),
(144,564,o),
(182,640,o),
(293,640,cs)
);
}
);
width = 614.5;
}
);
metricLeft = "=H";
metricRight = "=S-10";
unicode = 7838;
},
{
glyphname = Schwa;
lastChange = "2022-01-26 16:30:56 +0000";
layers = (
{
layerId = "6242D68C-0A25-4F05-8F2A-2075F7C4A210";
shapes = (
{
closed = 1;
nodes = (
(580.186,-16,o),
(687,144.838,o),
(687,356,cs),
(687,393.466,o),
(666.224,709,o),
(370,709,cs),
(255.344,709,o),
(169,658,o),
(135.476,620.189,cs),
(83,561,o),
(114,488,o),
(184,488,cs),
(202.505,488,o),
(219.445,494.702,o),
(232.524,505.811,cs),
(262.317,531.091,o),
(304,569,o),
(370,569,cs),
(526,569,o),
(537,388.534,o),
(537,356,cs),
(537,203.162,o),
(492,124,o),
(381,124,cs),
(238,124,o),
(215,241,o),
(215,287,c),
(665,287,l),
(609,417,l),
(152,417,ls),
(99.6,417,o),
(56,376.2,o),
(56,324,cs),
(56,190.353,o),
(126.936,-16,o),
(381,-16,cs)
);
}
);
width = 743;
},
{
layerId = "3D52442A-254C-4C79-B742-A98FD72DF947";
shapes = (
{
closed = 1;
nodes = (
(529.464,-13.5,o),
(624.5,144.907,o),
(624.5,360,cs),
(624.5,400.905,o),
(605.333,709.5,o),
(333,709.5,cs),
(202.102,709.5,o),
(114.896,626.985,o),
(80.261,544.732,cs),
(75,532,o),
(83,514,o),
(101,513.5,cs),
(110.329,513.5,o),
(118.332,519.178,o),
(121.739,527.268,cs),
(151.88,598.858,o),
(221.898,664.5,o),
(333,664.5,cs),
(562.867,664.5,o),
(579.5,399.295,o),
(579.5,360,cs),
(579.5,160.293,o),
(501.336,31.5,o),
(345,31.5,cs),
(144.132,31.5,o),
(89.5,192.709,o),
(90,319.5,c),
(599,319.5,l),
(599,364.5,l),
(80,365,ls),
(55,365,o),
(44.5,345.4,o),
(44.5,321,cs),
(44.5,182.891,o),
(110.268,-13.5,o),
(345,-13.5,cs)
);
}
);
width = 670;
},
{
layerId = "CF015620-3929-45BF-A6BE-C5D8AFCEAD19";
shapes = (
{
closed = 1;
nodes = (
(549,-15,o),
(647,146,o),
(647,358,cs),
(647,397,o),
(628,710,o),
(349,710,cs),
(221,710,o),
(134,634,o),
(100,561,cs),
(79,527,o),
(101,487,o),
(140,487,cs),
(157,487,o),
(172,496,o),
(180,510,cs),
(207,565,o),
(260,615,o),
(349,615,cs),
(536,615,o),
(549,394.005,o),
(549,358,cs),
(549,181,o),
(489,80,o),
(360,80,cs),
(194,80,o),
(154,225,o),
(154,298,c),
(609,298,l),
(595,391,l),
(125,391,ls),
(86,391,o),
(55,361,o),
(55,323,cs),
(55,188,o),
(121,-15,o),
(360,-15,cs)
);
}
);
width = 701;
},
{
layerId = "0A7BF5CC-8360-449C-B03A-1C2F0CDBB92F";
shapes = (
{
closed = 1;
nodes = (
(534,-14,o),
(629,145,o),
(629,359,cs),
(629,400,o),
(610,710,o),
(338,710,cs),
(206,710,o),
(119,627,o),
(84,543,cs),
(77,524,o),
(90,500,o),
(113,500,cs),
(126,500,o),
(137,508,o),
(142,519,cs),
(170,587,o),
(233,647,o),
(338,647,cs),
(551,647,o),
(566,398,o),
(566,359,cs),
(566,167,o),
(495,48,o),
(349,48,cs),
(162,48,o),
(112,206,o),
(112,311,c),
(595,311,l),
(595,373,l),
(98,374,ls),
(68,374,o),
(49,351,o),
(49,322,cs),
(49,185,o),
(115,-14,o),
(349,-14,cs)
);
}
);
width = 678.5;
}
);
metricLeft = "=O";
metricRight = "=O";
unicode = 399;
},
{
glyphname = T;
lastChange = "2022-01-26 16:30:56 +0000";
layers = (
{
anchors = (
{
name = bottom;
pos = (306,0);
},
{
name = center;
pos = (306,350);
},
{
name = top;
pos = (306,700);
}
);
background = {
shapes = (
{
attr = {
strokeWidth = 2;
};
closed = 0;
nodes = (
(306,673,l),
(305,1,l)
);
},
{
attr = {
strokeWidth = 2;
};
closed = 0;
nodes = (
(52,677,l),
(552,677,l)
);
}
);
};
layerId = "6242D68C-0A25-4F05-8F2A-2075F7C4A210";
shapes = (
{
closed = 1;
nodes = (
(349,-10,o),
(382,23,o),
(382,68,cs),
(382,550,l),
(518,550,ls),
(561,550,o),
(593,582,o),
(593,625,cs),
(593,668,o),
(561,700,o),
(518,700,cs),
(90,700,ls),
(47,700,o),
(15,668,o),
(15,625,cs),
(15,582,o),
(47,550,o),
(90,550,cs),
(226,550,l),
(226,68,ls),
(226,23,o),
(259,-10,o),
(304,-10,cs)
);
}
);
width = 608;
},
{
anchors = (
{
name = bottom;
pos = (255,0);
},
{
name = center;
pos = (255,350);
},
{
name = top;
pos = (255,700);
}
);
background = {
shapes = (
{
attr = {
strokeWidth = 2;
};
closed = 0;
nodes = (
(255,673,l),
(254,1,l)
);
},
{
attr = {
strokeWidth = 2;
};
closed = 0;
nodes = (
(1,677,l),
(501,677,l)
);
}
);
};
layerId = "3D52442A-254C-4C79-B742-A98FD72DF947";
shapes = (
{
closed = 1;
nodes = (
(266,-10,o),
(276,0,o),
(276,13,cs),
(276,655,l),
(468,655,ls),
(481,655,o),
(491,664,o),
(491,677,cs),
(491,690,o),
(481,700,o),
(468,700,cs),
(38,700,ls),
(25,700,o),
(15,690,o),
(15,677,cs),
(15,664,o),
(25,655,o),
(38,655,cs),
(230,655,l),
(230,13,ls),
(230,0,o),
(240,-10,o),
(253,-10,cs)
);
}
);
width = 506;
},
{
anchors = (
{
name = bottom;
pos = (276,0);
},
{
name = center;
pos = (275,350);
},
{
name = top;
pos = (275,700);
}
);
layerId = "CF015620-3929-45BF-A6BE-C5D8AFCEAD19";
shapes = (
{
closed = 1;
nodes = (
(306,-10,o),
(327,11,o),
(327,40,cs),
(327,606,l),
(490,606,ls),
(518,606,o),
(538,626,o),
(538,653,cs),
(538,680,o),
(518,700,o),
(490,700,cs),
(62,700,ls),
(35,700,o),
(15,680,o),
(15,653,cs),
(15,626,o),
(35,606,o),
(62,606,cs),
(226,606,l),
(226,40,ls),
(226,11,o),
(247,-10,o),
(276,-10,cs)
);
}
);
width = 552.5;
},
{
anchors = (
{
name = bottom;
pos = (261,0);
},
{
name = center;
pos = (260,350);
},
{
name = top;
pos = (260,700);
}
);
layerId = "0A7BF5CC-8360-449C-B03A-1C2F0CDBB92F";
shapes = (
{
closed = 1;
nodes = (
(279,-10,o),
(292,4,o),
(292,22,cs),
(292,640,l),
(475,640,ls),
(492,640,o),
(505,652,o),
(505,670,cs),
(505,687,o),
(492,700,o),
(475,700,cs),
(46,700,ls),
(28,700,o),
(15,687,o),
(15,670,cs),
(15,652,o),
(28,640,o),
(46,640,cs),
(228,640,l),
(228,22,ls),
(228,4,o),
(242,-10,o),
(260,-10,cs)
);
}
);
width = 520;
}
);
unicode = 84;
},
{
glyphname = Tbar;
lastChange = "2022-01-26 16:30:56 +0000";
layers = (
{
layerId = "6242D68C-0A25-4F05-8F2A-2075F7C4A210";
shapes = (
{
ref = T;
},
{
attr = {
lineCapEnd = "2";
lineCapStart = "2";
strokeHeight = 130;
strokeWidth = 130;
};
closed = 0;
nodes = (
(108,370,l),
(501,370,l)
);
}
);
width = 608;
},
{
layerId = "3D52442A-254C-4C79-B742-A98FD72DF947";
shapes = (
{
ref = T;
},
{
attr = {
lineCapEnd = "2";
lineCapStart = "2";
strokeHeight = 45;
strokeWidth = 45;
};
closed = 0;
nodes = (
(86,370,l),
(421,370,l)
);
}
);
width = 506;
},
{
layerId = "CF015620-3929-45BF-A6BE-C5D8AFCEAD19";
shapes = (
{
alignment = -1;
ref = T;
},
{
attr = {
lineCapEnd = "2";
lineCapStart = "2";
strokeHeight = 91;
strokeWidth = 91;
};
closed = 0;
nodes = (
(101,370,l),
(451,370,l)
);
}
);
width = 552.5;
},
{
layerId = "0A7BF5CC-8360-449C-B03A-1C2F0CDBB92F";
shapes = (
{
alignment = -1;
ref = T;
},
{
attr = {
lineCapEnd = "2";
lineCapStart = "2";
strokeHeight = 61.5;
strokeWidth = 61.5;
};
closed = 0;
nodes = (
(93,370,l),
(428,370,l)
);
}
);
width = 520;
}
);
metricLeft = "=T";
metricRight = "=T";
unicode = 358;
},
{
glyphname = U;
lastChange = "2022-01-26 16:30:56 +0000";
layers = (
{
anchors = (
{
name = bottom;
pos = (355,0);
},
{
name = ogonek;
pos = (423,0);
},
{
name = top;
pos = (355,700);
},
{
name = topright;
pos = (635,700);
}
);
layerId = "6242D68C-0A25-4F05-8F2A-2075F7C4A210";
shapes = (
{
closed = 1;
nodes = (
(516,-15,o),
(641,111,o),
(641,269,cs),
(641,632,ls),
(641,677,o),
(608,710,o),
(563,710,cs),
(518,710,o),
(485,677,o),
(485,632,cs),
(485,263,ls),
(485,189,o),
(432,135,o),
(358,135,cs),
(284,135,o),
(231,189,o),
(231,263,cs),
(231,632,ls),
(231,677,o),
(198,710,o),
(153,710,cs),
(108,710,o),
(75,677,o),
(75,632,cs),
(75,269,ls),
(75,111,o),
(200,-15,o),
(358,-15,cs)
);
}
);
width = 716;
},
{
anchors = (
{
name = bottom;
pos = (322,0);
},
{
name = ogonek;
pos = (391,0);
},
{
name = top;
pos = (322,700);
},
{
name = topright;
pos = (602,700);
}
);
layerId = "3D52442A-254C-4C79-B742-A98FD72DF947";
shapes = (
{
closed = 1;
nodes = (
(462,-16,o),
(575,89,o),
(575,233,cs),
(575,687,ls),
(575,700,o),
(565,710,o),
(552,710,cs),
(539,710,o),
(529,700,o),
(529,687,cs),
(529,233,ls),
(529,118,o),
(441,29,o),
(325,29,cs),
(209,29,o),
(121,118,o),
(121,233,cs),
(121,687,ls),
(121,700,o),
(111,710,o),
(98,710,cs),
(85,710,o),
(75,700,o),
(75,687,cs),
(75,233,ls),
(75,89,o),
(187,-16,o),
(325,-16,cs)
);
}
);
width = 650;
},
{
anchors = (
{
name = bottom;
pos = (333,0);
},
{
name = ogonek;
pos = (414,0);
},
{
name = top;
pos = (333,700);
},
{
name = topright;
pos = (631,700);
}
);
layerId = "CF015620-3929-45BF-A6BE-C5D8AFCEAD19";
shapes = (
{
closed = 1;
nodes = (
(482,-14,o),
(592,98,o),
(592,244,cs),
(592,660,ls),
(592,689,o),
(571,710,o),
(541,710,cs),
(512,710,o),
(491,689,o),
(491,660,cs),
(491,243,ls),
(491,150,o),
(425,80,o),
(333,80,cs),
(241,80,o),
(176,150,o),
(176,243,cs),
(176,660,ls),
(176,689,o),
(155,710,o),
(125,710,cs),
(96,710,o),
(75,689,o),
(75,660,cs),
(75,244,ls),
(75,98,o),
(184,-14,o),
(333,-14,cs)
);
}
);
width = 666.5;
},
{
anchors = (
{
name = bottom;
pos = (324,0);
},
{
name = ogonek;
pos = (401,0);
},
{
name = top;
pos = (324,700);
},
{
name = topright;
pos = (616,700);
}
);
layerId = "0A7BF5CC-8360-449C-B03A-1C2F0CDBB92F";
shapes = (
{
closed = 1;
nodes = (
(467,-15,o),
(575,91,o),
(575,235,cs),
(575,678,ls),
(575,697,o),
(562,710,o),
(543,710,cs),
(525,710,o),
(511,697,o),
(511,678,cs),
(511,235,ls),
(511,128,o),
(432,45,o),
(325,45,cs),
(218,45,o),
(139,128,o),
(139,235,cs),
(139,678,ls),
(139,697,o),
(126,710,o),
(107,710,cs),
(89,710,o),
(75,697,o),
(75,678,cs),
(75,235,ls),
(75,91,o),
(183,-15,o),
(325,-15,cs)
);
}
);
width = 650;
}
);
unicode = 85;
},
{
glyphname = Uhorn;
lastChange = "2022-01-26 16:30:56 +0000";
layers = (
{
anchors = (
{
name = bottom;
pos = (358,0);
},
{
name = top;
pos = (358,700);
}
);
background = {
shapes = (
{
closed = 1;
nodes = (
(638,592,l),
(710,595,o),
(774,634,o),
(774,770,cs),
(774,807,o),
(748,838,o),
(707,838,cs),
(669,838,o),
(644,809,o),
(644,775,cs),
(644,713,o),
(633,710,o),
(562,710,c),
(562,592,l)
);
}
);
};
layerId = "6242D68C-0A25-4F05-8F2A-2075F7C4A210";
shapes = (
{
pos = (0,1);
ref = U;
},
{
closed = 1;
nodes = (
(575,593,l),
(720,601,o),
(742,680,o),
(742,742,cs),
(742,785,o),
(716,816,o),
(675,816,cs),
(637,816,o),
(612,787,o),
(612,753,cs),
(612,721,o),
(588,711,o),
(562,711,c),
(562,593,l)
);
}
);
width = 716;
},
{
anchors = (
{
name = bottom;
pos = (316,0);
},
{
name = top;
pos = (316,700);
}
);
layerId = "3D52442A-254C-4C79-B742-A98FD72DF947";
shapes = (
{
ref = U;
},
{
closed = 1;
nodes = (
(575,668,ls),
(626,668,o),
(672,696,o),
(672,773,cs),
(672,787,o),
(664,798,o),
(650,798,cs),
(638,798,o),
(628,787,o),
(628,773,cs),
(628,717,o),
(599,710,o),
(551,710,c),
(551,668,l)
);
}
);
width = 632;
},
{
anchors = (
{
name = bottom;
pos = (321,0);
},
{
name = top;
pos = (321,700);
}
);
layerId = "CF015620-3929-45BF-A6BE-C5D8AFCEAD19";
shapes = (
{
alignment = -1;
ref = U;
},
{
closed = 1;
nodes = (
(560,634,ls),
(657,636,o),
(686,694,o),
(686,750,cs),
(686,784,o),
(669,803,o),
(644,803,cs),
(618,803,o),
(602,783,o),
(602,758,cs,{
name = "";
}),
(602,723,o),
(587,710,o),
(543,710,c),
(543,634,l)
);
}
);
width = 642.5;
},
{
anchors = (
{
name = bottom;
pos = (313,0);
},
{
name = top;
pos = (313,700);
}
);
layerId = "0A7BF5CC-8360-449C-B03A-1C2F0CDBB92F";
shapes = (
{
alignment = -1;
ref = U;
},
{
closed = 1;
nodes = (
(565,658,ls),
(631,658,o),
(670,698,o),
(670,763,cs),
(670,786,o),
(659,798,o),
(642,798,cs),
(625,798,o),
(613,784,o),
(613,767,cs),
(613,721,o),
(593,710,o),
(544,710,c),
(544,658,l)
);
}
);
width = 625;
}
);
metricLeft = "=U";
unicode = 431;
},
{
glyphname = Uogonek;
lastChange = "2022-01-26 16:30:56 +0000";
layers = (
{
layerId = "6242D68C-0A25-4F05-8F2A-2075F7C4A210";
shapes = (
{
ref = U;
},
{
closed = 1;
nodes = (
(408,80,l),
(402,53,ls),
(390,1,o),
(276,0,o),
(276,-108,cs),
(276,-178,o),
(334,-215,o),
(412,-215,cs),
(461,-215,o),
(505,-198,o),
(530,-172,cs),
(547,-155,o),
(553,-137,o),
(553,-119,cs),
(553,-80,o),
(522,-57,o),
(487,-57,cs),
(467,-57,o),
(450,-65,o),
(436,-77,cs),
(428,-84,o),
(413,-94,o),
(400,-94,cs),
(392,-94,o),
(386,-89,o),
(386,-81,cs),
(386,-48,o),
(488,3,o),
(532,45,c),
(526,75,l)
);
}
);
width = 716;
},
{
layerId = "3D52442A-254C-4C79-B742-A98FD72DF947";
shapes = (
{
ref = U;
},
{
closed = 1;
nodes = (
(450,56,l),
(404,13,ls),
(373,-16,o),
(320,-62,o),
(320,-128,cs),
(320,-184,o),
(362,-215,o),
(412,-215,cs),
(449,-215,o),
(476,-200,o),
(495,-175,cs),
(499,-169,o),
(503,-164,o),
(503,-155,cs),
(503,-143,o),
(495,-136,o),
(485,-136,cs),
(475,-136,o),
(470,-142,o),
(465,-147,cs),
(446,-166,o),
(433,-174,o),
(414,-174,cs),
(383,-174,o),
(366,-155,o),
(366,-129,cs),
(366,-88,o),
(401,-38,o),
(447,5,cs),
(486,41,l)
);
}
);
width = 650;
},
{
layerId = "CF015620-3929-45BF-A6BE-C5D8AFCEAD19";
shapes = (
{
alignment = -1;
ref = U;
},
{
closed = 1;
nodes = (
(419,66,l),
(385,31,ls),
(365,3,o),
(296,-40,o),
(296,-116,cs),
(296,-181,o),
(348,-214,o),
(405,-215,cs),
(434,-216,o),
(470,-209,o),
(499,-178,cs),
(510,-168,o),
(516,-154,o),
(516,-140,cs),
(516,-117,o),
(498,-98,o),
(473,-98,cs),
(459,-98,o),
(448,-104,o),
(439,-112,cs),
(426,-125,o),
(414,-129,o),
(406,-129,cs),
(385,-129,o),
(380,-115,o),
(380,-105,cs),
(380,-65,o),
(451,-3,o),
(495,39,cs),
(513,65,l)
);
}
);
width = 666.5;
},
{
layerId = "0A7BF5CC-8360-449C-B03A-1C2F0CDBB92F";
shapes = (
{
alignment = -1;
ref = U;
},
{
closed = 1;
nodes = (
(436,59,l),
(392,18,ls),
(365,-6,o),
(312,-58,o),
(312,-124,cs),
(312,-183,o),
(357,-214,o),
(408,-215,cs),
(437,-216,o),
(467,-206,o),
(492,-178,cs),
(498,-171,o),
(503,-162,o),
(503,-151,cs),
(503,-136,o),
(493,-124,o),
(477,-124,cs),
(466,-124,o),
(459,-130,o),
(453,-136,cs),
(436,-153,o),
(424,-157,o),
(411,-157,cs),
(383,-157,o),
(372,-140,o),
(372,-121,cs),
(372,-80,o),
(420,-22,o),
(465,21,cs),
(497,51,l)
);
}
);
width = 650;
}
);
metricLeft = "=U";
metricRight = "=U";
unicode = 370;
},
{
glyphname = V;
lastChange = "2022-01-26 16:30:56 +0000";
layers = (
{
background = {
shapes = (
{
attr = {
lineCapEnd = "1";
lineCapStart = "1";
strokeWidth = 155;
};
closed = 0;
nodes = (
(77,709,l),
(312,26,l),
(550,709,l)
);
}
);
};
layerId = "6242D68C-0A25-4F05-8F2A-2075F7C4A210";
shapes = (
{
closed = 1;
nodes = (
(355,-10,o),
(378,28,o),
(393,68,cs),
(601,607,ls),
(604,615,o),
(606,626,o),
(606,635,cs),
(606,677,o),
(572,710,o),
(527,710,cs),
(494,710,o),
(466,688,o),
(456,658,cs),
(286,172,l),
(339,172,l),
(170,658,ls),
(160,688,o),
(132,710,o),
(99,710,cs),
(54,710,o),
(20,677,o),
(20,635,cs),
(20,626,o),
(22,615,o),
(25,607,cs),
(232,68,ls),
(247,28,o),
(269,-10,o),
(312,-10,cs)
);
}
);
width = 626;
},
{
background = {
shapes = (
{
attr = {
strokeWidth = 2;
};
closed = 0;
nodes = (
(52,669,l),
(277,15,l),
(505,669,l)
);
}
);
};
layerId = "3D52442A-254C-4C79-B742-A98FD72DF947";
shapes = (
{
closed = 1;
nodes = (
(283,-10,o),
(292,-3,o),
(295,5,cs),
(525,679,ls),
(527,685,o),
(527,691,o),
(524,697,cs),
(521,704,o),
(513,710,o),
(503,710,cs),
(493,710,o),
(484,704,o),
(481,695,cs),
(268,60,l),
(278,60,l),
(65,695,ls),
(62,704,o),
(53,710,o),
(43,710,cs),
(32,710,o),
(24,704,o),
(21,696,cs),
(19,691,o),
(19,685,o),
(21,679,cs),
(251,5,ls),
(254,-3,o),
(263,-10,o),
(273,-10,cs)
);
}
);
width = 546;
},
{
layerId = "CF015620-3929-45BF-A6BE-C5D8AFCEAD19";
shapes = (
{
closed = 1;
nodes = (
(318,-14,o),
(338,7,o),
(350,40,cs),
(564,649,ls),
(566,654,o),
(567,660,o),
(567,666,cs),
(567,693,o),
(544,714,o),
(517,714,cs),
(496,714,o),
(477,700,o),
(471,681,cs),
(276,107,l),
(311,107,l),
(116,681,ls),
(110,700,o),
(92,714,o),
(71,714,cs),
(43,714,o),
(20,693,o),
(20,666,cs),
(20,660,o),
(21,654,o),
(23,649,cs),
(237,40,ls),
(249,7,o),
(268,-14,o),
(293,-14,cs)
);
}
);
width = 587;
},
{
layerId = "0A7BF5CC-8360-449C-B03A-1C2F0CDBB92F";
shapes = (
{
closed = 1;
nodes = (
(295,-13,o),
(309,-2,o),
(316,18,cs),
(539,671,ls),
(540,676,o),
(541,681,o),
(539,687,cs),
(538,701,o),
(524,713,o),
(508,713,cs),
(495,713,o),
(483,704,o),
(479,692,cs),
(270,73,l),
(290,73,l),
(82,692,ls),
(78,704,o),
(66,713,o),
(52,713,cs),
(36,713,o),
(22,701,o),
(21,686,cs),
(20,681,o),
(20,676,o),
(22,671,cs),
(245,18,ls),
(252,-2,o),
(266,-13,o),
(280,-13,cs)
);
}
);
width = 560;
}
);
metricLeft = A;
metricRight = A;
unicode = 86;
},
{
glyphname = W;
lastChange = "2022-01-26 16:30:56 +0000";
layers = (
{
anchors = (
{
name = bottom;
pos = (423,-2);
},
{
name = top;
pos = (415,700);
}
);
background = {
shapes = (
{
attr = {
strokeWidth = 2;
};
closed = 0;
nodes = (
(94,642,l),
(267,60,l),
(416,641,l)
);
},
{
attr = {
strokeWidth = 2;
};
closed = 0;
nodes = (
(416,640,l),
(583,60,l),
(733,640,l)
);
},
{
closed = 1;
nodes = (
(262,334,l),
(166,656,ls),
(157,687,o),
(128,710,o),
(94,710,cs),
(53,710,o),
(19,676,o),
(19,635,cs),
(19,628,o),
(20,620,o),
(22,614,cs),
(272,-228,l),
(489,615,ls),
(490,621,o),
(491,628,o),
(491,634,cs),
(491,675,o),
(457,709,o),
(416,709,cs),
(381,709,o),
(352,685,o),
(343,653,cs)
);
},
{
closed = 1;
nodes = (
(579,338,l),
(488,654,ls),
(479,685,o),
(450,708,o),
(416,708,cs),
(375,708,o),
(341,674,o),
(341,633,cs),
(341,626,o),
(342,619,o),
(344,612,cs),
(587,-232,l),
(806,614,ls),
(807,620,o),
(808,627,o),
(808,633,cs),
(808,674,o),
(774,708,o),
(733,708,cs),
(698,708,o),
(669,684,o),
(660,652,cs)
);
}
);
};
layerId = "6242D68C-0A25-4F05-8F2A-2075F7C4A210";
shapes = (
{
closed = 1;
nodes = (
(288,-10,o),
(314,28,o),
(326,68,cs),
(427,393,l),
(398,393,l),
(505,68,ls),
(518,28,o),
(543,-10,o),
(586,-10,cs),
(629,-10,o),
(656,28,o),
(666,68,cs),
(804,607,ls),
(806,615,o),
(809,626,o),
(809,635,cs),
(809,677,o),
(775,710,o),
(730,710,cs),
(697,710,o),
(666,688,o),
(659,658,cs),
(555,219,l),
(586,218,l),
(483,656,ls),
(476,687,o),
(445,710,o),
(415,710,cs),
(384,710,o),
(354,687,o),
(346,656,cs),
(231,218,l),
(268,219,l),
(170,658,ls),
(163,688,o),
(132,710,o),
(99,710,cs),
(54,710,o),
(20,677,o),
(20,635,cs),
(20,626,o),
(23,615,o),
(25,607,cs),
(165,68,ls),
(175,28,o),
(202,-10,o),
(245,-10,cs)
);
}
);
width = 829;
},
{
anchors = (
{
name = bottom;
pos = (430,0);
},
{
name = top;
pos = (424,700);
}
);
background = {
shapes = (
{
attr = {
strokeWidth = 2;
};
closed = 0;
nodes = (
(35,702,l),
(244,0,l),
(424,701,l)
);
},
{
attr = {
strokeWidth = 2;
};
closed = 0;
nodes = (
(424,700,l),
(625,0,l),
(806,700,l)
);
},
{
closed = 1;
nodes = (
(242,86,l),
(63,688,ls),
(60,698,o),
(52,705,o),
(41,705,cs),
(26,705,o),
(15,691,o),
(19,676,cs),
(246,-86,l),
(441,676,ls),
(445,690,o),
(434,704,o),
(419,704,cs),
(408,704,o),
(399,696,o),
(396,686,cs)
);
},
{
closed = 1;
nodes = (
(624,87,l),
(452,686,ls),
(449,696,o),
(440,703,o),
(430,703,cs),
(415,703,o),
(404,689,o),
(407,674,c),
(626,-87,l),
(823,675,ls),
(827,689,o),
(816,703,o),
(801,703,cs),
(790,703,o),
(781,695,o),
(778,685,cs)
);
}
);
};
layerId = "3D52442A-254C-4C79-B742-A98FD72DF947";
shapes = (
{
closed = 1;
nodes = (
(253,-10,o),
(263,-3,o),
(265,5,cs),
(428,617,l),
(418,617,l),
(581,5,ls),
(583,-3,o),
(593,-10,o),
(603,-10,cs),
(613,-10,o),
(623,-3,o),
(625,5,cs),
(825,679,ls),
(827,685,o),
(827,691,o),
(825,696,cs),
(822,704,o),
(814,710,o),
(803,710,cs),
(793,710,o),
(784,704,o),
(781,695,cs),
(597,59,l),
(608,58,l),
(445,695,ls),
(443,704,o),
(434,710,o),
(423,710,cs),
(412,710,o),
(403,704,o),
(401,695,cs),
(238,58,l),
(249,59,l),
(65,695,ls),
(62,704,o),
(53,710,o),
(43,710,cs),
(32,710,o),
(24,704,o),
(21,696,cs),
(19,691,o),
(19,685,o),
(21,679,cs),
(221,5,ls),
(223,-3,o),
(233,-10,o),
(243,-10,cs)
);
}
);
width = 846;
},
{
anchors = (
{
name = bottom;
pos = (414,-1);
},
{
name = top;
pos = (412,700);
}
);
layerId = "CF015620-3929-45BF-A6BE-C5D8AFCEAD19";
shapes = (
{
closed = 1;
nodes = (
(249,-14,o),
(271,7,o),
(281,40,cs),
(421,528,l),
(399,528,l),
(543,40,ls),
(553,7,o),
(575,-14,o),
(600,-14,cs),
(625,-14,o),
(649,7,o),
(656,40,cs),
(800,649,ls),
(802,654,o),
(803,660,o),
(803,666,cs),
(803,693,o),
(780,714,o),
(753,714,cs),
(732,714,o),
(711,700,o),
(707,681,cs),
(581,129,l),
(608,130,l),
(459,673,ls),
(453,697,o),
(432,714,o),
(411,714,cs),
(389,714,o),
(369,697,o),
(363,673,cs),
(213,130,l),
(240,129,l),
(116,681,ls),
(112,700,o),
(92,714,o),
(71,714,cs),
(43,714,o),
(20,693,o),
(20,666,cs),
(20,660,o),
(22,654,o),
(23,649,cs),
(167,40,ls),
(175,7,o),
(199,-14,o),
(224,-14,cs)
);
}
);
width = 823;
},
{
anchors = (
{
name = bottom;
pos = (421,0);
},
{
name = top;
pos = (418,700);
}
);
layerId = "0A7BF5CC-8360-449C-B03A-1C2F0CDBB92F";
shapes = (
{
closed = 1;
nodes = (
(245,-13,o),
(260,-2,o),
(266,18,cs),
(424,595,l),
(409,595,l),
(568,18,ls),
(574,-2,o),
(589,-13,o),
(604,-13,cs),
(618,-13,o),
(635,-2,o),
(639,18,cs),
(812,671,ls),
(814,676,o),
(814,681,o),
(813,686,cs),
(812,701,o),
(798,713,o),
(782,713,cs),
(768,713,o),
(755,704,o),
(752,692,cs),
(594,79,l),
(612,79,l),
(448,687,ls),
(444,702,o),
(431,713,o),
(416,713,cs),
(402,713,o),
(389,702,o),
(385,687,cs),
(223,79,l),
(240,79,l),
(82,692,ls),
(79,704,o),
(66,713,o),
(52,713,cs),
(36,713,o),
(22,701,o),
(21,686,cs),
(20,681,o),
(20,676,o),
(22,671,cs),
(195,18,ls),
(199,-2,o),
(216,-13,o),
(230,-13,cs)
);
}
);
width = 833.5;
}
);
metricLeft = A;
metricRight = A;
unicode = 87;
},
{
glyphname = W.ss02;
lastChange = "2022-01-26 16:30:56 +0000";
layers = (
{
layerId = "6242D68C-0A25-4F05-8F2A-2075F7C4A210";
shapes = (
{
closed = 1;
nodes = (
(325,-10,o),
(353,28,o),
(363,68,cs),
(447,393,l),
(413,393,l),
(496,68,ls),
(506,28,o),
(534,-10,o),
(577,-10,cs),
(620,-10,o),
(645,28,o),
(657,68,cs),
(824,607,ls),
(827,615,o),
(829,626,o),
(829,635,cs),
(829,677,o),
(795,710,o),
(750,710,cs),
(717,710,o),
(687,688,o),
(679,658,cs),
(563,219,l),
(594,218,l),
(503,656,ls),
(497,687,o),
(465,710,o),
(430,710,cs),
(394,710,o),
(362,687,o),
(356,656,cs),
(265,218,l),
(296,219,l),
(180,658,ls),
(172,688,o),
(142,710,o),
(109,710,cs),
(64,710,o),
(30,677,o),
(30,635,cs),
(30,626,o),
(32,615,o),
(35,607,cs),
(202,68,ls),
(214,28,o),
(239,-10,o),
(282,-10,cs)
);
}
);
width = 859;
},
{
layerId = "3D52442A-254C-4C79-B742-A98FD72DF947";
shapes = (
{
closed = 1;
nodes = (
(263,-10,o),
(273,-3,o),
(275,5,cs),
(438,617,l),
(428,617,l),
(591,5,ls),
(593,-3,o),
(603,-10,o),
(613,-10,cs),
(623,-10,o),
(633,-3,o),
(635,5,cs),
(835,679,ls),
(837,685,o),
(837,691,o),
(835,696,cs),
(832,704,o),
(824,710,o),
(813,710,cs),
(803,710,o),
(794,704,o),
(791,695,cs),
(607,59,l),
(618,58,l),
(455,695,ls),
(453,704,o),
(444,710,o),
(433,710,cs),
(422,710,o),
(413,704,o),
(411,695,cs),
(248,58,l),
(259,59,l),
(75,695,ls),
(72,704,o),
(63,710,o),
(53,710,cs),
(42,710,o),
(34,704,o),
(31,696,cs),
(29,691,o),
(29,685,o),
(31,679,cs),
(231,5,ls),
(233,-3,o),
(243,-10,o),
(253,-10,cs)
);
}
);
width = 867;
},
{
layerId = "CF015620-3929-45BF-A6BE-C5D8AFCEAD19";
shapes = (
{
closed = 1;
nodes = (
(281,-14,o),
(301,3,o),
(308,28,cs),
(457,532,l),
(427,532,l),
(576,28,ls),
(583,3,o),
(603,-14,o),
(626,-14,cs),
(649,-14,o),
(666,3,o),
(673,28,cs),
(845,646,ls),
(847,650,o),
(847,655,o),
(847,660,cs),
(847,687,o),
(826,709,o),
(798,709,cs),
(775,709,o),
(755,694,o),
(750,674,cs),
(612,151,l),
(635,151,l),
(490,670,ls),
(483,695,o),
(467,709,o),
(442,709,cs),
(417,709,o),
(401,695,o),
(394,670,cs),
(249,151,l),
(272,151,l),
(127,674,ls),
(121,694,o),
(102,709,o),
(79,709,cs),
(51,709,o),
(30,687,o),
(30,660,cs),
(30,655,o),
(31,650,o),
(32,646,cs),
(211,28,ls),
(219,3,o),
(235,-14,o),
(258,-14,cs)
);
}
);
width = 877;
},
{
layerId = "0A7BF5CC-8360-449C-B03A-1C2F0CDBB92F";
shapes = (
{
closed = 1;
nodes = (
(265,-13,o),
(278,-4,o),
(282,10,cs),
(449,598,l),
(430,598,l),
(597,10,ls),
(601,-4,o),
(615,-13,o),
(628,-13,cs),
(641,-13,o),
(653,-4,o),
(657,10,cs),
(844,669,ls),
(845,674,o),
(845,678,o),
(844,682,cs),
(843,697,o),
(830,709,o),
(814,709,cs),
(799,709,o),
(786,700,o),
(783,687,cs),
(618,94,l),
(634,94,l),
(470,685,ls),
(466,701,o),
(456,710,o),
(440,710,cs),
(424,710,o),
(414,701,o),
(409,685,cs),
(246,94,l),
(262,94,l),
(92,687,ls),
(88,700,o),
(76,709,o),
(61,709,cs),
(45,709,o),
(32,697,o),
(31,682,cs),
(30,678,o),
(30,674,o),
(31,669,cs),
(223,10,ls),
(227,-4,o),
(239,-13,o),
(252,-13,cs)
);
}
);
width = 875;
}
);
},
{
glyphname = X;
lastChange = "2022-01-26 16:30:56 +0000";
layers = (
{
anchors = (
{
name = bottom;
pos = (335,0);
},
{
name = top;
pos = (335,700);
}
);
background = {
shapes = (
{
attr = {
strokeWidth = 2;
};
closed = 0;
nodes = (
(126,640,l),
(534,60,l)
);
},
{
attr = {
strokeWidth = 2;
};
closed = 0;
nodes = (
(533,642,l),
(341,366,l)
);
},
{
attr = {
strokeWidth = 2;
};
closed = 0;
nodes = (
(331,366,l),
(119,60,l)
);
}
);
};
layerId = "6242D68C-0A25-4F05-8F2A-2075F7C4A210";
shapes = (
{
closed = 1;
nodes = (
(575,-10,o),
(610,25,o),
(610,68,cs),
(610,85,o),
(604,102,o),
(595,115,cs),
(204,678,ls),
(190,698,o),
(166,711,o),
(140,711,cs),
(97,711,o),
(62,676,o),
(62,633,cs),
(62,616,o),
(67,601,o),
(76,588,cs),
(469,21,ls),
(482,2,o),
(506,-10,o),
(532,-10,cs)
);
},
{
closed = 1;
nodes = (
(606,585,ls),
(616,598,o),
(621,615,o),
(621,632,cs),
(621,675,o),
(586,710,o),
(543,710,cs),
(517,710,o),
(494,698,o),
(480,679,cs),
(253,372,l),
(363,263,l)
);
},
{
closed = 1;
nodes = (
(138,-10,o),
(162,2,o),
(176,23,cs),
(359,286,l),
(246,392,l),
(48,113,ls),
(39,100,o),
(34,85,o),
(34,68,cs),
(34,25,o),
(69,-10,o),
(112,-10,cs)
);
}
);
width = 660;
},
{
anchors = (
{
name = bottom;
pos = (310,0);
},
{
name = top;
pos = (310,700);
}
);
layerId = "3D52442A-254C-4C79-B742-A98FD72DF947";
shapes = (
{
closed = 1;
nodes = (
(553,-6,o),
(563,4,o),
(563,17,cs),
(563,22,o),
(561,27,o),
(559,30,cs),
(90,697,ls,{
name = "";
}),
(86,703,o),
(79,706,o),
(71,706,cs),
(58,706,o),
(48,696,o),
(48,683,cs),
(48,678,o),
(50,673,o),
(52,670,cs),
(521,3,ls,{
name = "";
}),
(525,-3,o),
(532,-6,o),
(540,-6,cs)
);
},
{
closed = 1;
nodes = (
(558,672,ls,{
name = "";
}),
(560,675,o),
(562,680,o),
(562,685,cs),
(562,698,o),
(552,708,o),
(539,708,cs),
(531,708,o),
(524,704,o),
(520,698,cs),
(291,368,l),
(329,342,l)
);
},
{
closed = 1;
nodes = (
(78,-6,o),
(85,-2,o),
(89,4,cs),
(321,339,l),
(288,372,l),
(51,30,ls,{
name = "";
}),
(49,27,o),
(47,22,o),
(47,17,cs),
(47,4,o),
(57,-6,o),
(70,-6,cs)
);
}
);
width = 603;
},
{
anchors = (
{
name = bottom;
pos = (312,0);
},
{
name = top;
pos = (312,700);
}
);
layerId = "CF015620-3929-45BF-A6BE-C5D8AFCEAD19";
shapes = (
{
closed = 1;
nodes = (
(559,-6,o),
(580,15,o),
(580,43,cs),
(580,53,o),
(576,63,o),
(571,71,cs),
(137,686,ls),
(129,698,o),
(114,707,o),
(97,707,cs),
(70,707,o),
(49,685,o),
(49,658,cs),
(49,648,o),
(52,638,o),
(57,630,cs),
(492,14,ls),
(500,2,o),
(515,-6,o),
(531,-6,cs)
);
},
{
closed = 1;
nodes = (
(568,630,ls),
(573,638,o),
(577,648,o),
(577,658,cs),
(577,686,o),
(555,707,o),
(528,707,cs),
(512,707,o),
(497,699,o),
(488,687,cs),
(274,385,l),
(338,307,l)
);
},
{
closed = 1;
nodes = (
(96,-6,o),
(111,2,o),
(120,15,cs),
(329,313,l),
(265,390,l),
(40,70,ls),
(35,63,o),
(31,53,o),
(31,43,cs),
(31,15,o),
(53,-6,o),
(80,-6,cs)
);
}
);
width = 615;
},
{
anchors = (
{
name = bottom;
pos = (307,0);
},
{
name = top;
pos = (307,700);
}
);
layerId = "0A7BF5CC-8360-449C-B03A-1C2F0CDBB92F";
shapes = (
{
closed = 1;
nodes = (
(553,-6,o),
(567,8,o),
(567,26,cs),
(567,32,o),
(564,39,o),
(561,43,cs),
(103,693,ls,{
name = "";
}),
(97,701,o),
(88,706,o),
(77,706,cs),
(60,706,o),
(46,692,o),
(46,675,cs),
(46,668,o),
(49,662,o),
(52,657,cs),
(510,8,ls,{
name = "";
}),
(516,-1,o),
(525,-6,o),
(536,-6,cs)
);
},
{
closed = 1;
nodes = (
(557,659,ls,{
name = "";
}),
(560,663,o),
(562,670,o),
(562,676,cs),
(562,694,o),
(549,707,o),
(531,707,cs),
(521,707,o),
(511,702,o),
(506,694,cs),
(286,379,l),
(329,332,l)
);
},
{
closed = 1;
nodes = (
(80,-6,o),
(90,0,o),
(95,8,cs),
(320,331,l),
(280,381,l),
(44,43,ls,{
name = "";
}),
(41,39,o),
(39,32,o),
(39,26,cs),
(39,8,o),
(52,-6,o),
(70,-6,cs)
);
}
);
width = 601.5;
}
);
unicode = 88;
},
{
glyphname = Y;
lastChange = "2022-01-26 16:30:56 +0000";
layers = (
{
anchors = (
{
name = bottom;
pos = (300,0);
},
{
name = top;
pos = (300,700);
},
{
name = topleft;
pos = (20,700);
}
);
background = {
shapes = (
{
attr = {
strokeWidth = 2;
};
closed = 0;
nodes = (
(518,640,l),
(303,351,l),
(101,640,l)
);
},
{
attr = {
strokeWidth = 2;
};
closed = 0;
nodes = (
(303,359,l),
(303,60,l)
);
}
);
};
layerId = "6242D68C-0A25-4F05-8F2A-2075F7C4A210";
shapes = (
{
closed = 1;
nodes = (
(346,-10,o),
(381,25,o),
(381,68,cs),
(381,317,l),
(581,585,ls),
(590,598,o),
(596,615,o),
(596,632,cs),
(596,675,o),
(561,710,o),
(518,710,cs),
(492,710,o),
(469,698,o),
(455,679,cs),
(265,422,l),
(344,421,l),
(165,677,ls),
(151,697,o),
(127,710,o),
(101,710,cs),
(58,710,o),
(23,675,o),
(23,632,cs),
(23,615,o),
(28,600,o),
(37,587,cs),
(225,319,l),
(225,68,ls),
(225,25,o),
(260,-10,o),
(303,-10,cs)
);
}
);
width = 600;
},
{
anchors = (
{
name = bottom;
pos = (305,0);
},
{
name = top;
pos = (312,701);
},
{
name = topleft;
pos = (20,700);
}
);
background = {
shapes = (
{
attr = {
strokeWidth = 2;
};
closed = 0;
nodes = (
(565,700,l),
(305,351,l),
(61,700,l)
);
},
{
attr = {
strokeWidth = 2;
};
closed = 0;
nodes = (
(305,361,l),
(305,0,l)
);
}
);
};
layerId = "3D52442A-254C-4C79-B742-A98FD72DF947";
shapes = (
{
closed = 1;
nodes = (
(318,-10,o),
(328,0,o),
(328,13,cs),
(328,344,l),
(571,669,ls),
(574,673,o),
(576,678,o),
(576,683,cs),
(576,696,o),
(565,706,o),
(553,706,cs),
(545,706,o),
(539,703,o),
(534,697,cs),
(294,374,l),
(318,373,l),
(92,698,ls),
(88,704,o),
(81,708,o),
(73,708,cs),
(60,708,o),
(50,698,o),
(50,685,cs),
(50,680,o),
(52,675,o),
(54,672,cs,{
name = "";
}),
(282,344,l),
(282,13,ls),
(282,0,o),
(292,-10,o),
(305,-10,cs)
);
}
);
width = 600;
},
{
anchors = (
{
name = bottom;
pos = (282,0);
},
{
name = top;
pos = (287,700);
},
{
name = topleft;
pos = (9,700);
}
);
layerId = "CF015620-3929-45BF-A6BE-C5D8AFCEAD19";
shapes = (
{
closed = 1;
nodes = (
(311,-10,o),
(333,12,o),
(333,40,cs),
(333,335,l),
(553,631,ls),
(559,639,o),
(562,649,o),
(562,660,cs),
(562,687,o),
(541,709,o),
(514,709,cs),
(497,709,o),
(483,701,o),
(475,689,cs),
(254,392,l),
(313,391,l),
(106,688,ls),
(97,700,o),
(82,709,o),
(66,709,cs),
(39,709,o),
(17,687,o),
(17,660,cs),
(17,650,o),
(21,640,o),
(26,632,cs),
(233,336,l),
(233,40,ls),
(233,12,o),
(255,-10,o),
(283,-10,cs)
);
}
);
width = 570.75;
},
{
anchors = (
{
name = bottom;
pos = (291,0);
},
{
name = top;
pos = (298,701);
},
{
name = topleft;
pos = (13,700);
}
);
layerId = "0A7BF5CC-8360-449C-B03A-1C2F0CDBB92F";
shapes = (
{
closed = 1;
nodes = (
(309,-10,o),
(323,4,o),
(323,22,cs),
(323,343,l),
(557,658,ls),
(561,663,o),
(564,669,o),
(564,676,cs),
(564,694,o),
(550,707,o),
(533,707,cs),
(522,707,o),
(514,703,o),
(508,695,cs),
(272,378,l),
(311,377,l),
(89,695,ls),
(84,703,o),
(74,708,o),
(64,708,cs),
(46,708,o),
(33,695,o),
(33,677,cs),
(33,671,o),
(35,664,o),
(38,660,cs,{
name = "";
}),
(259,343,l),
(259,22,ls),
(259,4,o),
(273,-10,o),
(291,-10,cs)
);
}
);
width = 580.5;
}
);
unicode = 89;
},
{
glyphname = Z;
kernRight = Z;
lastChange = "2022-01-26 16:30:56 +0000";
layers = (
{
anchors = (
{
name = bottom;
pos = (309,0);
},
{
name = center;
pos = (299,360);
},
{
name = top;
pos = (309,700);
}
);
background = {
shapes = (
{
attr = {
strokeWidth = 2;
};
closed = 0;
nodes = (
(124,640,l),
(485,640,l),
(110,61,l),
(485,61,l)
);
},
{
closed = 1;
nodes = (
(509,0,ls),
(550,0,o),
(584,34,o),
(584,75,cs),
(584,116,o),
(550,150,o),
(509,150,cs),
(190,150,l),
(229,93,l),
(539,561,ls),
(571,609,o),
(575,622,o),
(575,641,cs),
(575,681,o),
(547,700,o),
(500,700,cs),
(111,700,ls),
(70,700,o),
(36,666,o),
(36,625,cs),
(36,584,o),
(70,550,o),
(111,550,cs),
(424,550,l),
(392,607,l),
(71,139,ls),
(38,91,o),
(35,78,o),
(35,59,cs),
(35,19,o),
(63,0,o),
(114,0,cs)
);
}
);
};
layerId = "6242D68C-0A25-4F05-8F2A-2075F7C4A210";
shapes = (
{
closed = 1;
nodes = (
(505,0,ls),
(544,0,o),
(575,31,o),
(575,70,cs),
(575,109,o),
(544,140,o),
(505,140,cs),
(190,140,l),
(222,93,l),
(539,561,ls),
(565,600,o),
(575,619,o),
(575,636,cs),
(575,673,o),
(546,700,o),
(505,700,cs),
(110,700,ls),
(71,700,o),
(40,669,o),
(40,630,cs),
(40,591,o),
(71,560,o),
(110,560,cs),
(505,560,l),
(392,607,l),
(71,139,ls),
(38,91,o),
(35,86,o),
(35,66,cs),
(35,31,o),
(66,0,o),
(105,0,cs)
);
}
);
width = 600;
},
{
anchors = (
{
name = bottom;
pos = (278,0);
},
{
name = center;
pos = (278,350);
},
{
name = top;
pos = (278,700);
}
);
background = {
shapes = (
{
attr = {
strokeWidth = 2;
};
closed = 0;
nodes = (
(59,699,l),
(482,699,l),
(42,19,l),
(482,19,l)
);
}
);
};
layerId = "3D52442A-254C-4C79-B742-A98FD72DF947";
shapes = (
{
closed = 1;
nodes = (
(467,0,ls),
(480,0,o),
(490,10,o),
(490,23,cs),
(490,36,o),
(480,46,o),
(467,46,cs),
(78,46,l),
(87,29,l),
(460,662,ls),
(463,667,o),
(464,673,o),
(464,677,cs),
(464,690,o),
(453,700,o),
(438,700,cs),
(59,700,ls),
(46,700,o),
(36,690,o),
(36,677,cs),
(36,664,o),
(46,654,o),
(59,654,cs),
(421,654,l),
(410,671,l),
(39,38,ls),
(36,33,o),
(35,27,o),
(35,23,cs),
(35,10,o),
(46,0,o),
(60,0,cs)
);
}
);
width = 525;
},
{
anchors = (
{
name = bottom;
pos = (286,0);
},
{
name = center;
pos = (283,353);
},
{
name = top;
pos = (286,700);
}
);
layerId = "CF015620-3929-45BF-A6BE-C5D8AFCEAD19";
shapes = (
{
closed = 1;
nodes = (
(492,0,ls),
(516,0,o),
(537,21,o),
(537,45,cs),
(537,70,o),
(516,91,o),
(492,91,cs),
(102,91,l),
(142,53,l),
(511,601,ls),
(527,625,o),
(535,642,o),
(535,656,cs),
(535,681,o),
(515,700,o),
(489,700,cs),
(90,700,ls),
(65,700,o),
(45,680,o),
(45,655,cs),
(45,630,o),
(65,610,o),
(90,610,cs),
(489,610,l),
(424,646,l),
(58,99,ls,{
name = "";
}),
(40,73,o),
(35,59,o),
(35,44,cs),
(35,21,o),
(56,0,o),
(80,0,cs)
);
}
);
width = 569.25;
},
{
anchors = (
{
name = bottom;
pos = (278,0);
},
{
name = center;
pos = (278,350);
},
{
name = top;
pos = (278,700);
}
);
layerId = "0A7BF5CC-8360-449C-B03A-1C2F0CDBB92F";
shapes = (
{
closed = 1;
nodes = (
(477,0,ls),
(494,0,o),
(507,14,o),
(507,30,cs),
(507,47,o),
(494,60,o),
(477,60,cs),
(75,60,l),
(101,35,l),
(481,638,ls),
(489,650,o),
(493,661,o),
(493,670,cs),
(493,687,o),
(479,700,o),
(461,700,cs),
(71,700,ls),
(55,700,o),
(41,687,o),
(41,670,cs),
(41,654,o),
(55,640,o),
(71,640,cs),
(453,640,l),
(423,665,l),
(46,62,ls),
(38,50,o),
(35,39,o),
(35,30,cs),
(35,14,o),
(49,0,o),
(66,0,cs)
);
}
);
width = 542;
}
);
unicode = 90;
},
{
glyphname = a;
lastChange = "2022-01-26 16:30:56 +0000";
layers = (
{
anchors = (
{
name = bottom;
pos = (301,0);
},
{
name = ogonek;
pos = (498,0);
},
{
name = top;
pos = (293,513);
}
);
layerId = "6242D68C-0A25-4F05-8F2A-2075F7C4A210";
shapes = (
{
closed = 1;
nodes = (
(315,-15,o),
(379,8,o),
(408,69,c),
(411,69,l),
(411,67,ls,{
name = "";
}),
(411,16,o),
(442,-7,o),
(488,-8,cs),
(542,-9,o),
(573,23,o),
(573,63,cs),
(573,99,o),
(548,119,o),
(525,128,cs),
(512,133,o),
(509,137,o),
(509,154,cs),
(509,333,ls),
(509,456,o),
(428,529,o),
(304,529,cs),
(210,529,o),
(81,488,o),
(81,405,cs),
(81,364,o),
(113,341,o),
(150,341,cs),
(178,341,o),
(203,349,o),
(217,366,cs),
(228,380,o),
(250,402,o),
(292,402,cs),
(319,402,o),
(361,394,o),
(361,366,cs),
(361,333,o),
(327,321,o),
(246,316,cs),
(93,307,o),
(40,233,o),
(40,148,cs),
(40,36,o),
(140,-15,o),
(247,-15,cs)
);
},
{
closed = 1;
nodes = (
(224,113,o),
(187,126,o),
(187,158,cs),
(187,179,o),
(203,195,o),
(262,207,cs),
(320,219,o),
(338,224,o),
(355,234,cs),
(360,237,o),
(362,237,o),
(362,233,cs),
(362,208,ls),
(362,147,o),
(314,113,o),
(259,113,cs)
);
}
);
width = 603;
},
{
anchors = (
{
name = bottom;
pos = (242,0);
},
{
name = ogonek;
pos = (422,0);
},
{
name = top;
pos = (256,515);
}
);
background = {
shapes = (
{
closed = 1;
nodes = (
(265,-16,o),
(332,0,o),
(370,68,c),
(372,72,o),
(373,71,o),
(373,68,c),
(373,49,ls),
(373,19,o),
(397,-8,o),
(429,-8,cs),
(436,-8,ls),
(469,-8,o),
(488,9,o),
(488,32,cs),
(488,53,o),
(472,72,o),
(453,72,cs),
(446,72,o),
(446,83,o),
(446,102,cs),
(446,335,ls),
(446,435,o),
(409,530,o),
(258,530,cs),
(148,530,o),
(92,462,o),
(75,424,cs),
(64,400,o),
(74,368,o),
(109,368,cs),
(128,368,o),
(138,377,o),
(148,395,cs),
(161,418,o),
(193,453,o),
(259,453,cs),
(339,453,o),
(364,411,o),
(364,369,cs),
(364,322,o),
(323,305,o),
(228,304,cs),
(95,303,o),
(32,220,o),
(32,138,cs),
(32,58,o),
(92,-13,o),
(204,-15,cs)
);
},
{
closed = 1;
nodes = (
(112,184,o),
(147,229,o),
(229,229,cs),
(292,229,o),
(344,256,o),
(363,276,c),
(366,281,o),
(366,277,o),
(366,276,cs),
(366,254,l),
(366,170,ls),
(366,98,o),
(297,63,o),
(217,62,cs),
(136,61,o),
(112,109,o),
(112,143,cs)
);
},
{
closed = 1;
nodes = (
(132,30,o),
(95,76,o),
(95,136,cs),
(95,193,o),
(134,251,o),
(233,249,cs),
(288,248,o),
(335,264,o),
(372,290,cs),
(378,294,o),
(384,301,o),
(384,292,cs),
(384,177,ls),
(384,102,o),
(313,30,o),
(216,30,cs)
);
}
);
};
layerId = "3D52442A-254C-4C79-B742-A98FD72DF947";
shapes = (
{
closed = 1;
nodes = (
(299,-15,o),
(355,13,o),
(393,78,c),
(396,78,l),
(396,47,ls),
(396,21,o),
(405,-3,o),
(443,-3,cs),
(469,-3,o),
(481,6,o),
(481,21,cs),
(481,35,o),
(471,43,o),
(457,43,cs),
(442,43,o),
(439,50,o),
(439,70,cs),
(439,350,ls),
(439,463,o),
(387,530,o),
(259,530,cs),
(133,530,o),
(85,456,o),
(76,410,cs),
(73,395,o),
(81,384,o),
(94,384,cs),
(108,384,o),
(116,392,o),
(121,407,cs),
(134,446,o),
(169,486,o),
(259,486,cs),
(358,486,o),
(390,433,o),
(390,375,cs),
(390,323,o),
(339,289,o),
(228,288,cs),
(92,287,o),
(40,215,o),
(40,132,cs),
(40,48,o),
(99,-15,o),
(208,-15,cs)
);
},
{
closed = 1;
nodes = (
(122,29,o),
(85,76,o),
(85,136,cs),
(85,193,o),
(123,248,o),
(225,247,cs),
(297,246,o),
(350,264,o),
(387,290,cs),
(392,293,o),
(394,294,o),
(394,291,cs),
(394,197,ls),
(394,102,o),
(323,29,o),
(216,29,cs)
);
}
);
width = 511;
},
{
anchors = (
{
name = bottom;
pos = (231,0);
},
{
name = ogonek;
pos = (487,0);
},
{
name = top;
pos = (310,515);
}
);
associatedMasterId = "6242D68C-0A25-4F05-8F2A-2075F7C4A210";
layerId = "56CFEAC8-FE9D-48AA-9077-34FAA0BCD962";
name = "Extrabold Alt 1";
shapes = (
{
closed = 1;
nodes = (
(288,-17,o),
(336,14,o),
(366,59,c),
(369,59,l),
(376,45,ls),
(393,11,o),
(439,-8,o),
(487,-8,cs),
(500,-8,ls),
(551,-8,o),
(580,25,o),
(580,66,cs),
(580,107,o),
(552,132,o),
(528,132,cs),
(515,132,o),
(512,140,o),
(512,157,cs),
(512,300,ls),
(512,411,o),
(466,530,o),
(289,530,cs),
(186,530,o),
(82,480,o),
(82,404,cs),
(82,362,o),
(114,341,o),
(150,341,cs),
(183,341,o),
(197,359,o),
(209,365,cs),
(229,375,o),
(266,383,o),
(295,383,cs),
(333,383,o),
(356,369,o),
(356,345,cs),
(356,327,o),
(343,305,o),
(259,304,cs),
(114,302,o),
(38,233,o),
(38,135,cs),
(38,38,o),
(115,-12,o),
(216,-15,cs)
);
},
{
closed = 1;
nodes = (
(184,190,o),
(215,208,o),
(260,208,cs),
(290,208,o),
(325,218,o),
(358,235,c),
(362,237,o),
(362,236,o),
(362,231,cs),
(362,225,l),
(362,215,ls),
(362,154,o),
(326,118,o),
(254,117,cs),
(209,116,o),
(184,132,o),
(184,159,cs)
);
}
);
visible = 1;
width = 611;
},
{
anchors = (
{
name = bottom;
pos = (315,0);
},
{
name = ogonek;
pos = (512,0);
},
{
name = top;
pos = (307,513);
}
);
associatedMasterId = "6242D68C-0A25-4F05-8F2A-2075F7C4A210";
layerId = "F66BA857-4334-4112-8D5F-6191DD60B8F4";
name = "Extrabold Alt 2";
shapes = (
{
closed = 1;
nodes = (
(302,-16,o),
(369,0,o),
(407,63,c),
(410,63,l),
(410,50,l),
(410,5,o),
(459,-8,o),
(506,-8,cs),
(562,-8,o),
(597,25,o),
(597,66,cs),
(597,107,o),
(569,131,o),
(545,131,cs),
(532,131,o),
(529,140,o),
(529,157,cs),
(529,333,ls),
(529,456,o),
(443,529,o),
(306,529,cs),
(217,529,o),
(81,488,o),
(81,405,cs),
(81,364,o),
(113,341,o),
(150,341,cs),
(178,341,o),
(203,349,o),
(217,366,cs),
(228,380,o),
(250,402,o),
(304,402,cs),
(339,402,o),
(381,394,o),
(381,366,cs),
(381,333,o),
(347,321,o),
(266,316,cs),
(93,306,o),
(40,233,o),
(40,148,cs),
(40,38,o),
(137,-15,o),
(241,-15,cs)
);
},
{
closed = 1;
nodes = (
(224,113,o),
(187,134,o),
(187,162,cs),
(187,188,o),
(202,195,o),
(282,207,cs),
(340,216,o),
(361,221,o),
(376,234,c),
(378,235,o),
(379,235,o),
(379,233,cs),
(379,194,ls),
(379,147,o),
(334,113,o),
(272,113,cs)
);
}
);
visible = 1;
width = 611;
},
{
anchors = (
{
name = bottom;
pos = (273,0);
},
{
name = ogonek;
pos = (435,0);
},
{
name = top;
pos = (274,515);
}
);
layerId = "CF015620-3929-45BF-A6BE-C5D8AFCEAD19";
shapes = (
{
closed = 1;
nodes = (
(299,-16,o),
(355,18,o),
(386,65,c),
(389,65,l),
(389,57,ls),
(389,18,o),
(417,-8,o),
(454,-8,cs),
(494,-8,o),
(515,13,o),
(515,40,cs),
(515,65,o),
(497,84,o),
(477,86,cs),
(468,87,o),
(466,93,o),
(466,106,cs),
(466,335,ls),
(466,440,o),
(420,530,o),
(276,530,cs),
(170,530,o),
(95,469,o),
(83,419,cs),
(74,391,o),
(89,360,o),
(124,360,cs),
(146,360,o),
(160,370,o),
(171,388,cs),
(184,409,o),
(213,440,o),
(273,440,cs),
(340,440,o),
(369,407,o),
(369,368,cs),
(369,325,o),
(330,309,o),
(239,307,cs),
(101,304,o),
(40,223,o),
(40,141,cs),
(40,53,o),
(110,-14,o),
(221,-15,cs)
);
},
{
closed = 1;
nodes = (
(164,74,o),
(137,113,o),
(137,147,cs),
(137,183,o),
(167,221,o),
(243,224,cs),
(305,227,o),
(347,242,o),
(367,257,c),
(371,262,o),
(372,259,o),
(372,257,cs),
(372,201,ls),
(372,131,o),
(307,76,o),
(234,75,cs)
);
}
);
width = 549;
},
{
anchors = (
{
name = bottom;
pos = (253,0);
},
{
name = ogonek;
pos = (418,0);
},
{
name = top;
pos = (262,515);
}
);
layerId = "0A7BF5CC-8360-449C-B03A-1C2F0CDBB92F";
shapes = (
{
closed = 1;
nodes = (
(296,-16,o),
(351,17,o),
(386,71,c),
(389,71,l),
(389,50,ls),
(389,20,o),
(407,-6,o),
(443,-6,cs),
(474,-6,o),
(489,8,o),
(489,27,cs),
(489,44,o),
(476,58,o),
(459,58,cs),
(448,58,o),
(446,64,o),
(446,80,cs),
(446,343,ls),
(446,449,o),
(402,530,o),
(263,530,cs),
(145,530,o),
(93,459,o),
(80,417,cs),
(73,398,o),
(81,375,o),
(105,375,cs),
(122,375,o),
(131,385,o),
(139,401,cs),
(152,432,o),
(185,470,o),
(263,470,cs),
(353,470,o),
(381,422,o),
(381,372,cs),
(381,323,o),
(335,297,o),
(232,296,cs),
(98,295,o),
(40,218,o),
(40,135,cs),
(40,53,o),
(100,-15,o),
(210,-15,cs)
);
},
{
closed = 1;
nodes = (
(133,45,o),
(103,93,o),
(103,140,cs),
(103,189,o),
(139,239,o),
(231,238,cs),
(299,238,o),
(350,256,o),
(379,278,cs),
(383,282,o),
(385,280,o),
(385,278,cs),
(385,198,ls),
(385,114,o),
(314,46,o),
(221,46,cs)
);
}
);
width = 521;
}
);
unicode = 97;
},
{
glyphname = a.ss01;
lastChange = "2022-01-26 16:30:56 +0000";
layers = (
{
anchors = (
{
name = bottom;
pos = (315,0);
},
{
name = ogonek;
pos = (547,0);
},
{
name = top;
pos = (301,515);
}
);
layerId = "6242D68C-0A25-4F05-8F2A-2075F7C4A210";
shapes = (
{
closed = 1;
nodes = (
(346,-15,o),
(408,23,o),
(428,89,c),
(433,89,l),
(433,87,ls),
(433,21,o),
(466,-10,o),
(536,-10,cs),
(592,-10,o),
(624,13,o),
(624,53,cs),
(624,82,o),
(609,110,o),
(579,110,cs),
(562,110,o),
(559,133,o),
(559,177,cs),
(559,445,ls),
(559,488,o),
(528,520,o),
(485,520,cs),
(445,520,o),
(411,499,o),
(411,451,cs),
(411,442,l),
(431,442,l),
(395,500,o),
(343,530,o),
(272,530,cs),
(117,530,o),
(40,387,o),
(40,248,cs),
(40,114,o),
(98,-15,o),
(260,-15,cs)
);
},
{
closed = 1;
nodes = (
(234,122,o),
(195,166,o),
(195,256,cs),
(195,346,o),
(234,390,o),
(303,390,cs),
(369,390,o),
(410,348,o),
(410,259,cs),
(410,164,o),
(369,122,o),
(303,122,cs)
);
}
);
width = 654;
},
{
anchors = (
{
name = bottom;
pos = (254,0);
},
{
name = ogonek;
pos = (477,10);
},
{
name = top;
pos = (254,515);
}
);
layerId = "3D52442A-254C-4C79-B742-A98FD72DF947";
shapes = (
{
closed = 1;
nodes = (
(321,-15,o),
(376,18,o),
(413,73,c),
(415,73,l),
(415,42,ls),
(415,16,o),
(424,-8,o),
(462,-8,cs),
(488,-8,o),
(500,1,o),
(500,16,cs),
(500,30,o),
(490,38,o),
(476,38,cs),
(461,38,o),
(458,45,o),
(458,65,cs),
(458,493,ls),
(458,509,o),
(449,520,o),
(436,520,cs),
(423,520,o),
(413,509,o),
(413,493,cs),
(413,420,l),
(415,433,l),
(388,488,o),
(318,530,o),
(251,530,cs),
(122,530,o),
(35,408,o),
(35,258,cs),
(35,107,o),
(105,-15,o),
(247,-15,cs)
);
},
{
closed = 1;
nodes = (
(141,29,o),
(80,113,o),
(80,258,cs),
(80,401,o),
(159,487,o),
(254,487,cs),
(344,487,o),
(413,394,o),
(413,258,cs),
(413,113,o),
(349,31,o),
(245,30,cs)
);
}
);
width = 530;
},
{
anchors = (
{
name = bottom;
pos = (285,0);
},
{
name = ogonek;
pos = (517,0);
},
{
name = top;
pos = (280,515);
}
);
layerId = "CF015620-3929-45BF-A6BE-C5D8AFCEAD19";
shapes = (
{
closed = 1;
nodes = (
(332,-15,o),
(383,7,o),
(428,65,c),
(433,65,l),
(433,59,ls),
(433,17,o),
(456,-6,o),
(502,-6,cs),
(540,-6,o),
(561,12,o),
(561,40,cs),
(561,63,o),
(547,82,o),
(525,82,cs),
(516,82,o),
(515,91,o),
(515,121,cs),
(515,471,ls),
(515,499,o),
(494,520,o),
(466,520,cs),
(440,520,o),
(418,501,o),
(418,473,cs),
(418,437,l),
(433,437,l),
(397,490,o),
(348,530,o),
(268,530,cs),
(121,530,o),
(40,395,o),
(40,247,cs),
(40,89,o),
(118,-15,o),
(266,-15,cs)
);
},
{
closed = 1;
nodes = (
(191,75,o),
(139,135,o),
(139,249,cs),
(139,366,o),
(189,440,o),
(280,440,cs),
(363,439,o),
(418,370,o),
(418,253,cs),
(418,109,o),
(344,75,o),
(281,75,cs)
);
}
);
width = 594.75;
},
{
anchors = (
{
name = bottom;
pos = (265,0);
},
{
name = ogonek;
pos = (492,5);
},
{
name = top;
pos = (264,515);
}
);
layerId = "0A7BF5CC-8360-449C-B03A-1C2F0CDBB92F";
shapes = (
{
closed = 1;
nodes = (
(324,-15,o),
(375,10,o),
(421,65,c),
(424,65,l),
(424,46,ls),
(424,16,o),
(439,-7,o),
(477,-7,cs),
(505,-7,o),
(520,7,o),
(520,26,cs),
(520,43,o),
(508,55,o),
(492,55,cs),
(481,55,o),
(479,61,o),
(479,84,cs),
(479,487,ls),
(479,506,o),
(466,520,o),
(448,520,cs),
(431,520,o),
(417,506,o),
(417,487,cs),
(417,428,l),
(424,434,l),
(393,488,o),
(334,530,o),
(259,530,cs),
(122,530,o),
(38,403,o),
(38,253,cs),
(38,94,o),
(115,-15,o),
(258,-15,cs)
);
},
{
closed = 1;
nodes = (
(159,44,o),
(100,119,o),
(100,253,cs),
(100,387,o),
(167,472,o),
(263,472,cs),
(353,471,o),
(417,386,o),
(417,255,cs),
(417,102,o),
(343,45,o),
(259,45,cs)
);
}
);
width = 552.5;
}
);
metricLeft = "=o";
metricRight = "=a";
},
